<?xml version="1.0" standalone="no"?>
<!DOCTYPE svg PUBLIC "-//W3C//DTD SVG 1.1//EN" "http://www.w3.org/Graphics/SVG/1.1/DTD/svg11.dtd" >
<svg xmlns="http://www.w3.org/2000/svg" xmlns:xlink="http://www.w3.org/1999/xlink" version="1.1">
<metadata>
Created by FontForge 20200314 at Mon Aug 31 22:01:26 2020
 By www-data
Deuglas (c) (Sealoung Studio). 2020. All Rights Reserved
</metadata>
<defs>
<font id="Deuglas" horiz-adv-x="640" >
  <font-face 
    font-family="Deuglas"
    font-weight="400"
    font-stretch="normal"
    units-per-em="1000"
    panose-1="2 0 6 0 0 0 0 0 0 0"
    ascent="800"
    descent="-200"
    x-height="387"
    cap-height="679"
    bbox="-578 -494 2224 971"
    underline-thickness="50"
    underline-position="-100"
    unicode-range="U+001D-00FF"
  />
<missing-glyph horiz-adv-x="500" 
 />
    <glyph glyph-name=".notdef" horiz-adv-x="500" 
 />
    <glyph glyph-name=".notdef" horiz-adv-x="500" 
 />
    <glyph glyph-name=".null" horiz-adv-x="0" 
 />
    <glyph glyph-name="nonmarkingreturn" horiz-adv-x="333" 
 />
    <glyph glyph-name="space" unicode=" " horiz-adv-x="456" 
 />
    <glyph glyph-name="space" unicode="&#xa0;" horiz-adv-x="456" 
 />
    <glyph glyph-name="zero" unicode="0" horiz-adv-x="671" 
d="M310 -200q-39 0 -80.5 16t-83 51.5t-74 85.5t-52.5 124.5t-20 161.5t20 161.5t52.5 124t74 85t83 51.5t80.5 16q50 0 102.5 -27t100 -77.5t78 -138t30.5 -195.5t-30.5 -196t-78 -138.5t-100 -77.5t-102.5 -27zM311 -118q36 0 74.5 22t73.5 63t57 112t22 159t-22 159
t-57 112.5t-73.5 63.5t-74.5 22t-74.5 -22t-73.5 -63.5t-57 -112.5t-22 -159t22 -159t57 -112t73.5 -63t74.5 -22z" />
    <glyph glyph-name="one" unicode="1" horiz-adv-x="258" 
d="M208 -201h-83v777l-76 -55l-49 67l125 89h83v-878z" />
    <glyph glyph-name="two" unicode="2" horiz-adv-x="639" 
d="M589 -201h-589v83q131 76 230.5 150t148 125.5t78.5 92.5t36 61l6 20q7 30 7 52q0 86 -62.5 149t-149.5 63q-86 0 -148.5 -63t-62.5 -149h-83q0 121 87 207.5t207 86.5q121 0 208 -86.5t87 -207.5l-14 -86q-11 -36 -36 -75q-119 -179 -386 -340h436v-83z" />
    <glyph glyph-name="three" unicode="3" horiz-adv-x="638" 
d="M294 -201q-47 0 -96.5 14.5t-94.5 42.5t-74 76t-29 107h83q0 -51 36 -88.5t82.5 -53t92.5 -15.5q47 0 93 15.5t82 53t36 88.5t-36 88.5t-82 53t-93 15.5v85q47 0 93 15.5t82 53t36 88.5t-35.5 88t-82 53t-93.5 16q-46 0 -92.5 -16t-82.5 -53t-36 -88h-83q0 59 29 107
t74 75.5t94.5 42t96.5 14.5t96.5 -14.5t94.5 -42t74 -75.5t29 -107q0 -131 -132 -200q59 -30 95.5 -80.5t36.5 -118.5q0 -59 -29 -107t-74 -76t-94.5 -42.5t-96.5 -14.5z" />
    <glyph glyph-name="four" unicode="4" horiz-adv-x="639" 
d="M589 -201h-83v398h-506v83l269 400l69 -46l-236 -354h404v397h83v-878z" />
    <glyph glyph-name="five" unicode="5" horiz-adv-x="639" 
d="M294 -201q-95 0 -184 78t-106 219l83 1q15 -102 78.5 -158.5t128.5 -56.5q34 0 69.5 16.5t68 48t53.5 85t21 120.5t-21 120.5t-53.5 85t-68 48t-69.5 16.5q-60 0 -119.5 -48t-81.5 -136h-93v439h589v-82h-506v-196q44 52 101 79t110 27q47 0 96.5 -21.5t95 -62.5
t74.5 -111.5t29 -157.5t-29 -157.5t-74.5 -111.5t-95 -62.5t-96.5 -21.5z" />
    <glyph glyph-name="six" unicode="6" horiz-adv-x="638" 
d="M294 -201q-120 0 -207 87t-87 207q0 80 40 146l312 439l67 -48l-176 -247l51 5q120 0 207 -87t87 -208q0 -120 -87 -207t-207 -87zM294 -118q86 0 148.5 62.5t62.5 148.5q0 87 -62.5 149.5t-148.5 62.5q-87 0 -149 -60t-62 -152q0 -86 62.5 -148.5t148.5 -62.5z" />
    <glyph glyph-name="seven" unicode="7" 
d="M69 -201l-69 46l494 750h-494v82h590v-87z" />
    <glyph glyph-name="eight" unicode="8" horiz-adv-x="639" 
d="M294 -201q-120 0 -207 71.5t-87 169.5q0 60 35 112.5t94 85.5q-59 34 -94 86.5t-35 112.5q0 98 87 169t207 71q121 0 208 -71t87 -169q0 -60 -35 -112.5t-94 -86.5q59 -33 94 -85.5t35 -112.5q0 -98 -87 -169.5t-208 -71.5zM319 280q78 7 132.5 52t54.5 105
q0 65 -62.5 111.5t-149.5 46.5q-86 0 -148.5 -46.5t-62.5 -111.5q0 -60 54.5 -105t132.5 -52h49zM294 -118q87 0 149.5 46.5t62.5 111.5q0 60 -54 104.5t-133 52.5h-49q-79 -8 -133 -52.5t-54 -104.5q0 -65 62.5 -111.5t148.5 -46.5z" />
    <glyph glyph-name="nine" unicode="9" horiz-adv-x="638" 
d="M236 -200l-67 48l176 247l-51 -4q-120 0 -207 87t-87 207t87 207t207 87t207 -87t87 -207q0 -80 -40 -146zM294 174q87 0 149 59.5t62 151.5q0 86 -62.5 148.5t-148.5 62.5t-148.5 -62.5t-62.5 -148.5t62.5 -148.5t148.5 -62.5z" />
    <glyph glyph-name="A" unicode="A" horiz-adv-x="841" 
d="M715 -196l-120 287h-398l-121 -287l-76 32l354 843h83l354 -843zM560 174l-164 391l-165 -391h329z" />
    <glyph glyph-name="B" unicode="B" horiz-adv-x="731" 
d="M359 -196h-359v874h359q52 0 106 -15t103.5 -43.5t81 -76.5t31.5 -107q0 -127 -136 -197q136 -68 136 -195q0 -47 -21 -87.5t-55 -68t-76.5 -47t-85.5 -28.5t-84 -9zM366 280q51 0 102 16t90.5 53t39.5 88v2q0 51 -39.5 88.5t-90.5 53t-103 15.5h-282v-316h283zM366 -113
q51 0 102 15.5t90.5 52t39.5 86.5v3q0 69 -67.5 109.5t-149.5 44.5h-298v-311h283z" />
    <glyph glyph-name="C" unicode="C" horiz-adv-x="730" 
d="M423 -195q-102 0 -184.5 37.5t-133.5 99.5t-78 139.5t-27 160.5q0 84 27 161t78 139.5t133.5 99.5t184.5 37q150 0 257 -81l-62 -62q-83 57 -195 57q-108 0 -187.5 -52t-116 -130.5t-36.5 -169.5q0 -68 21.5 -130t62.5 -112.5t107.5 -80.5t148.5 -30q114 0 198 58l59 -60
q-107 -81 -257 -81z" />
    <glyph glyph-name="D" unicode="D" horiz-adv-x="731" 
d="M0 -194v873h275q79 -2 146 -27.5t114.5 -67.5t81 -97.5t49.5 -117t16 -126.5t-16 -126.5t-49.5 -117t-81 -97.5t-114.5 -67.5t-146 -27.5zM275 -111q154 6 240 110t86 244q0 66 -21 127.5t-60.5 111t-102.5 80.5t-142 34h-192v-707h192z" />
    <glyph glyph-name="E" unicode="E" horiz-adv-x="637" 
d="M587 -196h-587v875h587v-83h-504v-317h389v-82h-389v-310h504v-83z" />
    <glyph glyph-name="F" unicode="F" horiz-adv-x="636" 
d="M82 -198h-82v877h586v-83h-504v-317h389v-82h-389v-395z" />
    <glyph glyph-name="G" unicode="G" horiz-adv-x="894" 
d="M422 -194q-102 0 -184 37t-133 99.5t-78 139.5t-27 161q0 83 27 160t78 139.5t133 99.5t184 37q155 0 262 -84l-59 -61q-86 62 -203 62q-82 0 -148 -30.5t-107 -81t-63 -113.5t-22 -131t22 -131t63 -113.5t107 -81t148 -30.5q148 0 236 91t102 223h-338v82h421
q1 -12 1 -37q0 -67 -16.5 -129.5t-51 -118.5t-83.5 -98t-119 -66.5t-152 -24.5z" />
    <glyph glyph-name="H" unicode="H" horiz-adv-x="684" 
d="M634 -198h-83v397h-469v-397h-82v877h82v-397h469v397h83v-877z" />
    <glyph glyph-name="I" unicode="I" horiz-adv-x="133" 
d="M83 -198h-83v877h83v-877z" />
    <glyph glyph-name="J" unicode="J" horiz-adv-x="541" 
d="M245 -199q-108 0 -172 71.5t-73 174.5h84q10 -70 51.5 -116.5t109.5 -46.5t111 47t53 116v633h82v-604q0 -111 -65 -193t-181 -82z" />
    <glyph glyph-name="K" unicode="K" horiz-adv-x="645" 
d="M83 -198h-83v877h83v-336l464 336l48 -67l-512 -371l512 -370l-48 -67l-464 335v-337z" />
    <glyph glyph-name="L" unicode="L" horiz-adv-x="637" 
d="M83 -198h-83v877h83v-792h504v-83h-504v-2z" />
    <glyph glyph-name="M" unicode="M" horiz-adv-x="958" 
d="M908 -200h-82v736l-371 -526v-2l-1 1l-371 527v-736h-83v880h83l371 -527l371 527h83v-880z" />
    <glyph glyph-name="N" unicode="N" horiz-adv-x="730" 
d="M680 -197h-83l-514 730v-730h-83v876h83l514 -731v731h83v-876z" />
    <glyph glyph-name="O" unicode="O" horiz-adv-x="894" 
d="M422 -196q-102 0 -184 37t-133 99.5t-78 139.5t-27 161q0 83 27 160t78 139.5t133 99.5t184 37q82 0 152 -24.5t119 -66.5t83.5 -97.5t51 -118.5t16.5 -129q0 -67 -16.5 -129.5t-51 -118.5t-83.5 -98t-119 -66.5t-152 -24.5zM422 -117q82 0 148.5 30.5t107.5 81
t62.5 113.5t21.5 131t-21.5 130.5t-62.5 113t-107.5 81t-148.5 30.5t-148 -30.5t-107 -81t-63 -113t-22 -130.5t22 -131t63 -113.5t107 -81t148 -30.5z" />
    <glyph glyph-name="P" unicode="P" horiz-adv-x="731" 
d="M83 -198h-83v877h83v-1h276q52 -1 106 -16t103.5 -43.5t81 -76.5t31.5 -107q-1 -127 -136 -196q-95 -42 -157 -42h-305v-395zM366 280q51 0 102 15.5t90.5 52.5t39.5 88v3q0 51 -39.5 88t-90.5 52.5t-103 15.5h-282v-315h283z" />
    <glyph glyph-name="Q" unicode="Q" horiz-adv-x="894" 
d="M783 -196l-85 95q-111 -95 -276 -95q-102 0 -184 37t-133 99.5t-78 139.5t-27 161q0 83 27 160t78 139.5t133 99.5t184 37t184 -37t133 -99.5t78 -139.5t27 -160q0 -163 -90 -281l90 -101zM422 -117q132 0 222 77l-97 109l62 55l90 -101q63 93 63 215q0 68 -21.5 131
t-62.5 113.5t-107.5 81t-148.5 30.5t-148 -30.5t-107 -81t-63 -113t-22 -130.5t22 -131t63 -113.5t107 -81t148 -30.5z" />
    <glyph glyph-name="R" unicode="R" horiz-adv-x="786" 
d="M83 -198h-83v877h83v-1h276q52 -1 106 -16t103.5 -43.5t81 -76.5t31.5 -107q0 -126 -136 -196q-62 -28 -112 -37l303 -343l-62 -55l-347 393h-244v-395zM366 280q51 0 102 15.5t90.5 52.5t39.5 88v3q0 51 -39.5 88t-90.5 52.5t-103 15.5h-282v-315h283z" />
    <glyph glyph-name="S" unicode="S" horiz-adv-x="731" 
d="M340 -196q-54 0 -111.5 14.5t-109.5 42t-85.5 75t-33.5 106.5h82q0 -50 44 -87t101 -52.5t113 -15.5t113 15.5t101 52.5t44 87q0 51 -44 88.5t-101 53.5t-114 16q-54 0 -111.5 15.5t-109.5 43.5t-85 76t-33 106t33.5 105.5t85.5 75.5t109.5 42.5t111.5 14.5t112 -14.5
t110 -42.5t85.5 -75.5t33.5 -105.5h-83q0 50 -44 87t-101 52.5t-113 15.5t-113 -15.5t-101 -52.5t-44 -87q0 -51 44 -88.5t101 -53.5t113 -16q54 0 112 -15t110 -43t85.5 -76t33.5 -107t-33.5 -106.5t-86 -75t-110 -42t-111.5 -14.5z" />
    <glyph glyph-name="T" unicode="T" horiz-adv-x="734" 
d="M381 -199h-82v794h-299v82h684v-82h-303v-794z" />
    <glyph glyph-name="U" unicode="U" horiz-adv-x="732" 
d="M342 -196q-82 0 -148.5 30t-108 80t-63.5 112t-22 129v522h83v-532q5 -106 73 -182t185 -76q118 0 185.5 75t72.5 181v534h83v-522h-1q0 -91 -36.5 -169t-115.5 -130t-187 -52z" />
    <glyph glyph-name="V" unicode="V" horiz-adv-x="841" 
d="M437 -198h-83l-354 842l76 32l319 -760l320 760l76 -32z" />
    <glyph glyph-name="W" unicode="W" horiz-adv-x="1046" 
d="M706 -198h-70l-138 401l-137 -401h-70l-291 847l78 27l248 -721l172 502l173 -502l247 721l78 -27z" />
    <glyph glyph-name="X" unicode="X" horiz-adv-x="733" 
d="M616 -199l-275 370l-275 -370l-66 49l290 390l-290 389l66 50l275 -370l275 370l67 -50l-290 -389l290 -390z" />
    <glyph glyph-name="Y" unicode="Y" horiz-adv-x="815" 
d="M423 -196h-82v362l-341 464l67 49l316 -431l315 431l67 -49l-342 -466v-360z" />
    <glyph glyph-name="Z" unicode="Z" horiz-adv-x="732" 
d="M682 -196h-682v83h1h-1l575 709h-575v83h682v-82l-576 -710h576v-83z" />
    <glyph glyph-name="a" unicode="a" 
d="M590 -202h-83v91q-88 -91 -212 -91q-121 0 -208 87t-87 208t87 208t208 87q124 0 212 -91v91h83v-590zM295 -119q86 0 149 63t63 149q0 87 -63 149.5t-149 62.5q-87 0 -149.5 -62.5t-62.5 -149.5q0 -86 62.5 -149t149.5 -63z" />
    <glyph glyph-name="b" unicode="b" 
d="M295 -202q-124 0 -212 91v-91h-83v882h83v-383q88 91 212 91q121 0 208 -87t87 -208t-87 -208t-208 -87zM295 -119q86 0 149 63t63 149q0 87 -63 149.5t-149 62.5q-87 0 -149.5 -62.5t-62.5 -149.5q0 -86 62.5 -149t149.5 -63z" />
    <glyph glyph-name="c" unicode="c" horiz-adv-x="565" 
d="M295 -202q-121 0 -208 87t-87 208t87 208t208 87q131 0 220 -99l-57 -62q-63 78 -163 78q-86 0 -149 -62.5t-63 -149.5q0 -86 63 -149t149 -63q94 0 159 73l60 -56v-2q-90 -98 -219 -98z" />
    <glyph glyph-name="d" unicode="d" horiz-adv-x="641" 
d="M591 -202h-84v91q-88 -91 -212 -91q-120 0 -207.5 87t-87.5 208t87.5 208t207.5 87q124 0 212 -91v383h84v-882zM295 -119q87 0 149.5 63t62.5 149q0 87 -62.5 149.5t-149.5 62.5q-86 0 -149 -62.5t-63 -149.5q0 -86 63 -149t149 -63z" />
    <glyph glyph-name="e" unicode="e" horiz-adv-x="565" 
d="M295 -202q-121 0 -208 87t-87 208t87 208t208 87q129 0 220 -99q-69 -74 -341 -369q55 -39 121 -39q94 0 157 70l2 3l60 -56v-2q-90 -98 -219 -98zM116 -19l277 299q-45 25 -98 25q-86 0 -149 -62.5t-63 -149.5q0 -58 33 -112z" />
    <glyph glyph-name="f" unicode="f" horiz-adv-x="422" 
d="M83 -201h-83v586q0 295 214 295q99 0 158 -80l-65 -48q-36 46 -92 46q-130 0 -130 -201v-9h145v-83h-145z" />
    <glyph glyph-name="g" unicode="g" horiz-adv-x="660" 
d="M295 -491q-33 0 -70.5 6t-78.5 19t-68 40t-27 64q0 56 64 91l67 92q-81 34 -131.5 108.5t-50.5 163.5q0 121 87 208t208 87q112 0 196 -76l48 76l71 -44l-63 -100q43 -70 43 -151q0 -121 -87 -208t-208 -87l-26 1l-25 -35q25 4 51 4q32 0 69.5 -6t78.5 -19t68 -40.5
t27 -64.5t-27 -64t-68 -40t-78.5 -19t-69.5 -6zM295 -407q54 0 107 10.5t53 34.5t-53.5 35t-106.5 11q-54 0 -107.5 -11t-53.5 -35t53.5 -34.5t107.5 -10.5zM295 -119q86 0 149 63t63 149q0 87 -63 149.5t-149 62.5q-87 0 -149.5 -62.5t-62.5 -149.5q0 -86 62.5 -149
t149.5 -63z" />
    <glyph glyph-name="h" unicode="h" horiz-adv-x="581" 
d="M83 -203h-83v882h83v-359q71 69 182 69q125 0 195.5 -81.5t70.5 -192.5l-1 -22h1v-295h-83v318q0 76 -48.5 132t-134.5 56q-85 0 -133.5 -55.5t-48.5 -130.5v-321z" />
    <glyph glyph-name="i" unicode="i" horiz-adv-x="133" 
d="M83 -202h-83v590h83v-590zM83 527h-83v153h83v-153z" />
    <glyph glyph-name="j" unicode="j" horiz-adv-x="133" 
d="M-419 -491q-99 0 -159 81l65 48q35 -47 92 -47q132 0 132 193v604h83v-590q-2 -289 -213 -289zM-206 527h-83v153h83v-153z" />
    <glyph glyph-name="k" unicode="k" horiz-adv-x="586" 
d="M83 -202h-83v882h83v-461l57 -44l249 213l54 -63l-236 -202l329 -258l-51 -65l-402 313v-315z" />
    <glyph glyph-name="l" unicode="l" horiz-adv-x="133" 
d="M83 -203h-83v882h83v-882z" />
    <glyph glyph-name="m" unicode="m" horiz-adv-x="1032" 
d="M982 -202h-83v319q0 64 -37 116.5t-102 66.5l-12 2l-10 1q-3 0 -4 1h-36q-1 -1 -4 -1l-21 -3q-66 -14 -102.5 -66t-36.5 -117v-319h-86v320q0 75 -48.5 130.5t-133.5 55.5q-86 0 -134.5 -56t-48.5 -132v-318h-83v590h83v-68q72 69 183 69q152 0 225 -123q57 97 169 117
l2 1l28 3q16 2 26 2t26 -2l29 -3q1 0 1 -1q100 -18 155 -94.5t55 -173.5l-1 -22h1v-295z" />
    <glyph glyph-name="n" unicode="n" horiz-adv-x="582" 
d="M532 -202h-84v321q0 75 -48.5 130t-133.5 55q-86 0 -134.5 -56t-48.5 -132v-318h-83v590h83v-68q72 69 183 69q125 0 195.5 -81.5t70.5 -192.5l-1 -22h1v-295z" />
    <glyph glyph-name="o" unicode="o" 
d="M295 -202q-121 0 -208 87t-87 208t87 208t208 87t208 -87t87 -208t-87 -208t-208 -87zM295 -119q86 0 149 63t63 149q0 87 -63 149.5t-149 62.5q-87 0 -149.5 -62.5t-62.5 -149.5q0 -86 62.5 -149t149.5 -63z" />
    <glyph glyph-name="p" unicode="p" 
d="M83 -494h-83v882h83v-91q88 91 212 91q121 0 208 -87t87 -208t-87 -208t-208 -87q-124 0 -212 91v-383zM295 -119q87 0 149.5 63t62.5 149q0 87 -62.5 149.5t-149.5 62.5q-86 0 -149 -62.5t-63 -149.5q0 -86 63 -149t149 -63z" />
    <glyph glyph-name="q" unicode="q" horiz-adv-x="641" 
d="M295 -202q-120 0 -207.5 87t-87.5 208t87.5 208t207.5 87q121 0 208.5 -87t87.5 -208q0 -96 -59 -174l57 -64l-61 -55l-54 59q-80 -61 -179 -61zM295 -119q67 0 123 40l-61 68l61 56l57 -63q32 53 32 111q0 87 -62.5 149.5t-149.5 62.5q-86 0 -149 -62.5t-63 -149.5
q0 -86 63 -149t149 -63z" />
    <glyph glyph-name="r" unicode="r" horiz-adv-x="404" 
d="M83 -202h-83v590h83v-68q72 69 183 69q46 0 88 -13l-31 -80q-23 8 -57 8q-86 0 -134.5 -56t-48.5 -132v-318z" />
    <glyph glyph-name="s" unicode="s" horiz-adv-x="581" 
d="M265 -200q-35 0 -76 7.5t-85.5 25t-74 52.5t-29.5 83h83q0 -24 20 -41.5t51 -26t59 -12.5t52 -4t52 4t59.5 12.5t51.5 26t20 41.5q0 32 -36 52.5t-74 26.5t-73 6q-36 0 -76.5 7.5t-85.5 24.5t-74 52t-29 83q0 39 20 70t50 48.5t67.5 29.5t69 16t58.5 4q36 0 76.5 -7.5
t85.5 -24.5t74.5 -52.5t29.5 -83.5h-83q0 32 -36 52.5t-74 26.5t-73 6t-72.5 -6t-73.5 -26.5t-36 -52.5q0 -24 20 -41.5t51 -26t59 -12.5t52 -4q35 0 76 -7.5t86 -25t74.5 -52.5t29.5 -83t-29.5 -83t-74.5 -52.5t-86 -25t-76 -7.5z" />
    <glyph glyph-name="t" unicode="t" horiz-adv-x="336" 
d="M264 -199q-162 32 -164 284v220h-100v83h100v292h83v-292h103v-83h-103v-227q0 -176 103 -197z" />
    <glyph glyph-name="u" unicode="u" horiz-adv-x="582" 
d="M532 -202h-83v68q-71 -68 -183 -68q-125 0 -195.5 81.5t-70.5 193.5l1 20h-1v296h84v-321q0 -75 48.5 -130.5t133.5 -55.5q86 0 134.5 56t48.5 132v319h83v-591z" />
    <glyph glyph-name="v" unicode="v" horiz-adv-x="585" 
d="M308 -199h-82l-226 557l77 31l190 -468l191 468l77 -31z" />
    <glyph glyph-name="w" unicode="w" horiz-adv-x="926" 
d="M650 -201h-82l-130 318l-129 -318h-82l-227 556l77 32l191 -468l170 419l171 -419l190 468l77 -32z" />
    <glyph glyph-name="x" unicode="x" horiz-adv-x="583" 
d="M470 -201l-204 231l-204 -231l-62 55l211 239l-211 239l62 55l204 -231l204 231l63 -55l-211 -239l211 -239z" />
    <glyph glyph-name="y" unicode="y" horiz-adv-x="588" 
d="M193 -491q-25 0 -54 6q-97 20 -139 111l74 34q26 -53 80 -65q16 -3 30 -3q105 0 140 171l1 4q1 4 3 14t4 19l-332 545l71 43l286 -469l99 470l82 -17l-131 -619q-52 -244 -214 -244z" />
    <glyph glyph-name="z" unicode="z" horiz-adv-x="586" 
d="M536 -199h-536v83h1l415 421h-416v83h536v-83l-421 -421h421v-83z" />
    <glyph glyph-name="Agrave" unicode="&#xc0;" horiz-adv-x="841" 
d="M715 -196l-120 287h-398l-121 -287l-76 32l354 843h83l354 -843zM560 174l-164 391l-165 -391h329zM397 703l-142 168l64 53l142 -167z" />
    <glyph glyph-name="Aacute" unicode="&#xc1;" horiz-adv-x="841" 
d="M715 -196l-120 287h-398l-121 -287l-76 32l354 843h83l354 -843zM560 174l-164 391l-165 -391h329zM394 699l-64 54l144 167l65 -53z" />
    <glyph glyph-name="Acircumflex" unicode="&#xc2;" horiz-adv-x="841" 
d="M715 -196l-120 287h-398l-121 -287l-76 32l354 843h83l354 -843zM560 174l-164 391l-165 -391h329zM612 699l-109 1l-71 83h-71l-71 -83l-109 -1l141 167h148z" />
    <glyph glyph-name="Atilde" unicode="&#xc3;" horiz-adv-x="841" 
d="M715 -196l-120 287h-398l-121 -287l-76 32l354 843h83l354 -843zM560 174l-164 391l-165 -391h329zM252 697l-26 77q47 117 102 117q17 0 34 -13q8 -6 33.5 -30t43 -35t33.5 -11q39 0 64 76l4 9l26 -75l-1 -3q-18 -53 -44 -80.5t-55 -27.5q-16 0 -32 9q-15 9 -42 37
t-41 36q-11 7 -22 7q-39 0 -73 -87z" />
    <glyph glyph-name="Adieresis" unicode="&#xc4;" horiz-adv-x="841" 
d="M715 -196l-120 287h-398l-121 -287l-76 32l354 843h83l354 -843zM560 174l-164 391l-165 -391h329zM371 703h-83v153h83v-153zM503 703h-83v153h83v-153z" />
    <glyph glyph-name="Aring" unicode="&#xc5;" horiz-adv-x="841" 
d="M715 -196l-120 287h-398l-121 -287l-76 32l354 843h83l354 -843zM560 174l-164 391l-165 -391h329zM400 705q-54 0 -93.5 39.5t-39.5 93.5t39.5 93.5t93.5 39.5q55 0 94 -39.5t39 -93.5t-39 -93.5t-94 -39.5zM400 781q23 0 40 17t17 40t-17 40t-40 17t-40 -17t-17 -40
t17 -40t40 -17z" />
    <glyph glyph-name="AE" unicode="&#xc6;" horiz-adv-x="1217" 
d="M1718 -201h-83v396h-268l-239 -392l-71 43l506 832v1h661v-83h-506v-318h391v-83h-391v-311h506v-83h-506v-2zM1635 278v318h-24l-194 -318h218z" />
    <glyph glyph-name="Ccedilla" unicode="&#xc7;" horiz-adv-x="734" 
d="M1754 -465l24 54h8q13 0 26 2t30.5 7.5t29.5 18.5t13 33v5q0 55 -95 55h-12l30 116q-130 45 -201 160.5t-71 254.5q0 84 27 161.5t78.5 140t134.5 100t185 37.5q152 0 259 -81l-62 -62q-83 56 -196 56q-83 0 -150 -30t-108 -80.5t-63 -113t-22 -130.5t22 -130.5
t63 -113.5t108 -81t150 -30q114 0 198 58l60 -59q-106 -82 -259 -82q-53 0 -103 11l-15 -60q4 0 10.5 -1t23 -7t29 -15t23 -28.5t10.5 -45.5q0 -120 -185 -120z" />
    <glyph glyph-name="Egrave" unicode="&#xc8;" horiz-adv-x="637" 
d="M587 -196h-587v875h587v-83h-504v-317h389v-82h-389v-310h504v-83zM304 701l-142 168l64 53l142 -167z" />
    <glyph glyph-name="Eacute" unicode="&#xc9;" horiz-adv-x="637" 
d="M300 700l-64 54l144 167l65 -53zM587 -196h-587v875h587v-83h-504v-317h389v-82h-389v-310h504v-83z" />
    <glyph glyph-name="Ecircumflex" unicode="&#xca;" horiz-adv-x="637" 
d="M513 702l-109 1l-71 83h-71l-71 -83l-109 -1l141 167h148zM587 -196h-587v875h587v-83h-504v-317h389v-82h-389v-310h504v-83z" />
    <glyph glyph-name="Edieresis" unicode="&#xcb;" horiz-adv-x="637" 
d="M285 705h-83v153h83v-153zM417 705h-83v153h83v-153zM587 -196h-587v875h587v-83h-504v-317h389v-82h-389v-310h504v-83z" />
    <glyph glyph-name="Igrave" unicode="&#xcc;" horiz-adv-x="256" 
d="M183 -198h-83v877h83v-877zM142 701l-142 168l64 53l142 -167z" />
    <glyph glyph-name="Iacute" unicode="&#xcd;" horiz-adv-x="259" 
d="M103 -198h-83v877h83v-877zM64 700l-64 54l144 167l65 -53z" />
    <glyph glyph-name="Icircumflex" unicode="&#xce;" horiz-adv-x="481" 
d="M255 -198h-83v877h83v-877zM431 705l-109 1l-71 83h-71l-71 -83l-109 -1l141 167h148z" />
    <glyph glyph-name="Idieresis" unicode="&#xcf;" horiz-adv-x="265" 
d="M152 -198h-83v877h83v-877zM83 703h-83v153h83v-153zM215 703h-83v153h83v-153z" />
    <glyph glyph-name="Eth" unicode="&#xd0;" horiz-adv-x="864" 
d="M403 -199h-277v399h-126v83h126v399h277q99 -3 179 -41.5t129.5 -101t76 -139t26.5 -159.5t-26.5 -159t-76 -138.5t-129.5 -101t-179 -41.5zM210 -116l193 1q156 6 242.5 110.5t86.5 246.5q0 67 -21 128.5t-60.5 112t-103.5 81.5t-144 34h-194l1 -315h128v-83h-128v-316z
" />
    <glyph glyph-name="Ntilde" unicode="&#xd1;" horiz-adv-x="730" 
d="M680 -197h-83l-514 730v-730h-83v876h83l514 -731v731h83v-876zM207 699l-26 77q47 117 102 117q17 0 34 -13q8 -6 33.5 -30t43 -35t33.5 -11q39 0 64 76l4 9l26 -75l-1 -3q-18 -53 -44 -80.5t-55 -27.5q-15 0 -32 9q-15 9 -42 37t-41 36q-11 7 -22 7q-39 0 -73 -87z" />
    <glyph glyph-name="Ograve" unicode="&#xd2;" horiz-adv-x="894" 
d="M422 -196q-102 0 -184 37t-133 99.5t-78 139.5t-27 161q0 83 27 160t78 139.5t133 99.5t184 37q82 0 152 -24.5t119 -66.5t83.5 -97.5t51 -118.5t16.5 -129q0 -67 -16.5 -129.5t-51 -118.5t-83.5 -98t-119 -66.5t-152 -24.5zM422 -117q82 0 148.5 30.5t107.5 81
t62.5 113.5t21.5 131t-21.5 130.5t-62.5 113t-107.5 81t-148.5 30.5t-148 -30.5t-107 -81t-63 -113t-22 -130.5t22 -131t63 -113.5t107 -81t148 -30.5zM431 703l-142 168l64 53l142 -167z" />
    <glyph glyph-name="Oacute" unicode="&#xd3;" horiz-adv-x="894" 
d="M422 -196q-102 0 -184 37t-133 99.5t-78 139.5t-27 161q0 83 27 160t78 139.5t133 99.5t184 37q82 0 152 -24.5t119 -66.5t83.5 -97.5t51 -118.5t16.5 -129q0 -67 -16.5 -129.5t-51 -118.5t-83.5 -98t-119 -66.5t-152 -24.5zM422 -117q82 0 148.5 30.5t107.5 81
t62.5 113.5t21.5 131t-21.5 130.5t-62.5 113t-107.5 81t-148.5 30.5t-148 -30.5t-107 -81t-63 -113t-22 -130.5t22 -131t63 -113.5t107 -81t148 -30.5zM420 707l-64 54l144 167l65 -53z" />
    <glyph glyph-name="Ocircumflex" unicode="&#xd4;" horiz-adv-x="894" 
d="M422 -196q-102 0 -184 37t-133 99.5t-78 139.5t-27 161q0 83 27 160t78 139.5t133 99.5t184 37q82 0 152 -24.5t119 -66.5t83.5 -97.5t51 -118.5t16.5 -129q0 -67 -16.5 -129.5t-51 -118.5t-83.5 -98t-119 -66.5t-152 -24.5zM422 -117q82 0 148.5 30.5t107.5 81
t62.5 113.5t21.5 131t-21.5 130.5t-62.5 113t-107.5 81t-148.5 30.5t-148 -30.5t-107 -81t-63 -113t-22 -130.5t22 -131t63 -113.5t107 -81t148 -30.5zM640 702l-109 1l-71 83h-71l-71 -83l-109 -1l141 167h148z" />
    <glyph glyph-name="Otilde" unicode="&#xd5;" horiz-adv-x="894" 
d="M422 -196q-102 0 -184 37t-133 99.5t-78 139.5t-27 161q0 83 27 160t78 139.5t133 99.5t184 37q82 0 152 -24.5t119 -66.5t83.5 -97.5t51 -118.5t16.5 -129q0 -67 -16.5 -129.5t-51 -118.5t-83.5 -98t-119 -66.5t-152 -24.5zM422 -117q82 0 148.5 30.5t107.5 81
t62.5 113.5t21.5 131t-21.5 130.5t-62.5 113t-107.5 81t-148.5 30.5t-148 -30.5t-107 -81t-63 -113t-22 -130.5t22 -131t63 -113.5t107 -81t148 -30.5zM283 697l-26 77q47 117 102 117q17 0 34 -13q8 -6 33.5 -30t43 -35t33.5 -11q39 0 64 76l4 9l26 -75l-1 -3
q-18 -53 -44 -80.5t-55 -27.5q-15 0 -32 9q-15 9 -42 37t-41 36q-11 7 -22 7q-39 0 -73 -87z" />
    <glyph glyph-name="Odieresis" unicode="&#xd6;" horiz-adv-x="894" 
d="M422 -196q-102 0 -184 37t-133 99.5t-78 139.5t-27 161q0 83 27 160t78 139.5t133 99.5t184 37q82 0 152 -24.5t119 -66.5t83.5 -97.5t51 -118.5t16.5 -129q0 -67 -16.5 -129.5t-51 -118.5t-83.5 -98t-119 -66.5t-152 -24.5zM422 -117q82 0 148.5 30.5t107.5 81
t62.5 113.5t21.5 131t-21.5 130.5t-62.5 113t-107.5 81t-148.5 30.5t-148 -30.5t-107 -81t-63 -113t-22 -130.5t22 -131t63 -113.5t107 -81t148 -30.5zM388 707h-83v153h83v-153zM520 707h-83v153h83v-153z" />
    <glyph glyph-name="multiply" unicode="&#xd7;" horiz-adv-x="536" 
d="M426 -37l-183 194l-183 -194l-60 57l186 198l-186 199l60 56l183 -194l183 194l60 -56l-186 -199l186 -198z" />
    <glyph glyph-name="Oslash" unicode="&#xd8;" horiz-adv-x="903" 
d="M183 -283l-75 38l63 123q-83 61 -127 158t-44 205q0 84 27.5 161.5t78.5 140.5t134.5 100.5t186.5 37.5q77 0 140 -21l65 128l75 -37l-63 -124q101 -57 155 -162t54 -225q0 -85 -27.5 -162.5t-78.5 -140.5t-134 -100.5t-186 -37.5q-99 0 -184 37zM209 -48l320 632
q-45 13 -102 13q-83 0 -150 -30.5t-108 -82t-63 -114.5t-22 -132q0 -84 32 -160t93 -126zM427 -121q83 0 150 30.5t108 82t63 114.5t22 132q0 97 -42.5 181.5t-121.5 131.5l-326 -643q64 -29 147 -29z" />
    <glyph glyph-name="Ugrave" unicode="&#xd9;" horiz-adv-x="732" 
d="M342 -196q-82 0 -148.5 30t-108 80t-63.5 112t-22 129v522h83v-532q5 -106 73 -182t185 -76q118 0 185.5 75t72.5 181v534h83v-522h-1q0 -91 -36.5 -169t-115.5 -130t-187 -52zM342 708l-142 168l64 53l142 -167z" />
    <glyph glyph-name="Uacute" unicode="&#xda;" horiz-adv-x="732" 
d="M342 -196q-82 0 -148.5 30t-108 80t-63.5 112t-22 129v522h83v-532q5 -106 73 -182t185 -76q118 0 185.5 75t72.5 181v534h83v-522h-1q0 -91 -36.5 -169t-115.5 -130t-187 -52zM343 705l-64 54l144 167l65 -53z" />
    <glyph glyph-name="Ucircumflex" unicode="&#xdb;" horiz-adv-x="732" 
d="M342 -196q-82 0 -148.5 30t-108 80t-63.5 112t-22 129v522h83v-532q5 -106 73 -182t185 -76q118 0 185.5 75t72.5 181v534h83v-522h-1q0 -91 -36.5 -169t-115.5 -130t-187 -52zM553 705l-109 1l-71 83h-71l-71 -83l-109 -1l141 167h148z" />
    <glyph glyph-name="Udieresis" unicode="&#xdc;" horiz-adv-x="732" 
d="M342 -196q-82 0 -148.5 30t-108 80t-63.5 112t-22 129v522h83v-532q5 -106 73 -182t185 -76q118 0 185.5 75t72.5 181v534h83v-522h-1q0 -91 -36.5 -169t-115.5 -130t-187 -52zM316 703h-83v153h83v-153zM448 703h-83v153h83v-153z" />
    <glyph glyph-name="Yacute" unicode="&#xdd;" horiz-adv-x="815" 
d="M423 -196h-82v362l-341 464l67 49l316 -431l315 431l67 -49l-342 -466v-360zM374 705l-64 54l144 167l65 -53z" />
    <glyph glyph-name="Thorn" unicode="&#xde;" horiz-adv-x="735" 
d="M83 -200h-83v880h83v-208h278q52 0 106.5 -15.5t104.5 -44t81.5 -77t31.5 -107.5q0 -127 -137 -197q-95 -42 -158 -42h-307v-189zM368 72q52 0 103.5 15.5t91 53t39.5 88.5v3q0 51 -39.5 88.5t-91 53t-103.5 15.5h-285v-317h285z" />
    <glyph glyph-name="germandbls" unicode="&#xdf;" horiz-adv-x="716" 
d="M370 -204q-106 0 -185 50l42 76q62 -39 156 -39q62 0 107.5 23t66.5 65q23 44 23 74q0 38 -16 68t-56.5 56t-64 38t-82.5 37q-12 5 -18 8q-27 10 -27 38q0 13 11 23q3 3 30 26t38 33.5t26 31t20 38.5q4 18 4 28q0 39 -20.5 71t-56.5 48q-27 12 -63 12q-50 0 -92.5 -24
t-66.5 -67q-57 -102 -63 -332q-2 -45 -2 -136l1 -204l-80 -1q0 37 -1 110.5t-1 110.5q0 187 19 307q16 108 59 182t130 113q43 20 95 20q56 0 105.5 -25.5t80.5 -73.5q36 -55 36 -108q0 -81 -90 -173q61 -22 103 -45.5t74 -61.5q54 -63 54 -156q0 -60 -27 -106
q-38 -66 -111.5 -100.5t-157.5 -34.5z" />
    <glyph glyph-name="agrave" unicode="&#xe0;" 
d="M590 -202h-83v91q-88 -91 -212 -91q-121 0 -208 87t-87 208t87 208t208 87q124 0 212 -91v91h83v-590zM295 -119q86 0 149 63t63 149q0 87 -63 149.5t-149 62.5q-87 0 -149.5 -62.5t-62.5 -149.5q0 -86 62.5 -149t149.5 -63zM299 417l-142 168l64 53l142 -167z" />
    <glyph glyph-name="aacute" unicode="&#xe1;" 
d="M590 -202h-83v91q-88 -91 -212 -91q-121 0 -208 87t-87 208t87 208t208 87q124 0 212 -91v91h83v-590zM295 -119q86 0 149 63t63 149q0 87 -63 149.5t-149 62.5q-87 0 -149.5 -62.5t-62.5 -149.5q0 -86 62.5 -149t149.5 -63zM297 414l-64 54l144 167l65 -53z" />
    <glyph glyph-name="acircumflex" unicode="&#xe2;" 
d="M590 -202h-83v91q-88 -91 -212 -91q-121 0 -208 87t-87 208t87 208t208 87q124 0 212 -91v91h83v-590zM295 -119q86 0 149 63t63 149q0 87 -63 149.5t-149 62.5q-87 0 -149.5 -62.5t-62.5 -149.5q0 -86 62.5 -149t149.5 -63zM519 415l-109 1l-71 83h-71l-71 -83l-109 -1
l141 167h148z" />
    <glyph glyph-name="atilde" unicode="&#xe3;" 
d="M590 -202h-83v91q-88 -91 -212 -91q-121 0 -208 87t-87 208t87 208t208 87q124 0 212 -91v91h83v-590zM295 -119q86 0 149 63t63 149q0 87 -63 149.5t-149 62.5q-87 0 -149.5 -62.5t-62.5 -149.5q0 -86 62.5 -149t149.5 -63zM173 414l-26 77q47 117 102 117q17 0 34 -13
q8 -6 33.5 -30t43 -35t33.5 -11q39 0 64 76l4 9l26 -75l-1 -3q-18 -53 -44 -80.5t-55 -27.5q-15 0 -32 9q-15 9 -42 37t-41 36q-11 7 -22 7q-39 0 -73 -87z" />
    <glyph glyph-name="adieresis" unicode="&#xe4;" 
d="M590 -202h-83v91q-88 -91 -212 -91q-121 0 -208 87t-87 208t87 208t208 87q124 0 212 -91v91h83v-590zM295 -119q86 0 149 63t63 149q0 87 -63 149.5t-149 62.5q-87 0 -149.5 -62.5t-62.5 -149.5q0 -86 62.5 -149t149.5 -63zM271 419h-83v153h83v-153zM403 419h-83v153
h83v-153z" />
    <glyph glyph-name="aring" unicode="&#xe5;" 
d="M590 -202h-83v91q-88 -91 -212 -91q-121 0 -208 87t-87 208t87 208t208 87q124 0 212 -91v91h83v-590zM295 -119q86 0 149 63t63 149q0 87 -63 149.5t-149 62.5q-87 0 -149.5 -62.5t-62.5 -149.5q0 -86 62.5 -149t149.5 -63zM299 419q-54 0 -93.5 39.5t-39.5 93.5
t39.5 93.5t93.5 39.5q55 0 94 -39.5t39 -93.5t-39 -93.5t-94 -39.5zM299 495q23 0 40 17t17 40t-17 40t-40 17t-40 -17t-17 -40t17 -40t40 -17z" />
    <glyph glyph-name="ae" unicode="&#xe6;" horiz-adv-x="1065" 
d="M796 -199q-121 0 -208 87v-87h-83v91q-86 -91 -211 -91q-120 0 -207 87t-87 207t87 207t207 87q125 0 211 -91v91h83v-87q87 87 208 87q130 0 219 -99q-178 -191 -340 -367q53 -39 121 -39q93 0 156 70l2 2l59 -56v-1q-88 -98 -217 -98zM294 -116q78 0 138 52.5t71 128.5
l-2 30l2 30q-11 76 -71 128.5t-138 52.5q-86 0 -148.5 -62.5t-62.5 -148.5t62.5 -148.5t148.5 -62.5zM617 -17l277 298q-47 25 -98 25q-76 0 -134.5 -49t-73.5 -122v-80q9 -38 29 -72z" />
    <glyph glyph-name="ccedilla" unicode="&#xe7;" horiz-adv-x="564" 
d="M136 -465l24 54h8q13 0 25.5 2t30.5 7.5t29.5 18.5t13.5 33v4q0 56 -95 56h-12l28 112q-83 33 -135.5 108t-52.5 166q0 120 87 207.5t208 87.5q130 0 219 -100l-57 -61q-64 77 -162 77q-87 0 -149.5 -62.5t-62.5 -148.5q0 -87 62.5 -149.5t149.5 -62.5q93 0 156 70l2 3
l60 -56v-2q-88 -98 -218 -98q-30 0 -57 6l-14 -55q4 0 10.5 -1t23 -7t29 -15t23 -28.5t10.5 -45.5q0 -120 -184 -120z" />
    <glyph glyph-name="egrave" unicode="&#xe8;" horiz-adv-x="565" 
d="M295 -202q-121 0 -208 87t-87 208t87 208t208 87q129 0 220 -99q-69 -74 -341 -369q55 -39 121 -39q94 0 157 70l2 3l60 -56v-2q-90 -98 -219 -98zM116 -19l277 299q-45 25 -98 25q-86 0 -149 -62.5t-63 -149.5q0 -58 33 -112zM299 417l-142 168l64 53l142 -167z" />
    <glyph glyph-name="eacute" unicode="&#xe9;" horiz-adv-x="565" 
d="M295 -202q-121 0 -208 87t-87 208t87 208t208 87q129 0 220 -99q-69 -74 -341 -369q55 -39 121 -39q94 0 157 70l2 3l60 -56v-2q-90 -98 -219 -98zM116 -19l277 299q-45 25 -98 25q-86 0 -149 -62.5t-63 -149.5q0 -58 33 -112zM297 414l-64 54l144 167l65 -53z" />
    <glyph glyph-name="ecircumflex" unicode="&#xea;" horiz-adv-x="565" 
d="M295 -202q-121 0 -208 87t-87 208t87 208t208 87q129 0 220 -99q-69 -74 -341 -369q55 -39 121 -39q94 0 157 70l2 3l60 -56v-2q-90 -98 -219 -98zM116 -19l277 299q-45 25 -98 25q-86 0 -149 -62.5t-63 -149.5q0 -58 33 -112zM488 415l-109 1l-71 83h-71l-71 -83
l-109 -1l141 167h148z" />
    <glyph glyph-name="edieresis" unicode="&#xeb;" horiz-adv-x="565" 
d="M295 -202q-121 0 -208 87t-87 208t87 208t208 87q129 0 220 -99q-69 -74 -341 -369q55 -39 121 -39q94 0 157 70l2 3l60 -56v-2q-90 -98 -219 -98zM116 -19l277 299q-45 25 -98 25q-86 0 -149 -62.5t-63 -149.5q0 -58 33 -112zM271 419h-83v153h83v-153zM403 419h-83v153
h83v-153z" />
    <glyph glyph-name="igrave" unicode="&#xec;" horiz-adv-x="256" 
d="M183 -202h-83v590h83v-590zM142 419l-142 168l64 53l142 -167z" />
    <glyph glyph-name="iacute" unicode="&#xed;" horiz-adv-x="259" 
d="M107 -202h-83v590h83v-590zM64 419l-64 54l144 167l65 -53z" />
    <glyph glyph-name="icircumflex" unicode="&#xee;" horiz-adv-x="481" 
d="M257 -202h-83v590h83v-590zM431 417l-109 1l-71 83h-71l-71 -83l-109 -1l141 167h148z" />
    <glyph glyph-name="idieresis" unicode="&#xef;" horiz-adv-x="265" 
d="M149 -202h-83v590h83v-590zM83 424h-83v153h83v-153zM215 424h-83v153h83v-153z" />
    <glyph glyph-name="eth" unicode="&#xf0;" 
d="M295 -202q-121 0 -208 87t-87 208t87 208t208 87t208 -87t87 -208t-87 -208t-208 -87zM295 -119q86 0 149 63t63 149q0 87 -63 149.5t-149 62.5q-87 0 -149.5 -62.5t-62.5 -149.5q0 -86 62.5 -149t149.5 -63zM392 387l-80 162l-157 -89l-27 48l159 92l-81 165l51 25
l79 -162l157 90l28 -49l-160 -92l82 -165z" />
    <glyph glyph-name="ntilde" unicode="&#xf1;" horiz-adv-x="582" 
d="M532 -202h-84v321q0 75 -48.5 130t-133.5 55q-86 0 -134.5 -56t-48.5 -132v-318h-83v590h83v-68q72 69 183 69q125 0 195.5 -81.5t70.5 -192.5l-1 -22h1v-295zM149 414l-26 77q47 117 102 117q17 0 34 -13q8 -6 33.5 -30t43 -35t33.5 -11q39 0 64 76l4 9l26 -75l-1 -3
q-18 -53 -44 -80.5t-55 -27.5q-15 0 -32 9q-15 9 -42 37t-41 36q-11 7 -22 7q-39 0 -73 -87z" />
    <glyph glyph-name="ograve" unicode="&#xf2;" 
d="M295 -202q-121 0 -208 87t-87 208t87 208t208 87t208 -87t87 -208t-87 -208t-208 -87zM295 -119q86 0 149 63t63 149q0 87 -63 149.5t-149 62.5q-87 0 -149.5 -62.5t-62.5 -149.5q0 -86 62.5 -149t149.5 -63zM303 416l-142 168l64 53l142 -167z" />
    <glyph glyph-name="oacute" unicode="&#xf3;" 
d="M295 -202q-121 0 -208 87t-87 208t87 208t208 87t208 -87t87 -208t-87 -208t-208 -87zM295 -119q86 0 149 63t63 149q0 87 -63 149.5t-149 62.5q-87 0 -149.5 -62.5t-62.5 -149.5q0 -86 62.5 -149t149.5 -63zM299 414l-64 54l144 167l65 -53z" />
    <glyph glyph-name="ocircumflex" unicode="&#xf4;" 
d="M295 -202q-121 0 -208 87t-87 208t87 208t208 87t208 -87t87 -208t-87 -208t-208 -87zM295 -119q86 0 149 63t63 149q0 87 -63 149.5t-149 62.5q-87 0 -149.5 -62.5t-62.5 -149.5q0 -86 62.5 -149t149.5 -63zM519 415l-109 1l-71 83h-71l-71 -83l-109 -1l141 167h148z
" />
    <glyph glyph-name="otilde" unicode="&#xf5;" 
d="M295 -202q-121 0 -208 87t-87 208t87 208t208 87t208 -87t87 -208t-87 -208t-208 -87zM295 -119q86 0 149 63t63 149q0 87 -63 149.5t-149 62.5q-87 0 -149.5 -62.5t-62.5 -149.5q0 -86 62.5 -149t149.5 -63zM173 414l-26 77q47 117 102 117q17 0 34 -13q8 -6 33.5 -30
t43 -35t33.5 -11q39 0 64 76l4 9l26 -75l-1 -3q-18 -53 -44 -80.5t-55 -27.5q-15 0 -32 9q-15 9 -42 37t-41 36q-11 7 -22 7q-39 0 -73 -87z" />
    <glyph glyph-name="odieresis" unicode="&#xf6;" 
d="M295 -202q-121 0 -208 87t-87 208t87 208t208 87t208 -87t87 -208t-87 -208t-208 -87zM295 -119q86 0 149 63t63 149q0 87 -63 149.5t-149 62.5q-87 0 -149.5 -62.5t-62.5 -149.5q0 -86 62.5 -149t149.5 -63zM271 419h-83v153h83v-153zM403 419h-83v153h83v-153z" />
    <glyph glyph-name="divide" unicode="&#xf7;" horiz-adv-x="568" 
d="M427 300h-518v83h518v-83zM201 49h-83v153h83v-153zM204 487h-83v153h83v-153z" />
    <glyph glyph-name="oslash" unicode="&#xf8;" horiz-adv-x="639" 
d="M178 -337l-78 28l55 151q-70 38 -112.5 107.5t-42.5 150.5q0 120 87 207t208 87q29 0 56 -6l47 129l78 -28l-47 -128q72 -38 116 -108.5t44 -152.5q0 -120 -87 -207t-207 -87q-35 0 -63 7zM183 -79l140 388q-20 2 -28 2q-87 0 -149.5 -62.5t-62.5 -148.5
q0 -55 27.5 -102.5t72.5 -76.5zM295 -111q86 0 148.5 62.5t62.5 148.5q0 57 -28.5 105.5t-76.5 76.5l-140 -390q17 -3 34 -3z" />
    <glyph glyph-name="ugrave" unicode="&#xf9;" horiz-adv-x="582" 
d="M532 -202h-83v68q-71 -68 -183 -68q-125 0 -195.5 81.5t-70.5 193.5l1 20h-1v296h84v-321q0 -75 48.5 -130.5t133.5 -55.5q86 0 134.5 56t48.5 132v319h83v-591zM281 416l-142 168l64 53l142 -167z" />
    <glyph glyph-name="uacute" unicode="&#xfa;" horiz-adv-x="582" 
d="M532 -202h-83v68q-71 -68 -183 -68q-125 0 -195.5 81.5t-70.5 193.5l1 20h-1v296h84v-321q0 -75 48.5 -130.5t133.5 -55.5q86 0 134.5 56t48.5 132v319h83v-591zM280 414l-64 54l144 167l65 -53z" />
    <glyph glyph-name="ucircumflex" unicode="&#xfb;" horiz-adv-x="582" 
d="M532 -202h-83v68q-71 -68 -183 -68q-125 0 -195.5 81.5t-70.5 193.5l1 20h-1v296h84v-321q0 -75 48.5 -130.5t133.5 -55.5q86 0 134.5 56t48.5 132v319h83v-591zM483 419l-109 1l-71 83h-71l-71 -83l-109 -1l141 167h148z" />
    <glyph glyph-name="udieresis" unicode="&#xfc;" horiz-adv-x="582" 
d="M532 -202h-83v68q-71 -68 -183 -68q-125 0 -195.5 81.5t-70.5 193.5l1 20h-1v296h84v-321q0 -75 48.5 -130.5t133.5 -55.5q86 0 134.5 56t48.5 132v319h83v-591zM238 422h-83v153h83v-153zM370 422h-83v153h83v-153z" />
    <glyph glyph-name="yacute" unicode="&#xfd;" horiz-adv-x="588" 
d="M193 -491q-25 0 -54 6q-97 20 -139 111l74 34q26 -53 80 -65q16 -3 30 -3q105 0 140 171l1 4q1 4 3 14t4 19l-332 545l71 43l286 -469l99 470l82 -17l-131 -619q-52 -244 -214 -244zM280 414l-64 54l144 167l65 -53z" />
    <glyph glyph-name="thorn" unicode="&#xfe;" horiz-adv-x="569" 
d="M83 -200h-83v878h83v-211h112q72 -1 143 -25.5t126 -82t55 -135.5q0 -126 -136 -199q-95 -41 -159 -41h-141v-184zM202 67q51 0 103 16t91.5 53t39.5 88v3q0 51 -39.5 88.5t-91 53t-103.5 15.5h-119v-317h119z" />
    <glyph glyph-name="ydieresis" unicode="&#xff;" horiz-adv-x="588" 
d="M193 -491q-25 0 -54 6q-97 20 -139 111l74 34q26 -53 80 -65q16 -3 30 -3q105 0 140 171l1 4q1 4 3 14t4 19l-332 545l71 43l286 -469l99 470l82 -17l-131 -619q-52 -244 -214 -244zM238 422h-83v153h83v-153zM370 422h-83v153h83v-153z" />
    </font>
</defs>
</svg>
