<?xml version="1.0" standalone="no"?>
<!DOCTYPE svg PUBLIC "-//W3C//DTD SVG 1.1//EN" "http://www.w3.org/Graphics/SVG/1.1/DTD/svg11.dtd" >
<svg xmlns="http://www.w3.org/2000/svg" xmlns:xlink="http://www.w3.org/1999/xlink" version="1.1">
<metadata>
Created by FontForge 20200314 at Mon Jul  6 09:13:07 2020
 By www-data
Typeface (c) (Ketapel Creative). 2020. All Rights Reserved
</metadata>
<defs>
<font id="Machow_demo" horiz-adv-x="806" >
  <font-face 
    font-family="Machow_demo"
    font-weight="400"
    font-stretch="normal"
    units-per-em="2048"
    panose-1="2 0 6 0 0 0 0 0 0 0"
    ascent="1638"
    descent="-410"
    x-height="991"
    cap-height="1575"
    bbox="-683 -786 2258 1892"
    underline-thickness="150"
    underline-position="-292"
    unicode-range="U+001D-FB02"
  />
<missing-glyph horiz-adv-x="1024" 
d="M100 0v1434h824v-1434h-824zM150 50h724v1334h-724v-1334zM325 1148q31 28 58 43q53 30 112 30q92 0 148 -47.5t56 -127.5q0 -49 -23 -98.5t-87 -129.5q-63 -80 -99 -132t-36 -99q0 -38 24 -133h-32q-35 97 -35 148q0 76 81.5 218t81.5 217q0 57 -33 90t-91 33
q-38 0 -69 -17q-26 -15 -56 -40v45zM389 334l57 58q11 10 20 10q10 0 22 -11l56 -60q9 -11 9 -20q0 -11 -10 -22l-56 -62q-14 -14 -21 -14q-11 0 -20 10l-61 71q-7 9 -7 18q0 10 11 22z" />
    <glyph glyph-name=".notdef" horiz-adv-x="1024" 
d="M100 0v1434h824v-1434h-824zM150 50h724v1334h-724v-1334zM325 1148q31 28 58 43q53 30 112 30q92 0 148 -47.5t56 -127.5q0 -49 -23 -98.5t-87 -129.5q-63 -80 -99 -132t-36 -99q0 -38 24 -133h-32q-35 97 -35 148q0 76 81.5 218t81.5 217q0 57 -33 90t-91 33
q-38 0 -69 -17q-26 -15 -56 -40v45zM389 334l57 58q11 10 20 10q10 0 22 -11l56 -60q9 -11 9 -20q0 -11 -10 -22l-56 -62q-14 -14 -21 -14q-11 0 -20 10l-61 71q-7 9 -7 18q0 10 11 22z" />
    <glyph glyph-name=".notdef" horiz-adv-x="1024" 
d="M100 0v1434h824v-1434h-824zM150 50h724v1334h-724v-1334zM325 1148q31 28 58 43q53 30 112 30q92 0 148 -47.5t56 -127.5q0 -49 -23 -98.5t-87 -129.5q-63 -80 -99 -132t-36 -99q0 -38 24 -133h-32q-35 97 -35 148q0 76 81.5 218t81.5 217q0 57 -33 90t-91 33
q-38 0 -69 -17q-26 -15 -56 -40v45zM389 334l57 58q11 10 20 10q10 0 22 -11l56 -60q9 -11 9 -20q0 -11 -10 -22l-56 -62q-14 -14 -21 -14q-11 0 -20 10l-61 71q-7 9 -7 18q0 10 11 22z" />
    <glyph glyph-name="space" unicode=" " horiz-adv-x="508" 
 />
    <glyph glyph-name="space" unicode="&#xa0;" horiz-adv-x="508" 
 />
    <glyph glyph-name="exclam" unicode="!" horiz-adv-x="538" 
d="M197 137h-6q-45 3 -45 45q0 22 58 202q54 169 110 366q99 346 99 521q0 65 -14 110q-2 6 -2 11q1 18 27.5 37t64.5 33q31 11 48 11q63 0 63 -116q0 -129 -69 -367q-61 -209 -134 -425q-80 -233 -122 -394q-5 -12 -28.5 -22.5t-49.5 -11.5zM110 -187q-35 0 -67 16
q-41 24 -41 76q0 63 48 116q41 45 109 45h8q91 -17 91 -97q0 -46 -30 -89q-32 -47 -84 -62q-16 -5 -34 -5z" />
    <glyph glyph-name="quotedbl" unicode="&#x22;" horiz-adv-x="461" 
d="M53 1259q-16 0 -31 12q-2 2 -2 12q0 18 10 81l25 152q4 32 25 42q20 12 62 12q10 0 26 -2t23.5 -15t7.5 -34t-9.5 -62.5t-37 -97t-62.5 -84.5q-19 -16 -37 -16zM267 1286q-16 0 -32 12q-2 2 -2 13q0 19 22 153l13 79q5 31 24.5 42t61.5 11q10 0 26.5 -1.5t24 -15.5
t7.5 -35t-9 -61.5t-37 -96.5t-63 -85q-18 -15 -36 -15z" />
    <glyph glyph-name="numbersign" unicode="#" horiz-adv-x="1203" 
d="M588 147l-10 -1q-45 0 -62 39q-16 35 -16 105q0 108 49 271l-75 24q-57 19 -113 36l-4 -29q-8 -49 -8 -103q0 -16 2 -61t36 -103q-16 -15 -41.5 -28.5t-41.5 -18.5q-22 -8 -48 -8q-47 0 -63 39q-16 34 -16 101q0 102 42 250q-118 30 -235 30l-45 -1q0 7 1 13q6 39 26 68
q39 56 108 56q49 0 186 -39l22 64l56 157q-125 34 -248 34q-22 0 -43 -1q0 41 27 80q40 56 108 56q16 0 32 -3q84 -15 168 -40q62 178 102 366q9 5 26 5q44 0 77 -25q19 -14 19 -38q0 -8 -2 -16q-31 -104 -69 -207q0 -2 -1 -3l-40 -116l66 -20q76 -22 154 -42q56 165 93 338
q9 5 26 5q42 0 77 -25q19 -14 19 -38q0 -26 -63 -201l-36 -102q60 -10 107 -10q37 0 90 8q65 10 125 70l5 -13q11 -34 11 -68q0 -158 -186 -158q-76 0 -166 24l-33 8l-11 -34q-28 -87 -52 -178q62 -10 109 -10q37 0 90.5 8t106.5 52q10 9 18 18l5 -13q11 -34 11 -69
q0 -157 -186 -157q-74 0 -166 23l-20 5q-16 -82 -16 -156q0 -16 2 -61t36 -103q-16 -15 -42 -28t-42.5 -18.5t-37.5 -7.5zM592 690l78 218l-89 28q-73 24 -128 40q-36 -111 -66 -227q118 -36 205 -59z" />
    <glyph glyph-name="dollar" unicode="$" horiz-adv-x="1249" 
d="M289 -247l-2 -1q-17 0 -38 27q-15 19 -15 62q0 57 17 154q-48 -12 -81 -12q-103 0 -148 58q-22 29 -22 62q0 36 26 78q40 55 94 73q39 14 68 14q10 0 19 -1q25 -6 25 -17q0 -5 -4 -11q-42 -52 -42 -79q0 -29 42 -29q21 0 51 9q46 212 124 476q-137 67 -188 96
q-158 93 -160 236q3 108 96 204t239.5 172t309.5 123q59 130 113 209q59 88 101 88q22 0 56 -20.5t57 -52.5q10 -16 10 -32t-10 -32q-42 -50 -81 -108q68 9 128 9q72 0 155 -18q118 -26 118 -153q0 -70 -55 -151.5t-165 -145.5q-118 -68 -230 -68q-96 0 -146 74q-2 4 -2 8
q0 20 52 30q119 28 233 90.5t175 124.5q33 36 33 60q0 42 -81 42q-113 0 -310 -57q-167 -303 -295 -674q189 -95 189 -219q0 -26 -8 -56q-33 -105 -137.5 -201.5t-232.5 -156.5q-36 -140 -63 -265q-4 -18 -15 -19zM423 169q93 62 153 161q27 50 27 89q0 16 -10 48t-61 69
q-60 -186 -109 -367zM448 723q91 301 191 564q-161 -68 -276 -156q-131 -99 -131 -197q0 -86 133 -168q37 -21 83 -43z" />
    <glyph glyph-name="percent" unicode="%" horiz-adv-x="1157" 
d="M306 975q43 0 86 42q51 51 68.5 107t17.5 89q0 39 -14 74q-20 36 -52 36q-17 0 -37 -10q-57 -30 -106 -100.5t-51 -107t-2 -40.5q0 -63 72 -88q8 -2 18 -2zM725 57q42 0 84 42q51 51 69.5 107t18.5 89q0 39 -15 73q-20 37 -52 37q-16 0 -36 -10q-58 -29 -106.5 -100
t-51 -107.5t-2.5 -40.5q0 -63 72 -88q9 -2 19 -2zM90 -269q-18 0 -29 38q-5 17 -5 24q5 73 91 267.5t218.5 445.5t277.5 486.5t265.5 387.5t183.5 152q18 0 47 -36q39 -48 39 -93q0 -23 -18 -41q-356 -298 -759 -1032q-172 -312 -295 -582q-8 -17 -16 -17zM688 -78
q-84 0 -131 66q-51 73 -51 160q0 30 6 62q23 121 105.5 212.5t186.5 104.5h12q107 0 155 -78q39 -64 39 -148q0 -145 -94 -263q-77 -95 -212 -115zM270 840q-84 0 -132 65q-51 75 -51 160q0 30 7 62q23 121 105 213t186 105h12q108 0 156 -78q38 -64 38 -148
q0 -146 -94 -264q-84 -105 -227 -115z" />
    <glyph glyph-name="ampersand" unicode="&#x26;" horiz-adv-x="1249" 
d="M459 818q195 164 254 280t59 188q0 23 -5 43q-21 83 -64 97.5t-63 14.5q-47 0 -97 -37q-113 -87 -113 -328q0 -110 29 -258zM352 -54q74 0 153 26q86 28 141 87q-171 267 -225 446q-199 -162 -229 -260t-30 -141q0 -75 50 -118q42 -36 86.5 -38t53.5 -2zM1032 -248
q-58 0 -119 29q-90 41 -152 124q-150 -112 -241 -116t-105 -4q-150 0 -265 77q-109 78 -129.5 164.5t-20.5 129.5q0 101 53 216q53 100 133 188.5t157 158.5l53 51l-56 -23q-62 200 -62 344q0 29 2 54q13 159 84.5 248.5t151.5 115t143 25.5q136 0 208 -77q65 -71 65 -174
q0 -113 -78 -276q-95 -195 -326 -405q97 -247 241 -438q67 75 119 169t55 141q2 31 23 31q26 0 61 -27.5t56 -63.5t21 -70q0 -37 -53 -111q-22 -30 -143 -185q140 -122 284 -128q33 0 33 -15q0 -8 -6 -20q-46 -104 -102.5 -118.5t-84.5 -14.5z" />
    <glyph glyph-name="quotesingle" unicode="'" horiz-adv-x="403" 
d="M168 1188q-16 0 -32 12q-2 2 -2 12q0 7 2 25q7 60 20 129q9 52 12 79q5 32 25.5 42.5t61.5 10.5l26 -1q31 -3 31 -50q0 -20 -9 -61.5t-37 -97.5t-62 -85q-18 -15 -36 -15z" />
    <glyph glyph-name="parenleft" unicode="(" horiz-adv-x="743" 
d="M255 -187q-23 0 -58.5 13t-64.5 47q-66 83 -94 201q-43 176 -43 373q0 463 205 847q32 60 86 138q133 191 247 191h34q33 0 86 -96l1 -2q6 -11 6 -15q0 -10 -24 -15q-115 -27 -208.5 -135t-160.5 -248q-88 -179 -131 -394q-26 -133 -26 -262q0 -81 10 -160
q7 -57 33.5 -144t70.5 -154t107 -67h3q18 0 18 -20q0 -9 -4 -22q-18 -76 -93 -76z" />
    <glyph glyph-name="parenright" unicode=")" horiz-adv-x="701" 
d="M115 -165q-65 0 -118 96l-1 2q-5 8 -6 15q0 11 24 16q115 26 208.5 134.5t160.5 247.5q88 179 131 395q26 132 26 261q0 81 -10 161q-8 57 -34 143.5t-70.5 153.5t-106.5 67h-2q-19 0 -19 21q0 9 3 21q19 76 94 76q22 0 58 -13t65 -47q66 -83 95 -200q42 -176 42 -372
q0 -463 -206 -849q-31 -59 -85 -136q-134 -193 -249 -193z" />
    <glyph glyph-name="asterisk" unicode="*" horiz-adv-x="891" 
d="M427 766h-5q-53 0 -104 34q-25 21 -25 72q0 65 34 181q-139 -64 -228 -149q-5 -5 -11 -5q-8 0 -20.5 13t-24.5 44t-13 62q2 34 42 65q56 43 193 102l52 22q-132 144 -240 202q-8 4 -8 13q0 23 41 56t72 33q26 0 62 -25.5t78 -69t73 -81.5l7 -7q25 101 25 190q0 32 -3 63
v1q0 16 25 16q54 0 104 -34q26 -20 26 -72q0 -66 -36 -186q143 66 235 152q5 5 11 5q9 0 21 -13t24 -44t13 -63q-5 -73 -235 -165l-58 -25q149 -165 259 -222q8 -5 8 -13q0 -23 -41.5 -56.5t-69.5 -33.5q-52 0 -142 94q-48 50 -98 111q-25 -101 -25 -190q0 -31 3 -60v-1
q0 -14 -21 -16z" />
    <glyph glyph-name="plus" unicode="+" horiz-adv-x="1290" 
d="M592 112q-102 0 -104 97q39 288 56 422q-115 9 -227 9q-11 0 -77.5 -1t-166.5 -26l-7 -1q-26 0 -26 54q0 56 30 107q34 50 190 50q76 0 189 -12q31 -3 54 -4l61 -6q20 176 34 415q20 79 111 79q53 0 86 -24q6 -5 6 -17l-1 -10l-7 -50q-24 -141 -57 -408q119 -10 235 -10
q11 0 78.5 0.5t169.5 26.5l7 1q27 0 27 -52q0 -59 -30 -109q-24 -34 -90 -44q-46 -6 -98 -6q-70 0 -192 11l-125 12q-24 -264 -24 -440v-18q0 -14 -12 -22q-34 -24 -90 -24z" />
    <glyph glyph-name="comma" unicode="," horiz-adv-x="333" 
d="M97 8q-22 0 -41.5 18t-19.5 34q0 18 13 49q32 81 37 161l7 50q9 45 50 64q25 12 51 12q16 0 46 -8t44 -53q3 -11 3 -24q0 -21 -8.5 -56.5t-20.5 -66.5q-14 -40 -48 -90.5t-76 -77.5q-19 -12 -37 -12z" />
    <glyph glyph-name="hyphen" unicode="-" horiz-adv-x="1224" 
d="M943 582q-69 0 -199 14l-72 6q-169 18 -310 18q-127 0 -230 -33l-5 -1q-24 0 -24 55q0 140 96 159q51 10 102 10q68 0 198 -14l72 -6q169 -18 310 -18q127 0 231 33l5 1q23 0 23 -58q0 -137 -96 -156q-50 -10 -101 -10z" />
    <glyph glyph-name="hyphen" unicode="&#xad;" horiz-adv-x="1224" 
d="M943 582q-69 0 -199 14l-72 6q-169 18 -310 18q-127 0 -230 -33l-5 -1q-24 0 -24 55q0 140 96 159q51 10 102 10q68 0 198 -14l72 -6q169 -18 310 -18q127 0 231 33l5 1q23 0 23 -58q0 -137 -96 -156q-50 -10 -101 -10z" />
    <glyph glyph-name="period" unicode="." horiz-adv-x="492" 
d="M227 165q-26 0 -53 11q-42 22 -42 71q0 1 0.5 27.5t38.5 70.5t108 45q89 -12 89 -87q0 -36 -24 -73q-29 -42 -74 -58q-21 -7 -43 -7z" />
    <glyph glyph-name="slash" unicode="/" horiz-adv-x="804" 
d="M130 -208q-74 0 -74 96q0 125 228 640q91 213 175 423q153 382 153 528q0 47 -14 76q-9 14 -9 28q0 10 15 15q42 10 73 10q96 0 96 -100q0 -97 -250 -709q-122 -293 -218 -559t-100 -406l1 -4q0 -11 -2 -17t-14 -11q-27 -10 -60 -10z" />
    <glyph glyph-name="zero" unicode="0" horiz-adv-x="1096" 
d="M328 858q40 0 66 29.5t26 78.5q0 96 -96 108h-58v-216h62zM801 371q39 0 66.5 31t27.5 76q0 46 -27.5 76t-66.5 30q-40 0 -68.5 -30t-28.5 -76q0 -45 28.5 -76t68.5 -31zM941 780v373h-283v-78h191v-70l-168 -1v-77h168v-70h-186v-77h278zM562 292v373h-99l-95 -218
l-94 218h-101v-373h83v237l82 -199h61l81 199l2 -237h80zM322 780h-149v373h153q84 0 136 -51.5t52 -134.5q0 -84 -52.5 -135.5t-139.5 -51.5zM800 288q-83 0 -137.5 54.5t-54.5 136.5t54.5 135t137.5 53q82 0 136 -54t54 -134q0 -82 -54 -136.5t-136 -54.5zM1078 146v1142
h-1037v-1142h1037zM1107 115h-1095v1203h1095v-1203z" />
    <glyph glyph-name="one" unicode="1" horiz-adv-x="661" 
d="M122 -7q-44 0 -79 25q-43 30 -43 103q0 92 87 322q110 293 309 717q34 73 57 125q9 14 35 31q18 11 36 26l8 7q-24 -6 -58 -18q-105 -39 -162 -39q-82 0 -105 55q-17 41 -17 90q0 38 7 88q57 -11 111 -11q42 0 82 7q90 14 162 35q60 17 103 23q14 0 40.5 -26.5t39 -53.5
t12.5 -43t-8 -30q-62 -90 -156.5 -270.5t-182 -393t-119 -353t-31.5 -213.5t21 -126q-44 -58 -87.5 -67.5t-61.5 -9.5z" />
    <glyph glyph-name="two" unicode="2" horiz-adv-x="1101" 
d="M603 5q-99 0 -241 25q-159 26 -267 26q-92 0 -176 -28l-6 -1q-21 0 -21 52q0 27 8 60q11 46 37 76q98 97 269 219q146 105 293 229.5t245 267t99 303.5q-5 119 -70 179.5t-153 60.5q-92 0 -174.5 -67.5t-120.5 -202.5q-12 -46 -12 -83q0 -41 5 -50l1 -14
q0 -13 -14.5 -15.5t-40.5 -2.5q-101 0 -128 84q-4 16 -4 35q0 40 18 94q61 163 190.5 243t206.5 81t84 1q141 0 253 -65q118 -68 154 -200q10 -37 10 -78q0 -168 -151 -375q-74 -98 -172 -188t-201 -174q-149 -120 -255 -232l-125 -32q11 2 37 2q63 0 172 -8q92 -8 176 -8
q110 0 180.5 27t110.5 97q5 8 10 8q8 0 16 -17q17 -36 17 -98q0 -129 -96 -192q-70 -39 -164 -39z" />
    <glyph glyph-name="three" unicode="3" horiz-adv-x="1173" 
d="M368 -4q-39 0 -79 3q-106 7 -228 59q-90 43 -128 114q-25 49 -25 94q0 21 11.5 62.5t89.5 60.5l19 -18q75 -74 163 -127t237 -60h4q156 0 261 75q156 112 156 279q0 74 -56.5 140t-184.5 79q-22 2 -44 2q-107 0 -217 -49h-2q-3 0 -15 12q-25 25 -25 71q0 56 25 102
q4 4 52 15q408 83 507 287q23 56 23 104q0 124 -120 172q-41 17 -87 17q-40 0 -85 -13q-154 -50 -229 -156q-62 -90 -62 -193q0 -19 2 -39l2 -20q0 -4 -1.5 -10t-16.5 -8t-38 -2q-7 0 -28.5 1t-53 19t-46.5 62q-4 16 -4 34q0 52 39 135t146.5 169t277.5 117q75 11 138 11
q130 0 232 -57q122 -66 122 -218q0 -107 -84 -233t-284 -232q182 -47 254 -152q55 -81 55 -176q0 -28 -13.5 -106t-112.5 -192.5t-259 -181.5q-130 -53 -288 -53z" />
    <glyph glyph-name="four" unicode="4" horiz-adv-x="1306" 
d="M794 -7h-8q-44 0 -82 39q-23 29 -23 87q0 127 118 470l-71 8q-205 24 -336 24q-83 0 -185 -12.5t-212 -64.5q-4 -2 -8 -2q-13 0 -30.5 19.5t-33 55t-15.5 67.5q0 29 20 41q64 33 172 125t219.5 218.5t183.5 263.5q62 119 62 228l-1 32l-1 9q0 16 16 16l7 -1
q120 -13 152 -77q14 -31 14 -69q0 -42 -25.5 -116t-103.5 -183t-176 -209.5t-194 -173.5q24 1 59 1q48 0 117 -2q82 -3 171 -3q127 0 267 6h2q60 4 112 10l-106 18q165 476 165 682q0 49 -8 91q40 23 84 23q6 0 35.5 -2.5t64.5 -36.5t35 -99q-11 -186 -171 -661
q135 25 183 85q7 7 12 7q9 0 16 -18q10 -23 10 -61q0 -11 -2 -45t-32 -89q-62 -117 -262 -117h-6l-21 -67q-51 -186 -51 -294q0 -73 26 -116q-23 -41 -66.5 -72.5t-92.5 -34.5z" />
    <glyph glyph-name="five" unicode="5" horiz-adv-x="1034" 
d="M235 -23q-143 6 -241 78q-91 67 -91 154q1 46 40 94q34 41 79 70q9 5 16 5q13 0 25 -38q9 -40 46 -85.5t141 -58.5q14 -1 28 -1q81 0 171 37.5t164 119.5q79 92 107 196q13 45 13 86q0 54 -30.5 119t-151.5 89q-31 6 -69 6q-109 0 -273 -52q-33 -10 -43 -10q-19 0 -46 29
l-7 8q-35 34 -37 62q4 66 60.5 198t110.5 230q-42 -12 -80 -36q-13 45 -13 79q0 88 92 116q80 24 196 24q84 0 173.5 -5.5t172.5 -5.5q14 0 68 1t125 25.5t102 88.5q4 9 10 9q8 0 23 -21t26 -74q5 -25 5 -50q0 -30 -10 -74.5t-64 -84.5q-60 -39 -146 -39q-94 0 -245 32
q-189 35 -291 35h-12l91 -25q-58 -82 -164 -279l42 1q229 0 358 -98q159 -121 159 -338q0 -119 -61 -259.5t-209.5 -248.5t-359.5 -109z" />
    <glyph glyph-name="six" unicode="6" horiz-adv-x="1101" 
d="M373 -34q-217 4 -295 111.5t-78 253.5q0 196 105 449q85 208 209 396t255 309.5t189 128.5t66 7q93 0 141 -131q2 -6 2 -11q0 -22 -51 -29q-4 0 -7 -1q-210 -42 -391 -339q-74 -122 -122 -220q103 88 194 108t140 20q69 0 129 -23q104 -41 133 -157q12 -58 12 -119
q0 -86 -24 -175q-40 -152 -130.5 -282.5t-214 -212t-262.5 -83.5zM405 57q73 0 141 57q83 70 145 184.5t83 209t21 152.5q0 49 -11 91q-28 91 -81.5 110t-89.5 19q-45 0 -93 -18q-178 -62 -253 -295q-36 -109 -37.5 -168t-1.5 -68q0 -99 32 -173q36 -79 114 -98q16 -3 31 -3
z" />
    <glyph glyph-name="seven" unicode="7" horiz-adv-x="1090" 
d="M183 -28q-12 0 -42.5 3.5t-67.5 49.5q-25 34 -25 82q0 26 13.5 83.5t74 168.5t143.5 238q-21 0 -40 -1q-21 30 -21 74q0 42 25.5 74t84.5 32l66 -3q234 351 320 567q2 3 109 14q-10 0 -37 4q-171 21 -303 21q-37 0 -114.5 -3t-170.5 -34.5t-128 -106.5q-5 -8 -11 -8
q-10 0 -27.5 24.5t-31.5 81.5q-6 28 -6 57q0 30 11 75.5t73 84.5q82 45 186 45t232 -17q149 -20 254 -20q109 0 213 33l8 1q36 0 36 -86q0 -83 -33 -162q-163 -213 -370 -558q64 12 124 35q5 2 15 2q15 0 19 -14q15 -48 15 -84q0 -39 -25 -75q-41 -62 -225 -62h-31
q-164 -315 -164 -489q0 -30 5 -56q-29 -34 -77 -55q-38 -16 -77 -16z" />
    <glyph glyph-name="eight" unicode="8" horiz-adv-x="1091" 
d="M174 -38q-82 0 -185 30t-168 153q-26 57 -26 111q0 56 42 135t150 169.5t214 160.5q62 43 107 77q-251 177 -251 352q0 102 59 187t165 145.5t229 89.5q114 29 222 29q116 0 200 -60q77 -56 108 -146q14 -42 14 -89q0 -50 -17 -105q-40 -107 -171.5 -225t-296.5 -218
q198 -124 242 -249q17 -50 17 -97q0 -73 -53 -162t-185.5 -167.5t-286.5 -107.5q-67 -13 -129 -13zM149 160q75 0 179 28.5t195 97.5q98 77 98 180q0 94 -122 207l39 53q-544 -326 -544 -477q0 -7 6.5 -41.5t99.5 -44.5q24 -3 49 -3zM431 870q45 19 138 71.5t188 122.5
t147 145q29 42 29 81q0 28 -16 55q-60 82 -204 82q-93 0 -202 -38t-189 -114q-73 -70 -73 -158q0 -9 4.5 -63.5t149.5 -161.5q10 -10 28 -22z" />
    <glyph glyph-name="nine" unicode="9" horiz-adv-x="1040" 
d="M163 -39q-77 0 -139 63q-24 25 -24 44q0 35 73 60q179 65 334.5 209.5t251.5 385.5q-85 -78 -201 -110q-84 -23 -156 -23q-27 0 -53 3q-141 25 -197 133q-43 80 -43 185q0 33 11 124t92 235.5t215 245t311 114.5l29 1q175 0 253.5 -96t78.5 -254q0 -11 -3 -104
t-74.5 -296t-184.5 -394.5t-243.5 -329.5t-253.5 -181q-40 -15 -77 -15zM396 732q112 0 216 128q65 83 106 190q52 136 52 253q0 192 -137 209l-16 1q-88 0 -169.5 -65.5t-141 -175t-80.5 -223.5q-9 -48 -9 -91q0 -61 24 -129.5t118 -92.5q18 -4 37 -4z" />
    <glyph glyph-name="colon" unicode=":" horiz-adv-x="471" 
d="M161 114q-33 0 -67 14q-54 28 -54 91q0 1 0.5 33.5t48.5 87.5t135 56q112 -15 112 -109q0 -45 -29 -91q-36 -53 -94 -73q-26 -9 -52 -9zM239 731q-33 0 -67 14q-53 27 -53 90v34q0 33 48.5 88t134.5 56q113 -15 113 -110q0 -44 -30 -90q-36 -53 -94 -73q-26 -9 -52 -9z
" />
    <glyph glyph-name="semicolon" unicode=";" horiz-adv-x="466" 
d="M74 -254q-26 0 -50 19.5t-24 38.5t16 53q39 89 45 176q3 27 8 55q11 49 61 70q31 13 63 13q20 0 56 -8.5t54 -57.5q2 -12 2 -25q0 -24 -10 -63.5t-25 -73.5q-17 -44 -58.5 -99t-92.5 -85q-23 -13 -45 -13zM213 491q-29 0 -60 13q-48 25 -48 82q0 1 0.5 31t44 80t122.5 51
q102 -14 102 -99q0 -41 -27 -83q-33 -48 -85 -66q-24 -9 -49 -9z" />
    <glyph glyph-name="less" unicode="&#x3c;" horiz-adv-x="865" 
d="M684 -7q-9 9 -13.5 15t-7.5 9q-296 252 -625 464q-8 8 -8 19q0 9 6 17q84 119 264 286q180 172 315 235q24 9 47 9q55 0 121 -56q17 -14 17 -26q0 -8 -14 -16q-187 -105 -418 -336q-44 -43 -88 -89l30 -21q455 -305 487 -327.5t32 -61.5v-2q-8 -41 -52.5 -75.5
t-86.5 -42.5z" />
    <glyph glyph-name="equal" unicode="=" horiz-adv-x="1196" 
d="M977 688q-71 0 -182 15l-122 15q-212 30 -354 30q-111 0 -202 -25l-5 -1q-25 0 -25 58q0 56 26 110q29 49 153 49q71 0 182 -15q27 -4 47 -6l74 -9q218 -31 350 -31q114 0 208 26l5 1q25 0 25 -55q0 -60 -27 -113q-30 -49 -153 -49zM914 232q-70 0 -176 15q-27 4 -47 6
l-74 9q-221 31 -355 31q-111 0 -203 -25l-6 -1q-23 0 -23 55q0 61 26 113q30 49 159 49q69 0 176 -15q27 -4 47 -6l75 -9q219 -31 354 -31q111 0 202 25l6 1q24 0 24 -57t-26 -111q-21 -35 -79 -43q-37 -6 -80 -6z" />
    <glyph glyph-name="greater" unicode="&#x3e;" horiz-adv-x="901" 
d="M176 -7l-6 1q-43 8 -87.5 42.5t-52.5 75.5v2q0 39 33 62q100 68 201 135l316 213l-89 89q-233 234 -418 336q-14 8 -14 17q0 11 17 25q35 30 79 48q21 8 43 8q23 0 46 -9q129 -60 316 -235q174 -162 264 -286q5 -9 5 -18q0 -7 -7 -18q-329 -212 -625 -464q-4 -3 -9 -10
t-12 -14z" />
    <glyph glyph-name="question" unicode="?" horiz-adv-x="983" 
d="M183 -279q-29 0 -60 13q-46 23 -46 80q0 60 42.5 110t118.5 51q100 -13 100 -100q0 -40 -27 -81q-31 -48 -83 -66q-22 -7 -45 -7zM254 141q-18 0 -51.5 9.5t-33.5 79.5q0 163 365 580q171 200 208 346q15 59 15 107q0 71 -32 117q-51 75 -147 75q-86 0 -166 -69
q-73 -65 -120.5 -157.5t-57.5 -185.5q0 -2 -1 -3q0 -14 -4 -23.5t-36 -9.5q-58 0 -100 33q-33 24 -33 73q0 50 44 130q98 167 240 249.5t282 82.5q135 0 227 -70t93 -205q-5 -145 -84 -262t-185 -228q-117 -121 -211.5 -265t-105.5 -340q-4 -31 -50 -51q-28 -13 -56 -13z
" />
    <glyph glyph-name="at" unicode="@" horiz-adv-x="1434" 
d="M594 -28q-117 0 -224.5 42.5t-190.5 119.5t-131 183.5t-48 235.5q0 374 235 615q151 155 344 234q176 74 346 74q15 0 114 -4t221 -110q121 -117 132 -253q1 -20 1 -40q0 -117 -59 -242t-161 -235t-206 -172q-90 -55 -154 -55q-86 0 -86 107v5q-131 -127 -222 -127
q-53 0 -79 43q-21 34 -21 86q0 32 14 102.5t98 196.5q59 87 140 159q102 92 201 92q60 0 75 -42l12 19q22 23 79 23l24 -1q39 -3 39 -28q0 -17 -19 -45q-15 -21 -55.5 -89t-82.5 -150q-72 -141 -72 -198q0 -32 22 -32q7 0 41.5 11.5t125.5 111t161 234.5q63 131 63 231
q0 18 -1 35q-19 124 -120 189q-104 69 -260 69q-137 0 -283.5 -64t-265.5 -203t-169 -357q-18 -89 -18 -170q0 -290 212 -411q92 -53 216 -53q239 0 457 177q163 134 268 329q13 22 24 22q21 0 34 -67q4 -30 4 -64q0 -16 -2 -50.5t-20 -70.5q-73 -129 -196.5 -221.5
t-270.5 -142t-286 -49.5zM572 490q42 0 97.5 68t102 153.5t57.5 126.5q7 20 7 40q0 22 -21 22q-31 0 -81 -53.5t-100 -135t-72 -147.5q-10 -29 -10 -47q0 -27 20 -27z" />
    <glyph glyph-name="A" unicode="A" horiz-adv-x="1296" 
d="M1033 -220q-37 1 -74 16q-69 29 -117 138q-50 127 -55 247q-4 86 -4 146q0 135 17 273q23 16 66 41q-142 -19 -284 -48l-131 -25q-76 -123 -146 -228q-57 -84 -106 -128.5t-86.5 -57.5t-65.5 -13q-34 1 -62 20q-39 26 -39 44q112 131 253 340q-72 4 -121 32
q-76 50 -76.5 98.5t-0.5 51.5q2 89 79 179q4 6 8 6q7 0 9 -6q47 -118 261 -128q133 199 269.5 383t265.5 306.5t238 139.5q35 -2 50 -5q50 -12 72 -44q-67 -128 -127 -324t-93 -416q233 0 233 -120q0 -37 -20 -88q-2 -5 -11 -5q-4 0 -10 3q-91 41 -211 41q-7 -72 -7 -154
q0 -479 252 -584q-2 -25 -48 -63.5t-96 -53t-82 -14.5zM582 784l248 23q62 330 133 505q-185 -211 -320 -428q-22 -34 -61 -100z" />
    <glyph glyph-name="B" unicode="B" horiz-adv-x="1333" 
d="M366 -197q-17 0 -113.5 4t-198.5 82q-54 46 -54 105q0 52 38.5 97.5t109.5 61.5q63 -54 110 -80q55 -32 159 -50q44 -6 86 -6q120 0 243.5 56t200.5 159q59 79 59 152q0 24 -15 83t-179 99q-46 9 -98 9q-117 0 -219 -37l72 -5l-52 -102q-39 -72 -66.5 -134t-33.5 -119
q-6 -38 -88 -38q-97 0 -97 88q8 75 214 477q64 125 100 200q55 123 91 216l36 92q30 12 56 12q20 0 38 -7q45 -24 45 -87q0 -9 -4.5 -54t-51.5 -157t-111 -239q188 41 341 195q146 149 200 296q22 63 22 118q0 30 -11.5 82.5t-83.5 86.5q-34 16 -81 16q-53 0 -123 -20
q-118 -38 -206.5 -125t-135.5 -194q-42 -97 -42 -187v-21q0 -19 -18 -23q-14 -2 -33 -2q-14 0 -40.5 1.5t-60.5 22t-47 70.5q-3 13 -3 28q0 65 55 174t185.5 218.5t325.5 146.5q69 11 130 11q89 0 160 -23q149 -48 199 -177q19 -50 19 -108q0 -94 -49 -210
q-52 -115 -149.5 -213t-223.5 -166q140 -39 200 -138q40 -67 40 -146q0 -38 -19 -122t-143.5 -205t-350.5 -204q-174 -60 -334 -60z" />
    <glyph glyph-name="C" unicode="C" horiz-adv-x="1168" 
d="M290 -193q-100 0 -183 68q-103 93 -105 181.5t-2 97.5q0 161 67 355q71 204 193.5 406t273.5 362t281 226.5t225 66.5q48 0 93 -13q116 -40 143 -113.5t27 -119.5q0 -213 -256 -358q-63 -32 -91 -33t-33 -1q-42 0 -64 13q-16 10 -16 20q0 5 3 10q88 52 153 134.5
t94.5 156.5t29.5 120l-1 18l37 -14q-50 49 -110 49q-41 0 -87 -23q-113 -58 -234.5 -200.5t-229 -316t-179 -323t-86.5 -220.5q-18 -97 -18 -167q0 -80 24 -122q37 -67 107 -67q97 0 235 98q145 106 266 241t176 219q20 27 61 27q32 0 32 -16v-4q-32 -100 -113 -223.5
t-193 -240t-237.5 -197t-195 -89t-87.5 -8.5z" />
    <glyph glyph-name="D" unicode="D" horiz-adv-x="1285" 
d="M300 -80l1 29q1 27 6 38q180 50 326 190.5t249 326t153 373.5q40 148 40 270q0 32 -7.5 119.5t-92.5 145.5q-38 26 -91 26q-67 0 -160 -41q-144 -68 -259.5 -221t-181.5 -350q-63 -189 -63 -382v-17l22 48q178 379 275 672q23 14 59 14q29 0 49 -15q47 -42 47 -119
q0 -22 -10 -90.5t-71 -211.5t-134 -292q-66 -134 -117 -252.5t-63 -200.5q14 -49 23 -60zM332 -190q-100 0 -148 67q-88 0 -100 76q-2 17 -2 36q0 130 127 413q-10 -2 -25 -2q-18 0 -52.5 3.5t-75.5 37.5t-54 117q-2 14 -2 29q0 75 39 207.5t129.5 294.5t224 291t306.5 176
q96 22 175 22q123 0 232 -70t148 -252q18 -84 18 -177q0 -108 -34.5 -280t-149 -389.5t-285.5 -377.5t-385 -212q-47 -10 -86 -10z" />
    <glyph glyph-name="E" unicode="E" horiz-adv-x="1097" 
d="M301 -208q-33 0 -64 6q-197 48 -249 155t-52 189q0 77 31 162q64 176 265 328q-52 44 -81 103.5t-29 115.5q0 39 10 83q53 176 195.5 311.5t320.5 218t275 92.5t127 10q115 0 185 -49q62 -44 62 -133q0 -38 -11 -83q-36 -123 -114.5 -221.5t-160 -144t-143.5 -45.5
q-21 0 -42 5q-79 18 -117 128q-1 4 -1 9q0 14 19 21q109 34 213 109q161 116 207 185l4 -65q15 49 15 82q0 36 -17 54q-25 28 -74 28q-68 0 -167 -39q-192 -74 -360 -213q-115 -94 -163.5 -175t-48.5 -136q0 -36 16 -70q41 -85 234 -128q18 -5 18 -31q0 -34 -26 -72
q-23 -32 -59 -37q-175 -19 -269.5 -117.5t-99.5 -162t-5 -75.5q0 -95 71 -154q47 -38 126 -38q55 0 127 19q173 47 443 268l4 3q3 2 8 4t10 2t9.5 -4t5.5 -11.5t1 -14.5q0 -21 -10 -61q-16 -50 -90 -125t-181 -146.5t-203 -105.5t-165 -34z" />
    <glyph glyph-name="F" unicode="F" horiz-adv-x="960" 
d="M-39 -156h-39q-65 0 -107 41q-38 36 -38 85l1 16h10q131 0 274 304q66 140 123 302l56 34q-179 -22 -207 -29l-10 -2q-7 0 -7 10q0 35 13 72q12 34 44 64q39 25 173 37q59 191 97 327q33 116 53 178q-153 -23 -218.5 -23.5t-70.5 -0.5q-116 0 -177 39q-41 27 -41 81
q0 28 11 63q0 6 9 7q4 0 11 -2q98 -50 227 -50q134 0 281.5 31t290.5 70q297 80 410 80q63 0 107 -19q54 -25 64.5 -58t10.5 -58q0 -61 -42 -129.5t-67 -68.5q-6 0 -9 7q-39 97 -254 97q-102 0 -219 -15q-102 -14 -181 -27l-78 -12q13 -7 27 -13q58 -24 58 -58
q0 -9 -31 -129q-37 -141 -84 -310h24q43 2 108 2q135 0 203 -22q27 -11 35.5 -32.5t11.5 -50.5l5 -30l-62 1q-184 0 -367 -16q-67 -226 -152.5 -421t-171.5 -297q-69 -74 -105 -75z" />
    <glyph glyph-name="G" unicode="G" horiz-adv-x="1372" 
d="M797 -146q-95 0 -131.5 28.5t-43 71.5t-6.5 87l2 59q-88 -104 -194.5 -147.5t-192.5 -43.5q-178 0 -271 147q-52 93 -52 216q0 64 14 136q40 212 163 439.5t293.5 415.5t351.5 279q133 63 253 63q128 0 205 -73.5t77 -216.5v-8q-12 -166 -83.5 -242t-150.5 -76
q-81 0 -118 68q-2 3 -2 12q0 12 10 16q56 25 100 84q66 88 66 168q0 99 -106 99q-130 0 -305 -152q-153 -132 -283.5 -319.5t-188.5 -372.5q-49 -169 -49 -279q0 -64 17 -108q39 -107 134 -107q124 0 278 153q137 137 247 381q-39 -3 -76 -3q-46 0 -87 5q-153 19 -153 159
q0 14 1 19q4 9 21 9q70 -5 140 -5q153 0 358 24l76 6q36 2 79 2q122 -1 167 -72q26 -41 26 -78q0 -54 -46 -74q-38 14 -113.5 22t-147.5 8q-94 0 -136 -18l84 -15q-55 -131 -100.5 -291t-62.5 -395l-1 -19q0 -41 -11.5 -51.5t-51.5 -10.5z" />
    <glyph glyph-name="H" unicode="H" horiz-adv-x="1454" 
d="M984 -202q-47 0 -75 19q-49 34 -58.5 85.5t-9.5 91.5q0 87 30 193q18 64 42 155q36 141 77 286l106 61q-113 -28 -231 -61q-245 -71 -478 -112q-92 -243 -231 -672q-24 -5 -46 -5q-68 0 -105 47q-26 33 -26 81q0 39 18 88.5t53 159.5q49 160 102 302q-18 5 -33 12
q-101 45 -110 103.5t-9 77.5q0 83 55 180q7 11 17 11q9 0 16 -9q51 -78 168 -98q195 528 195 703q0 28 -5 49l-1 5q0 13 11 16q31 5 58 5q65 0 98 -33q47 -47 47 -123q0 -165 -170 -628q197 19 412 60q83 15 162 28l208 694q25 7 46 7q54 0 86 -44q28 -38 28 -89
q0 -31 -11 -68q-53 -151 -149 -474q42 4 80 4q239 0 239 -130q0 -37 -19 -84q-4 -7 -14 -7q-5 0 -8 1q-95 28 -202 28q-64 0 -132 -10q-77 -277 -117 -488t-40 -308q0 -51 9 -83l1 -5q0 -9 -8 -12q-43 -10 -76 -10z" />
    <glyph glyph-name="I" unicode="I" horiz-adv-x="794" 
d="M-67 -171q-118 0 -118 92q0 28 9 65q50 -23 109 -23q69 0 153 23l2 16q23 61 89 254q178 525 254 870q32 142 32 219q0 31 -5 52q-42 4 -79 4q-53 0 -113 -11t-90 -71q-4 -6 -8 -6q-7 0 -18.5 18.5t-19.5 60.5q-3 17 -3 34q0 26 9.5 61t55.5 64q47 24 115 24
q78 0 227 -30q169 -36 272 -36q87 0 160 28q5 2 9 2l6 -2q9 -4 9 -46q0 -49 -37 -80q-49 -41 -178 -41q-94 0 -221 23h-4l17 -6q17 -6 43 -23q42 -34 42 -94q0 -67 -20 -123q-33 -111 -92 -317q-166 -586 -235 -772q137 50 207 50q42 0 73 -16q61 -38 61 -128
q0 -70 -27 -117q-9 -17 -16 -17q-4 0 -7 7q-26 59 -91 71q-32 7 -69 7q-81 0 -266 -45q-164 -41 -237 -41z" />
    <glyph glyph-name="J" unicode="J" horiz-adv-x="835" 
d="M72 -209q-28 0 -55 6q-113 23 -167.5 101.5t-54.5 164.5q0 34 7 71q18 70 52.5 105t60.5 35q23 0 23 -30q0 -12 -4 -29q-8 -37 -8 -67q0 -59 31 -95q42 -46 105 -46l19 1q117 17 182 138t98 296t53 354q15 118 31 219.5t40 170.5q22 59 63 100q-117 -38 -187 -38
q-55 0 -94 30q-48 36 -63 143q0 9 8 9h3q49 -19 104 -19q44 0 92 12q107 27 216 73q172 73 249 73q42 0 75 -18q43 -30 53.5 -72.5t10.5 -75.5q0 -19 -3 -38q-6 -52 -17.5 -75.5t-17.5 -23.5q-5 0 -8 7q-30 71 -73 76t-61 5q-56 0 -126 -20q-39 -116 -62.5 -253.5
t-41.5 -284.5q-22 -177 -53.5 -351t-93.5 -325q-145 -329 -386 -329z" />
    <glyph glyph-name="K" unicode="K" horiz-adv-x="1101" 
d="M911 -192q-33 0 -69 17q-88 53 -171.5 197t-158.5 304q-61 128 -115 223.5t-97 116.5l29 -57q-103 -329 -142 -515q-34 -9 -63 -9q-56 0 -90 34t-34 89q0 30 11.5 68.5t30.5 96.5q47 143 111 347q-23 30 -23 57q0 22 13 34q17 16 49 37q148 500 148 673q0 65 -21 89
q56 17 98 17q46 0 90.5 -30.5t44.5 -108.5q0 -128 -98 -471q145 90 296 194.5t266 209t150 193.5q113 -43 113 -111q0 -103 -149 -228q-245 -208 -676 -482q75 -86 206 -325q66 -123 135 -233q142 -228 263 -228q15 0 29 3h2q13 0 13 -15q0 -8 -7.5 -33.5t-44 -73
t-90.5 -70.5q-24 -10 -49 -10z" />
    <glyph glyph-name="L" unicode="L" horiz-adv-x="801" 
d="M847 -206q-110 0 -376 101q-318 122 -478 122q-60 0 -115 -14q-11 35 -11 61q0 86 135 86l33 -1q-26 29 -26 73q0 36 29 115q56 151 140 398q189 553 189 730q0 29 -5 50l-1 8q0 11 8 13q37 8 68 8q57 0 100 -36.5t43 -103.5q-3 -113 -72.5 -330t-155.5 -453
q-115 -313 -163 -495q112 -23 229.5 -55.5t224.5 -55.5q86 -18 155 -18q15 0 62 3.5t82 54.5q9 7 18 7q13 0 30 -21t24 -70q2 -14 2 -28q0 -103 -95 -139q-33 -10 -74 -10z" />
    <glyph glyph-name="M" unicode="M" horiz-adv-x="1808" 
d="M1599 -247q-33 0 -87 26t-78 163q-11 75 -11 167v28q2 62 15 191t57.5 325.5t94 356.5t85.5 238q-57 -59 -129.5 -177.5t-154.5 -263.5q-90 -157 -181 -304t-173.5 -244t-147.5 -101q-44 1 -51 34q-2 0 -3 1l2 1l-3 12q1 164 9 471q6 201 6 341l-1 140l-14 -165
q-73 -216 -180.5 -440.5t-269.5 -403.5q-169 -173 -359 -173q-170 0 -245 129q-27 48 -27 106q0 46 13 90q29 85 85 136q86 78 165 78q45 -3 45 -31q-1 -14 -13 -34q-57 -83 -57 -163q0 -67 44 -98q20 -15 51 -15q37 0 87 24q144 77 284 283.5t237 446.5t111 419v19
q0 65 -24 97q-5 6 -6 16q0 10 10 18q73 56 123 56q5 0 33 -2.5t53.5 -47.5t36.5 -102q20 -119 20 -329q0 -245 -19 -546q87 151 191 318q244 390 434 566q121 112 215 112h5q110 -6 136 -44q-62 -66 -135 -230t-135.5 -378t-90.5 -426q-14 -101 -14 -181q0 -107 22 -229.5
t132 -180.5q16 -7 16 -15q0 -6 -13 -13q-119 -72 -196 -72z" />
    <glyph glyph-name="N" unicode="N" horiz-adv-x="1695" 
d="M20 -174q-16 0 -85.5 5.5t-133.5 87.5q-46 58 -46 145q0 36 8 78q27 77 80 119q75 60 158 60q62 0 62 -31q0 -5 -2 -11q-51 -73 -51 -145q0 -68 51 -99q23 -15 56 -15q43 0 104 25q117 53 237.5 214.5t226.5 369t181 400.5q105 270 105 350q0 12 -1 24v14q0 15 8 20
q26 15 59 15q87 0 106 -107q30 -213 30 -461q1 -153 11 -306t42 -294q19 84 73 235t134.5 329t178.5 343.5t206.5 278.5t218.5 133l28 1q66 0 109.5 -42.5t60.5 -84.5q3 -6 3 -12t-4 -15.5t-34 -17.5q-172 -51 -321 -220.5t-264 -394.5t-182.5 -440t-77.5 -357
q-40 -24 -90 -24l-47 4q-88 34 -139 162q-88 219 -108 632q-9 182 -9 283l-21 -125q-81 -188 -189 -413.5t-222 -392.5q-131 -177 -275 -254q-126 -66 -235 -66z" />
    <glyph glyph-name="O" unicode="O" horiz-adv-x="1459" 
d="M379 -177l-36 1q-189 52 -269 210q-74 147 -74 340q0 14 2.5 126.5t70 320.5t172.5 360t224 194q166 217 356 217l18 -1q138 -11 210 -115q105 -155 105 -455q0 -210 -48 -413q94 13 220.5 93t194.5 151q22 23 52 23q2 0 18.5 -0.5t38.5 -16.5q20 -13 20 -28l-1 -6
q-17 -53 -104 -132.5t-220 -156.5t-288 -121q-54 -156 -154.5 -294.5t-238.5 -222.5q-123 -74 -269 -74zM985 585l-86 37q81 291 81 472q0 18 -5 120t-69 170q-43 45 -91 45q-25 0 -77.5 -23.5t-102.5 -149.5q-34 -87 -34 -211q0 -55 7 -118q10 -101 50 -166t94.5 -101.5
t107.5 -52.5t89 -19zM372 8q22 0 83 10.5t168.5 108.5t198.5 284q-150 38 -245.5 137.5t-143 231.5t-54.5 268q-108 -176 -160 -381q-44 -178 -44 -329q0 -24 5 -121t77 -167q48 -42 115 -42z" />
    <glyph glyph-name="P" unicode="P" horiz-adv-x="1258" 
d="M44 -187q-59 0 -101 52q-15 23 -15 57q0 29 11 65q34 117 146 309l56 99q210 372 305 595q60 142 60 203q0 14 -3 25q51 16 91 16q68 0 99 -38q16 -23 16 -60q0 -93 -104 -294q-65 -124 -143 -261l-59 -105l-73 -45l88 22v1q61 16 159.5 58.5t213.5 122.5t226 208
q163 197 173 278.5t10 104.5q0 105 -66 166q-81 76 -154 78.5t-83 2.5q-125 0 -257 -65q-143 -70 -248.5 -222.5t-128.5 -392.5q-5 -48 -47 -55q-14 -2 -29 -2q-30 0 -67 8q-55 12 -101 65q-30 60 -30 123q0 71 39 144q74 139 236.5 258t351 185t354.5 66l42 -1
q228 -17 311.5 -114.5t83.5 -213.5q0 -185 -163 -394q-178 -217 -437.5 -365.5t-483.5 -169.5q-135 -257 -135 -385q0 -18 2 -33q2 -10 2 -17q0 -11 -9 -20q-47 -48 -88 -53.5t-51 -5.5z" />
    <glyph glyph-name="Q" unicode="Q" horiz-adv-x="1213" 
d="M675 -289q-98 0 -305 131q-240 151 -367 151q-32 0 -64 -7h-3q-13 0 -13 14v5q16 78 58 105q30 19 72 19q16 0 33 -3q-84 86 -94 228q-2 28 -2 57q0 119 40.5 268.5t122 307.5t182.5 274t203 158q102 134 208 171q75 26 135 26q24 0 45 -4q147 -27 212.5 -148t75.5 -277
q3 -44 3 -87q0 -108 -17 -205q-22 -132 -94 -282t-183.5 -285t-252 -219.5t-299.5 -84.5q207 -95 319 -95q7 0 47 1.5t90 56.5q5 6 10 6q9 0 17 -20t8 -53q0 -12 -2.5 -44t-33.5 -82t-100 -76q-24 -7 -51 -7zM394 163q57 0 165.5 57t255.5 275q183 282 219 505q14 86 14 158
q0 115 -47 219.5t-150 107.5q-88 -3 -141 -56.5t-76 -128t-23 -143.5q0 -78 19 -117q41 -76 101 -76q37 0 75 28.5t58 83.5q9 13 29 13q4 0 18.5 -2t38 -24t25.5 -62q0 -45 -33 -99q-99 -114 -215 -114q-84 0 -158 56.5t-104 161.5q-11 40 -11 82q0 69 30 146l-13 -19
q-38 -59 -48 -115q-105 -147 -165 -324t-62 -330q0 -156 66 -228q59 -55 132 -55z" />
    <glyph glyph-name="R" unicode="R" horiz-adv-x="1434" 
d="M1204 -292q-24 0 -51 7q-90 29 -173 113t-166 188.5t-174 198.5t-197 145q-22 -3 -43 -4q-139 -259 -139 -387q0 -18 2 -33q2 -10 2 -17q0 -10 -9 -19q-48 -48 -122 -58l-20 -1q-61 0 -105 52q-14 23 -14 56q0 29 17 86q28 96 144 290l57 99q220 383 319 612
q55 126 55 188q0 14 -3 25q52 16 93 16q70 0 102 -39q17 -23 17 -60q0 -90 -108 -293q-68 -129 -206 -368l-75 -45l90 23q63 16 164 59q247 104 451 331q166 197 184 336q4 26 4 49q0 104 -76 173q-83 74 -233 74q-130 0 -271.5 -68t-250 -220.5t-131.5 -393.5
q-5 -48 -48 -56q-13 -2 -28 -2q-32 0 -79.5 10.5t-94.5 63.5q-31 60 -31 123q0 71 58 177.5t225 226t371 189.5q182 62 352 62l43 -1q234 -18 330 -127q75 -86 75 -202q0 -32 -16 -129.5t-151 -266.5q-129 -155 -310 -279t-369 -194q60 -38 121.5 -98.5t125.5 -129.5
q77 -85 156 -160t159 -113q50 -25 99 -25q30 0 59 9l6 1q12 0 12 -16q0 -5 -4.5 -26t-37.5 -65t-86 -70q-33 -17 -71 -17z" />
    <glyph glyph-name="S" unicode="S" horiz-adv-x="1296" 
d="M272 -191h-9q-102 0 -156 45t-54 113q0 5 2 45t78 121q61 59 151.5 114.5t181.5 99t154 69.5l63 25q-41 38 -206 104q-108 42 -218 97.5t-181 132.5q-83 102 -83 197q0 36 27 117.5t174 189.5t347 183t402 106q113 17 211 17q76 0 184.5 -17.5t157.5 -109.5
q19 -43 19 -85q0 -51 -39 -121t-143 -143t-224 -113q-101 -34 -186 -34q-17 0 -74.5 4t-96.5 74q-3 6 -3 13q0 1 1 6t15 12.5t46 13.5q79 15 186.5 58t200.5 98.5t130 107.5q14 20 14 37q0 29 -39 51q-24 11 -72 11q-40 0 -132.5 -12t-253.5 -57t-308.5 -112.5
t-234.5 -149.5q-69 -65 -69 -136q0 -18 13 -72t192 -145q35 -17 81 -37q94 -41 190 -93.5t145 -117.5l-16 -28l203 93q212 97 273 136q35 20 62 20q38 0 56 -25q9 -12 9 -20q0 -6 -4 -10q-87 -85 -252 -165t-275 -117q4 -15 4 -31l-1 -13q0 -117 -108 -250
q-97 -120 -240.5 -204t-294.5 -93zM269 -27q50 0 137 34q67 27 129 62q179 98 211 261q-359 -153 -472 -258q-49 -46 -49 -70l1 -8q9 -21 43 -21z" />
    <glyph glyph-name="T" unicode="T" horiz-adv-x="1096" 
d="M432 -121q-32 0 -55 11q-56 26 -69 77t-13 94q0 25 4 51q9 71 27 123q148 423 433 1120q-349 -89 -508 -89q-84 0 -147 21q-108 44 -111.5 97.5t-3.5 59.5q0 95 96 199q10 10 19 10q14 0 29 -31q49 -82 138 -91.5t141 -9.5q180 0 581 81q359 71 503 71q126 0 157 -39
q27 -33 27 -66q0 -39 -26 -97q-4 -10 -8 -10h-5q-6 0 -13 2l-2 1q-94 25 -196 25q-171 0 -507 -88l-42 -10l43 -8q30 -8 30 -22q0 -5 -31 -81q-150 -349 -262 -688q-127 -385 -127 -588q0 -57 10 -103q-66 -22 -112 -22z" />
    <glyph glyph-name="U" unicode="U" horiz-adv-x="1424" 
d="M311 -96q-86 0 -151 47q-114 82 -137 211.5t-23 205.5q0 403 283 899q29 51 62 104q76 115 157 165t116 51t39 1q60 0 90 -26q21 -19 21 -42q0 -14 -8 -30q-193 -186 -311.5 -397t-160 -379.5t-41.5 -280.5q0 -45 5 -85q19 -141 73.5 -172.5t89.5 -31.5q190 0 491 407
q55 242 143 495q166 481 230 481q12 0 25 -6q50 -21 73.5 -66t23.5 -77q0 -27 -12 -54q-140 -268 -230 -571q-69 -237 -69 -403q0 -250 157 -318q21 -5 21 -10q0 -15 -70 -62q-79 -53 -146 -53q-25 0 -50 7q-70 29 -103 106t-38 170l30 107l-38 -69q-224 -237 -351 -280.5
t-191 -43.5z" />
    <glyph glyph-name="V" unicode="V" horiz-adv-x="1193" 
d="M219 -189q-17 0 -36.5 3.5t-33.5 9.5l-15 5q-86 56 -114 204q-20 104 -20 232q0 214 52 522q35 208 75 386l75 321q50 14 88 14q122 0 122 -150q0 -78 -27 -167q-74 -248 -123 -522q-48 -263 -48 -507v-19q3 -100 10 -111l12 117q56 118 155 298t228.5 379.5t274.5 375.5
t292 286t281 113q123 -5 172 -139q22 -63 22 -85q0 -9 -6.5 -13.5t-13.5 -4.5q-308 -15 -673 -416q-164 -180 -302.5 -386.5t-236 -399t-136.5 -332.5q-32 -14 -74 -14z" />
    <glyph glyph-name="W" unicode="W" horiz-adv-x="1803" 
d="M257 -213q-27 0 -77 18q-3 1 -5.5 3.5t-2.5 8.5q0 4 3 11q34 68 77 213t81 326t54 324t16 234q0 54 -4 102q-12 129 -71 171q-35 19 -69 19q-35 0 -69 -20q-68 -42 -112 -126t-47 -171q-3 -35 -23.5 -38.5t-28.5 -3.5q-29 0 -62 20q-70 44 -70 141q0 41 15 95
q52 159 151 247t164.5 95.5t84.5 7.5q91 0 168 -53q93 -64 132 -205q18 -83 18 -177q0 -82 -15 -175q-31 -194 -89 -400q89 180 189 351t201 301.5t195 187.5q16 29 39 29q9 0 19 -4q36 -16 64 -59t29 -86q-4 -48 -56 -330q-101 -563 -101 -655q0 -22 4 -22q5 0 17 25
l48 108q201 478 398 800q291 478 571 499q95 0 129.5 -42t35.5 -70q0 -80 -7 -105q-1 -6 -9 -10t-13 -4q-246 -17 -544 -404q-133 -175 -247.5 -372.5t-197 -379.5t-120.5 -310q-7 -22 -23 -27q-21 -7 -41 -7q-29 0 -55 10l-17 6q-82 60 -90.5 172t-8.5 170q0 128 20 278
q29 220 74 425l62 98q-87 -67 -202.5 -272.5t-234.5 -440.5q-145 -295 -248 -455q-45 -65 -67 -68.5t-32 -3.5z" />
    <glyph glyph-name="X" unicode="X" horiz-adv-x="1511" 
d="M74 -226q-9 0 -37 2.5t-61 25.5q-27 19 -27 56l1 14q29 127 199 371l14 20q123 185 399 507q-71 189 -156 357.5t-198 274.5q-10 8 -10 22q0 7 7 17q73 104 143 104q70 -1 138 -79.5t133.5 -207.5t129.5 -283q162 171 330 316q350 301 565 301q16 0 31 -2
q117 -19 117 -165q0 -9 -2.5 -45t-12.5 -73q-3 -10 -13 -14.5t-17 -4.5l-36 1q-199 0 -426 -135t-454 -369q69 -158 148 -286q144 -233 304 -233q37 0 77 12l7 1q13 0 13 -11q0 -28 -51 -83q-38 -42 -95 -77q-74 -45 -152 -45q-56 0 -115 32q-106 63 -192.5 206.5
t-160.5 337.5v-99q-317 -390 -480 -757q-26 -9 -60 -9z" />
    <glyph glyph-name="Y" unicode="Y" horiz-adv-x="1270" 
d="M312 -390q-105 0 -183 48q-126 86 -126 221q0 80 51.5 155t159.5 84h4q41 0 41 -24q0 -15 -17 -40q-32 -56 -32 -111q0 -27 16 -80.5t96 -67.5l26 -1q115 0 201 85t147.5 232.5t104.5 309.5l87 90q-248 -189 -472 -240q-60 -14 -119 -14q-70 0 -139 20q-116 40 -137 137
q-8 37 -8 78q0 126 107 407q95 247 95 348q0 56 -23 95q-5 8 -5 15q0 22 49 29q21 4 38 4q119 0 144 -81q10 -34 10 -76q0 -112 -91 -370q-84 -236 -84 -331q0 -34 8 -61q18 -59 101 -59h11q163 13 271 93q186 139 278 451q38 131 62.5 246t49.5 186q28 67 83 105t111 38
q49 0 71 -37q-79 -245 -149 -550q-67 -293 -155 -580t-225 -506q-79 -116 -196 -178q-129 -70 -262 -70z" />
    <glyph glyph-name="Z" unicode="Z" horiz-adv-x="1224" 
d="M868 -52q-131 0 -419 98q-124 42 -251 76q-153 41 -283 41q-102 0 -193 -35q-4 31 -4 57q0 175 210 175h4q45 108 187 235q235 224 754 669l141 33q-14 -2 -46 -2t-63.5 1t-44.5 1q-230 15 -350 16q-126 0 -224.5 -29t-146.5 -106q-7 -9 -13 -9q-10 0 -23 25
q-18 33 -18 97q0 143 117 211q87 42 210 42q127 0 311 -26q208 -29 342 -29q119 0 222 31l8 1q20 0 20 -30v-20q0 -20 -24 -68t-65 -71l-12 -15l-83 -70q-704 -583 -987 -908q95 -17 196 -39q299 -66 448 -66q62 0 147 14t143 102q6 9 13 9q12 0 27 -31q19 -39 19 -120
q0 -168 -136 -236q-59 -24 -133 -24z" />
    <glyph glyph-name="bracketleft" unicode="[" horiz-adv-x="753" 
d="M117 -253h-2q-23 0 -50.5 27t-46.5 67q-18 35 -18 66q0 7 6 60q38 340 93 735q130 935 220 935q91 -7 163 -7q10 0 55.5 0.5t145.5 21.5q11 0 16 -28q3 -15 3 -33q0 -15 -3 -41t-21 -52.5t-53 -26.5l-56 4q-78 9 -212 9q1 -1 7 -3.5t14.5 -5t14 -5t5.5 -4.5
q-39 -116 -101 -413t-105 -618q-30 -227 -30 -388q0 -66 5 -122q134 21 219 58q82 31 108 31q25 0 43 -23q29 -35 29 -101q0 -59 -27 -61q-84 0 -245 -44q-96 -27 -177 -38z" />
    <glyph glyph-name="backslash" unicode="\" horiz-adv-x="799" 
d="M699 -208q-33 0 -60 10q-11 5 -13.5 11t-2.5 17l1 4q-3 140 -99.5 406t-218.5 559q-250 612 -250 709q0 100 97 100q31 0 73 -10q14 -5 14 -15q0 -14 -9 -28q-13 -29 -13 -76q0 -146 152 -528q84 -210 175 -423q228 -515 228 -640q0 -96 -74 -96z" />
    <glyph glyph-name="bracketright" unicode="]" horiz-adv-x="719" 
d="M28 -254h-1q-17 0 -17 61q0 14 3 41t21.5 54t51.5 27l58 -4q78 -10 211 -10q0 3 -20 8.5t-20 8.5q39 119 101 418t105 623q31 228 31 391q0 67 -6 123q-133 -21 -219 -57q-86 -33 -108 -33q-25 0 -44 23q-29 36 -29 103q0 61 27 62q89 0 246 44q97 28 178 39
q22 0 50.5 -28t47.5 -65.5t19 -68.5q0 -6 -43 -366q-59 -498 -126 -887q-83 -486 -147 -492l-4 1q-89 5 -161 5q-12 0 -58 -0.5t-147 -20.5z" />
    <glyph glyph-name="asciicircum" unicode="^" horiz-adv-x="748" 
d="M134 1063q-65 0 -96 38q-11 17 -11 39q0 68 113 198q80 93 249 248q24 21 38 35q11 10 22 10h8q6 0 13 -17l22 -60q33 -100 82.5 -206.5t122.5 -166.5q22 -5 22 -14q0 -6 -7 -15q-17 -21 -41 -35q-29 -17 -57 -17q-75 0 -130 120q-31 67 -53 130q-32 89 -44 89
q-2 0 -4 -2q-20 -24 -46 -51q-67 -70 -124 -152q-48 -70 -48 -141q0 -12 2 -25q-15 -5 -33 -5z" />
    <glyph glyph-name="underscore" unicode="_" horiz-adv-x="1060" 
d="M794 -167q-114 0 -240 17q-155 18 -258 18q-109 0 -205 -30q-10 -3 -17 -3q-18 0 -18 25q0 23 11 60q15 47 43 69.5t64 24.5t73 2q111 0 233 -16q147 -17 261 -17q112 0 210 33l11 2q16 0 16 -24q0 -21 -14 -65q-27 -89 -107 -95q-31 -1 -63 -1z" />
    <glyph glyph-name="a" unicode="a" horiz-adv-x="973" 
d="M160 98h-9q-65 0 -102 51t-37 127q0 36 10.5 118t107.5 246q71 116 171 212q132 127 263 127q38 0 64.5 -14t33.5 -34l14 23q28 34 135 34q56 0 56 -36q0 -22 -22 -55q-18 -25 -61.5 -108t-89.5 -184t-70 -183q-14 -46 -14 -74q0 -45 40 -45q72 0 219 143q81 78 153 168
q20 20 82 20q8 0 23 -0.5t31.5 -5t17.5 -9.5l-1 -1q-32 -53 -114 -143q-210 -230 -385 -324q-71 -40 -120 -40q-24 0 -66 13t-48 147q-162 -168 -282 -173zM236 278q75 3 183 187q47 81 80 157q46 105 46 154q0 37 -29 37q-42 0 -103.5 -71.5t-119 -178t-79.5 -190.5
q-9 -32 -9 -54q0 -41 30 -41h1z" />
    <glyph glyph-name="b" unicode="b" horiz-adv-x="789" 
d="M-12 64q-49 0 -103 48q-3 2 -3 9q0 3 1 8t6.5 11.5t11 13.5t7.5 12q53 92 115 277t128 402q81 270 157.5 487.5t138.5 271.5q36 27 76 27q1 0 22.5 -1t53.5 -42q-101 -248 -252 -740q131 133 283 139q142 -2 142 -179q0 -101 -41 -225q-70 -207 -231 -358
q-128 -120 -271 -120q-42 0 -72.5 15.5t-40.5 35.5q-26 -62 -92 -86q-18 -6 -36 -6zM270 273q50 0 117 71t125 181q75 143 75 229q0 57 -47 62q-62 -4 -130.5 -96.5t-119.5 -202.5q-62 -132 -62 -193q0 -8 1.5 -24.5t23.5 -24.5q8 -2 17 -2z" />
    <glyph glyph-name="c" unicode="c" horiz-adv-x="743" 
d="M185 93q-14 0 -27 1q-153 27 -178.5 105.5t-25.5 131.5q0 73 29 158q51 146 156.5 278t212.5 190.5t188 58.5q45 0 89 -14q58 -21 80 -62t22 -78q0 -33 -12 -73q-34 -87 -96 -134.5t-90 -50t-32 -2.5q-42 0 -44 38l63 75q56 74 56 135l-1 11q-6 36 -24 36q-58 0 -144 -79
t-160 -195.5t-87.5 -180.5t-13.5 -85q0 -69 54 -103q23 -12 51 -12q38 0 86 22q83 35 172 103t162 137.5t108 111.5q12 12 38 19.5t42.5 8t20.5 0.5q47 0 47 -15q0 -3 -2 -6q-87 -119 -226.5 -246t-277 -205.5t-236.5 -78.5z" />
    <glyph glyph-name="d" unicode="d" horiz-adv-x="815" 
d="M151 95h-10q-130 0 -141 204l-1 28q0 37 5.5 108.5t56.5 197.5t139.5 221t211.5 124q32 6 57 6q24 0 50 -6.5t42 -22.5t18 -27q120 363 187 655q68 48 118 48q64 0 64 -63q0 -38 -20 -123t-73 -242t-115 -331q-99 -270 -164 -483q-6 -22 -6 -34q0 -16 9 -16q22 2 89 77
q104 117 199 242q15 17 67 18q11 0 28.5 -1.5t31 -8t13.5 -12.5l-1 -4q-42 -77 -136.5 -200t-193.5 -225.5t-176 -113.5l-22 -2q-100 0 -114 105q-102 -113 -213 -119zM223 280q45 2 97.5 75.5t96.5 177.5q59 142 59 222q0 63 -36 63q-44 0 -97.5 -73t-98.5 -179
q-59 -141 -59 -223q0 -63 35 -63h3z" />
    <glyph glyph-name="e" unicode="e" horiz-adv-x="777" 
d="M208 100q-84 0 -141 38q-77 53 -77 171q0 14 5.5 90.5t147.5 294.5q125 167 270 240q102 52 188 52q36 0 70 -9q83 -31 83 -117q0 -7 -4.5 -59.5t-83.5 -161.5t-203 -179q-97 -55 -205 -55q-31 0 -62 4q-18 -56 -18 -94q0 -87 93 -87q110 0 268 112q138 103 274 277
q21 16 50 16q29 -1 47 -9q34 -14 34 -26l-1 -2q-158 -217 -328 -337q-224 -159 -407 -159zM245 547q74 1 145.5 47t127.5 109t83 113q16 32 16 48q0 15 -12 15q-19 0 -77.5 -35t-138 -111.5t-144.5 -185.5z" />
    <glyph glyph-name="f" unicode="f" horiz-adv-x="558" 
d="M-78 -339q-16 0 -32 4q-54 20 -56.5 74t-2.5 66q0 183 111 556q53 179 115 361q-22 -3 -45 -8q-11 -2 -17 -3.5t-10 -1.5q-5 0 -5 10v15q3 81 49 130q24 22 89 34q179 509 216 653q7 24 28 24q32 0 64.5 -36t32.5 -81q0 -54 -30 -148q-33 -103 -86 -246l-54 -152l57 1
q270 0 304 -37q18 -21 24 -74l3 -18q-207 -3 -414 -32l-14 -1q24 -58 24 -172q0 -52 -5 -115q-16 -201 -60 -401t-92 -280q-35 -58 -93 -90t-101 -32zM-8 -176q16 0 55 128q71 230 117 498q21 127 21 204q-85 -222 -140 -441q-62 -248 -62 -346q0 -43 9 -43z" />
    <glyph glyph-name="g" unicode="g" horiz-adv-x="809" 
d="M12 -786q-97 0 -177.5 61.5t-111.5 172.5q-12 43 -12 87q0 70 40.5 166t193.5 183.5t430 105.5q56 243 75 343q-35 -53 -92 -124q-138 -163 -253 -163q-78 6 -91.5 71t-13.5 111q0 64 16 142q26 135 86 272.5t141 234.5q96 114 195 114q54 0 91 -27q45 -32 59 -75l9 39
q27 81 107 81q58 0 101 -29q10 -8 10 -25q0 -6 -2 -13q-102 -286 -179 -635q-33 -148 -70 -299q97 16 189 42q25 7 47 7q23 0 52 -10.5t43 -32.5q5 -8 5 -15q0 -11 -15 -18q-166 -65 -354 -98q-49 -177 -111 -320t-150 -234.5t-213 -111.5q-23 -3 -45 -3zM-10 -626
q86 0 186 103t169 376q-189 -9 -302 -69t-160 -141q-41 -69 -41 -131q0 -10 5 -50t57 -68q44 -20 86 -20zM226 241q32 0 79 55q58 67 114 170t82.5 184t26.5 124q0 70 -47 70q-36 0 -81 -59q-36 -50 -103 -186.5t-93 -268.5q-4 -18 -4 -34q0 -32 13 -52q6 -3 13 -3z" />
    <glyph glyph-name="h" unicode="h" horiz-adv-x="932" 
d="M48 23q-40 0 -67 36t-27 110q0 135 97 435q70 217 149 436q60 166 103.5 281.5t58.5 200.5q2 9 6.5 11.5t17.5 2.5q95 0 112 -68q8 -30 8 -64q0 -42 -20.5 -103.5t-42.5 -114.5l-3 -9q-42 -97 -149 -396q-130 -359 -130 -419q0 -7 0.5 -9t1.5 -2q8 0 59 92q49 87 120 198
q161 250 269 250q13 0 25 -3q64 -24 74 -100q4 -28 4 -58q0 -104 -53 -286q-21 -87 -21 -111q0 -34 23 -34q49 0 178 139q124 134 152 176q16 19 63 19q35 0 56 -8q12 -4 12 -9q0 -2 -12 -19q-180 -265 -335 -407q-108 -98 -196 -98q-109 0 -135 69q-15 41 -15 92
q0 39 15 113.5t45 163.5t30 123q0 15 -7 15q-11 0 -38 -39q-45 -64 -161 -288q-101 -194 -133 -236q-64 -82 -134 -82z" />
    <glyph glyph-name="i" unicode="i" horiz-adv-x="502" 
d="M396 1257q-49 1 -71 53q-12 30 -12 66q0 27 10 70.5t72 77.5q28 10 49 10q33 0 54 -23q30 -35 30 -84q0 -61 -43 -117q-36 -47 -89 -53zM103 105q-126 0 -132 112l-1 23q0 149 154 474q70 144 70 210v20q30 32 89 44q14 3 27 3q41 0 71 -28q7 -11 7 -31q0 -69 -120 -333
q-101 -222 -101 -272q0 -20 13 -23q74 5 272 211q69 75 91 101q19 17 79 18q30 0 51 -13q11 -4 11 -9q0 -10 -105 -146q-190 -242 -362 -330q-59 -31 -114 -31z" />
    <glyph glyph-name="j" unicode="j" horiz-adv-x="527" 
d="M-387 -516q105 0 205 116q81 94 137 220t72 242q-79 -37 -222 -124q-225 -138 -294 -259q-18 -47 -18 -84q0 -41 23 -69q35 -42 97 -42zM-414 -663q-61 0 -120 19q-149 60 -149 225q0 51 26 132q48 149 271 279q93 53 195 106q147 73 269 153l23 94q104 423 158 584
q10 28 35.5 46.5t60.5 18.5q53 0 92 -27q9 -7 9 -20q0 -6 -3 -13q-103 -271 -174 -591q27 17 79 54q124 89 183 146q21 20 65 20q15 0 35.5 -3t36 -9t15.5 -9v-2q-79 -92 -211 -193t-243 -173q-34 -142 -77.5 -272t-111.5 -256q-105 -184 -269 -261q-100 -48 -195 -48z
M417 1262q-46 3 -66 56q-10 27 -10 57q0 27 12.5 72t73.5 74q24 8 44 8q35 0 56 -25q26 -32 26 -77q0 -62 -47 -118q-36 -44 -89 -47z" />
    <glyph glyph-name="k" unicode="k" horiz-adv-x="840" 
d="M6 57h-3q-43 0 -70 79q-2 10 -2 25q0 124 212 765q163 493 187 637l1 7q122 -1 150 -62q15 -33 15 -75q0 -82 -74 -258q-24 -56 -39 -103q-10 -29 -42 -110q-148 -375 -148 -438q0 -10 3 -10q6 1 40 53q149 233 300 349q83 64 167 64q15 0 30 -3q43 -7 51 -50l1 -11
q0 -108 -267 -321q1 -3 3 -4q18 -13 34 -34q19 -25 19 -65q0 -33 -19 -84q-30 -76 -30 -110q0 -27 24 -27q32 0 100 54t145.5 135t120.5 138q18 22 76 22q5 0 20.5 -1t31 -5.5t15.5 -11.5v-2q-39 -76 -134.5 -189.5t-202 -207t-179.5 -110.5q-26 -4 -49 -4q-128 0 -128 169
q0 80 22 195q12 59 12 87q0 16 -5 16q-14 0 -92 -137q-43 -76 -95 -158q-124 -197 -201 -204zM447 654q5 0 92 70q113 91 113 107q0 8 -12 8q-9 0 -31 -13q-48 -29 -124 -117q-40 -45 -40 -53q0 -2 2 -2z" />
    <glyph glyph-name="l" unicode="l" horiz-adv-x="558" 
d="M167 83h-18q-42 0 -94 40q-50 46 -50 147q0 121 59 324q49 166 108 341q141 409 141 539q0 26 -8 61q0 7 9 16t40 9q75 0 118 -40t43 -92q0 -50 -45 -189q-42 -130 -100 -292q-164 -455 -183 -577q-9 -70 -9 -92q2 -53 36 -53q36 0 108 73q63 65 279 312q23 24 77 24
q62 0 65 -24q0 -11 -160 -204q-233 -282 -345 -310q-31 -12 -71 -13z" />
    <glyph glyph-name="m" unicode="m" horiz-adv-x="1201" 
d="M786 81q-14 0 -26 2q-70 15 -70 143q0 158 132 506q26 70 26 89q0 8 -4 8q-17 0 -86 -106q-59 -91 -126 -211q-162 -294 -164 -379q-40 -26 -88 -27q-65 0 -66 53l-1 54q0 121 66 382q36 146 36 182q0 16 -7 16q-21 0 -116 -166q-101 -176 -215 -431l-40 -87
q-33 -20 -60 -20q-21 0 -39 13q-38 29 -38 83q0 64 91 338q41 122 71 227.5t30 181.5q0 39 72 39q26 0 47 -12q52 -31 52 -94q0 -52 -31 -142q-9 -25 -9 -31q3 0 14 19q177 290 291 290q84 0 84 -165q0 -66 -14 -159q-3 -20 -3 -27q0 -3 1 -3q4 0 18 22t28 43
q97 165 186 242q56 41 106 41q94 0 109 -109q0 -98 -95 -351q-55 -149 -55 -192q0 -34 28 -34q82 0 333 252q49 49 52 51q14 14 43 14q38 0 66 -25q4 -5 4 -9q0 -3 -2 -6q-94 -123 -219 -245t-234.5 -191t-177.5 -69z" />
    <glyph glyph-name="n" unicode="n" horiz-adv-x="965" 
d="M66 81q-78 0 -96 49q-10 25 -10 57q0 84 84 302q98 255 98 370q0 29 -4 55l8 11q7 11 24 24q33 28 85 28q77 0 86 -62q2 -17 2 -35q0 -73 -38 -173l-7 -24l1 -1l3 5q94 138 194 208q128 91 236 91q115 0 115 -105q0 -11 -4.5 -56.5t-38 -138.5t-66.5 -171l-3 -8
q-59 -144 -59 -194q0 -34 26 -34q19 0 68 36q74 53 272 268q31 35 51.5 56t91.5 21q29 0 45.5 -4.5t16.5 -10.5l-1 -3q-45 -70 -128.5 -178.5t-187.5 -209.5t-213 -148q-53 -23 -102 -23q-53 0 -102 26q-39 31 -39 99l1 47q4 79 93 322q55 154 55 193q0 25 -16 25
q-24 0 -102 -70q-103 -100 -190 -261.5t-144 -287.5l-32 -67q-6 -11 -14.5 -17.5t-15.5 -8t-11 -1.5z" />
    <glyph glyph-name="o" unicode="o" horiz-adv-x="809" 
d="M225 105q-132 0 -200 139q-25 71 -25 147q0 66 19 135q42 149 121 254t145 106q106 105 205 105q134 0 174 -142q13 -63 13 -126q0 -119 -46 -242h11q49 0 115 32q74 36 141 99q22 20 62 20q53 -5 72 -15q12 -6 12 -11l-1 -4q-134 -145 -247.5 -193.5t-203.5 -48.5l-18 1
q-22 -39 -48 -73q-78 -102 -158.5 -142.5t-142.5 -40.5zM478 519q44 116 46 194q-1 90 -29 107.5t-48 17.5t-41 -11q-55 -31 -55 -107q0 -56 27 -104q35 -61 100 -97zM263 284q83 2 155 115q-137 69 -185 238q-72 -127 -72 -215q0 -20 4 -38q21 -98 98 -100z" />
    <glyph glyph-name="p" unicode="p" horiz-adv-x="707" 
d="M-287 -650q-41 0 -64 42q-12 31 -12 76q0 69 51.5 263t131 390.5t151.5 358.5q76 169 96 234q25 93 25 133v10q0 38 76 38q82 0 96 -69q39 50 105 104q79 66 160 66q60 0 107 -41q54 -48 54 -173q0 -104 -51 -268q-49 -149 -135.5 -257.5t-183.5 -163.5q-81 -47 -150 -47
q-13 0 -59 6t-81 95q-26 -81 -51 -150q-40 -110 -82.5 -272.5t-44.5 -294.5q0 -62 -124 -79zM197 194q65 0 163 170q55 96 95 198q49 130 49 201q0 70 -46 70q-19 0 -51.5 -17.5t-67.5 -55.5q-52 -57 -108.5 -166.5t-82.5 -218.5q-10 -44 -10 -79q0 -52 23 -85
q16 -17 36 -17z" />
    <glyph glyph-name="q" unicode="q" horiz-adv-x="767" 
d="M217 -680q-78 0 -78 114q0 63 20 157q15 74 30 127l16 54l82 266q20 66 59 189l35 102q-40 -49 -97 -102.5t-118 -89t-117 -35.5l-14 1q-77 11 -84.5 65.5t-7.5 77.5q0 73 28 167q36 125 106.5 249.5t159.5 210.5q99 96 190 96q64 0 105 -28t58 -54l5 13q7 21 21 41
t49 41q27 15 57 15q14 0 29 -3q46 -10 70 -36q5 -6 5 -13q0 -5 -3 -12q-114 -213 -198 -476q-2 0 -88 -256q-58 -172 -127 -416q-48 -162 -49 -338l-1 -62l-53 -36q-48 -29 -90 -29zM183 303q27 0 71 37q58 49 119.5 131t96 156.5t34.5 120.5q0 60 -44 60q-34 0 -84 -57
q-42 -49 -108.5 -153t-97.5 -199q-9 -31 -9 -55q0 -21 7 -38q7 -3 15 -3z" />
    <glyph glyph-name="r" unicode="r" 
d="M291 90q-58 0 -95.5 30.5t-37.5 92.5q9 94 86.5 213t157.5 219l54 72q10 14 10 23q0 18 -49 18h-23q-29 0 -52 2l-42 -54q-32 -42 -76 -97l-18 -22q-24 -14 -56 -14q-37 0 -58.5 9.5t-21.5 18.5q0 7 50 68q89 111 91 139l-5 12q-5 13 -7 28.5t-2 25.5q0 51 27 104
q42 77 110.5 126t125.5 49q15 0 30 -3q62 -18 62 -83q0 -88 -103 -216l23 6q23 5 51.5 8t51.5 3q51 0 82.5 -19t31.5 -53q0 -53 -68 -152q-49 -70 -106 -141q-137 -171 -137 -220q0 -22 21 -32q5 -1 11 -1q76 0 303 206q95 86 153 146q21 19 63 19q45 0 67 -14q11 -7 11 -13
t-98 -104q-55 -55 -84 -82l-41 -39q-62 -62 -140 -127q-181 -152 -353 -152z" />
    <glyph glyph-name="s" unicode="s" horiz-adv-x="671" 
d="M234 85q-19 0 -36 3q-168 33 -192 134q-2 13 -2 25q0 35 18 66q23 41 84 41q25 0 29 -11q17 -46 75 -62q19 -5 38 -5q125 0 142 154v12q0 111 -85 230q-2 0 -35 -32q-79 -76 -131 -117q-22 -17 -41 -17l-13 1q-20 1 -49 27q-13 13 -13 19q0 4 8 14q136 144 269 306
q38 48 62 73q44 47 87 71t74 24q18 0 36 -6q64 -30 64 -61q0 -33 -49 -83q-87 -87 -87 -184q0 -37 12 -80q38 -122 38 -236q0 -20 -4 -57q-10 -111 -99 -186q-85 -63 -200 -63z" />
    <glyph glyph-name="t" unicode="t" horiz-adv-x="532" 
d="M169 93q-120 0 -152 100q-21 63 -21 143q0 48 14 147.5t53.5 235t65.5 207.5l3 12q-77 0 -103 5q-49 12 -66 64q-4 12 -4 26q0 42 40 88q8 6 12 6q3 0 5 -1q30 -10 100 -10q41 0 78 3l68 176q67 172 67 221q0 15 7 20q29 20 71 20h23q23 0 53 -22.5t30 -71.5
q-8 -59 -95 -272l-21 -54l48 1q39 0 81.5 -5t61.5 -42q6 -12 6 -30q0 -35 -25 -93q-1 -5 -7 -6h-8q-36 3 -82 3q-64 0 -138 -7q-59 -148 -98 -295q-53 -201 -53 -311q0 -54 16.5 -67t36.5 -13q119 0 332 331q16 19 80 19q38 0 58 -9q12 -5 12 -14q0 -4 -3 -9
q-58 -95 -142.5 -208.5t-187.5 -197t-216 -90.5z" />
    <glyph glyph-name="u" unicode="u" horiz-adv-x="881" 
d="M89 100q-29 0 -54 10l-4 1q-78 35 -87 119q-2 21 -2 43q0 108 99 377q75 203 85 293q29 26 60 26q11 0 41 -12t45 -84q1 -12 1 -27q-4 -85 -98 -316l-38 -96q-16 -51 -16 -86q0 -49 42 -49q54 0 141 107q192 254 299 510q4 7 4 10q3 6 3 8h1v3q1 1 1 1.5t2 3t2 4t1 1.5v3
q3 0 3 3t1 3v2l4 6v2h1q0 8 3 11l11 27q19 2 36 2q49 -3 78 -32q25 -28 25 -76q0 -56 -26 -105q-169 -315 -169 -444q0 -58 45 -69h3q43 0 99 53t133 146q47 54 102 115q20 20 58 20q44 0 67 -17q12 -8 12 -15q0 -15 -139 -190q-210 -266 -362 -269q-121 8 -177 104
q-22 37 -38 93v3q-160 -223 -298 -223z" />
    <glyph glyph-name="v" unicode="v" horiz-adv-x="853" 
d="M171 105q-82 0 -146 104q-24 46 -24 109q0 93 57.5 285t57.5 288q0 55 -18 99q18 37 70 37q53 0 83.5 -48.5t30.5 -115.5q0 -90 -62 -317q-45 -171 -45 -218q0 -37 18 -37q33 0 94.5 77.5t119.5 184t83 197.5l7 12q17 34 31 131q8 57 46 89q51 44 114 44q24 0 44 -9
q31 -14 32 -36.5t1 -24.5q0 -59 -50 -199q-12 -32 -20 -59l-19 29l7 -68v-9q0 -95 42 -138q11 -11 26 -11q23 0 55 26q52 40 102 108q12 13 63 13q45 0 67 -7q16 -6 16 -13q0 -14 -93 -125q-59 -70 -125.5 -117.5t-126.5 -47.5q-82 0 -138 114q-36 -61 -100.5 -143
t-143.5 -143t-156 -61z" />
    <glyph glyph-name="w" unicode="w" horiz-adv-x="1214" 
d="M560 93q-33 0 -68 7q-115 31 -115 216l3 44q-257 -258 -384 -258q-47 0 -76 47q-25 49 -25 103q0 24 11 78q18 96 154 317q50 83 87.5 156t42.5 132q0 10 15 16q44 16 79 16q42 0 72.5 -24t30.5 -72q0 -33 -15 -77q-31 -77 -135 -224q-117 -166 -117 -209q0 -19 16 -26
l7 -1q34 0 95 63q106 109 246 319l48 73q36 20 85 20q36 0 66.5 -15t32.5 -51q-85 -165 -122 -289q-27 -87 -27 -137q0 -53 28 -53q23 0 82.5 53.5t198.5 271.5q-59 39 -90 125q-12 35 -12 73q0 59 28 127q35 76 93 118q43 31 89 31q17 0 34 -4q30 -6 66.5 -40.5
t46.5 -117.5q2 -14 2 -30q0 -80 -42 -207l-44 12q7 -8 21 -21q29 -28 50 -41q55 -36 165 -63l2 -5q2 -4 2 -15q0 -19 -13 -34q-30 -31 -88 -31q-26 0 -73 12t-81 33q-75 -131 -159 -233q-153 -185 -313 -185zM945 724q62 129 62 198q0 46 -23 46q-21 0 -41 -32
q-24 -36 -24 -97q0 -50 26 -115z" />
    <glyph glyph-name="x" unicode="x" horiz-adv-x="1000" 
d="M806 106q-31 0 -65 15q-110 58 -233 307q-232 -131 -368 -131q-94 0 -132 70q-29 52 -30 115q0 65 19 108q4 6 8.5 7t10.5 1q83 -3 85 -58q0 -89 42 -105q14 -5 32 -5q84 0 271 121q-68 141 -143.5 266.5t-167.5 195.5q68 65 128 65q22 0 71.5 -20t121 -125t141.5 -236
l14 -24q119 101 187 205q47 71 47 130q0 26 -10 50q-2 4 -2 13t6 12q57 28 111 28q7 0 41 -2t63 -45q14 -21 14 -51q0 -33 -23 -96.5t-142 -190.5q-64 -78 -216 -186q140 -241 267 -241q17 0 34 4q14 0 14 -13q0 -8 -8 -32.5t-45 -70.5t-91 -70q-25 -11 -52 -11z" />
    <glyph glyph-name="y" unicode="y" 
d="M21 -748q-96 0 -177 61.5t-112 172.5q-12 43 -12 87q0 71 40.5 166.5t193.5 183t430 105.5l21 90q21 90 51 233q-170 -244 -319 -244q-108 0 -130 113q-3 21 -3 46q0 118 93 408q62 195 62 247q0 17 -5 26q9 11 37 23q35 14 74 14q29 0 56 -13q21 -15 21 -56
q0 -71 -71 -274q-69 -204 -69 -271q0 -54 36 -54q15 0 36 8q106 54 238 336q29 65 55.5 143t57.5 148q47 89 141 89q41 0 66 -12q18 -8 18 -17q0 -3 -2 -6q-57 -80 -106 -257t-99 -403q-33 -148 -70 -299q97 16 189 42q26 7 48 7t51 -10.5t43 -32.5q5 -8 5 -15
q0 -11 -15 -18q-166 -65 -354 -98q-49 -177 -111 -320t-150 -234.5t-213 -111.5q-23 -3 -45 -3zM0 -588q85 0 185 103t169 376q-189 -9 -302 -69t-160 -141q-40 -69 -40 -130q0 -11 4.5 -51t56.5 -68q44 -20 87 -20z" />
    <glyph glyph-name="z" unicode="z" horiz-adv-x="831" 
d="M-57 -145q-72 0 -119 35q-43 31 -43 78q0 130 277 284q197 110 433 203q-31 7 -63 7q-75 0 -207 -52q-106 -41 -154 -41q-46 0 -61 28q-14 23 -14 60q0 19 2 33q2 9 10 14.5t14 5.5q81 6 202.5 56t235 114t170.5 114q32 27 32 42q0 16 -33 16q-57 0 -238 -59
q-77 -23 -129 -23q-30 0 -72 15.5t-42 66.5q0 42 41 72q6 -3 17 -3q33 0 178 35q92 22 193 42q111 22 193 22q75 0 111 -29q16 -15 16 -36q0 -120 -454 -393l28 1q100 0 165 -39l11 -13q119 52 215 129q41 34 81 34q28 0 44 -11q11 -8 11 -17q0 -5 -4 -10q-78 -77 -162 -133
t-142 -82v-15q-15 -99 -129 -213q-62 -63 -170 -144q-258 -194 -444 -194zM-47 -5q125 0 329 119q169 100 243 240q-172 -70 -322 -143q-292 -145 -292 -197q0 -19 42 -19z" />
    <glyph glyph-name="braceleft" unicode="{" horiz-adv-x="860" 
d="M381 -259q-24 0 -59.5 13t-64.5 48q-66 87 -94 210q-43 184 -43 387q0 70 5 141q-26 32 -61 87q-69 109 -69 139q0 28 30 45q57 32 156 80q71 293 229 531q133 202 250 202q65 0 118 -100q0 -1 1 -1q5 -9 6 -16q0 -11 -24 -16q-115 -28 -210.5 -137.5t-161.5 -251.5
t-92 -267q-13 -44 -90 -87q-41 -26 -41 -37q0 -14 27 -46q49 -58 50 -94q0 -21 -4 -53q-6 -61 -6 -165q2 -113 46 -260q67 -229 175 -229q23 0 23 -21q0 -9 -4 -23q-18 -79 -92 -79z" />
    <glyph glyph-name="bar" unicode="|" horiz-adv-x="312" 
d="M127 -218q-64 0 -66 88q26 344 44 1236l11 448q2 19 24 37q37 30 71 30q29 0 29 -14l-39 -1333q-12 -386 -12 -444l1 -8q0 -11 -7 -18q-22 -22 -56 -22z" />
    <glyph glyph-name="braceright" unicode="}" horiz-adv-x="901" 
d="M224 -294q-63 0 -115 104l-1 2q-5 9 -6 17q0 12 23 17q112 28 204.5 142t156.5 262.5t89 278.5q8 30 34 52.5t53 39.5q40 26 40 38q0 13 -26 47q-19 24 -38 59q-10 18 -10 49q0 20 3 46q6 64 6 119q0 14 -0.5 53t-10.5 116q-8 62 -33 155.5t-68 166.5t-104 73h-2
q-18 0 -18 23q0 9 3 23q18 82 91 82q22 0 56.5 -14t62.5 -51q64 -90 92 -218q41 -191 41 -404q0 -72 -5 -147q49 -64 104 -155q14 -23 14 -41q0 -27 -29 -53q-76 -80 -143 -117q-70 -308 -222 -554q-131 -211 -242 -211z" />
    <glyph glyph-name="asciitilde" unicode="~" horiz-adv-x="835" 
d="M647 736h-42q-57 0 -104 8q-16 3 -28 4l-59 9q-105 17 -166 17q-54 0 -129 -19q-22 -7 -28 -7q-16 0 -16 14q0 16 20 58q47 98 107 99h42q56 0 103 -8l72 -10q117 -18 193 -18q73 0 141 20q6 2 10 2q11 0 11 -13q0 -27 -33 -82q-44 -73 -94 -74z" />
    <glyph glyph-name="cent" unicode="&#xa2;" horiz-adv-x="1009" 
d="M316 -286h-2q-7 0 -16 7q-21 18 -25 35.5t-4 42.5q0 92 41 294l-24 -1q-18 0 -35 2q-240 39 -240 257q0 40 18.5 126.5t103 219.5t203 237t249.5 146q74 210 144 348q76 151 126 151q18 0 48 -19t48 -49q10 -15 10 -30t-10 -30q-109 -148 -204 -355q116 -16 161 -94
q18 -30 18 -69q0 -37 -16 -81q-39 -96 -112 -147q-79 -56 -144 -56q-49 0 -51 41l23 24q23 24 51 58q65 79 65 145q0 7 -3 29.5t-30 22.5l-18 -1q-135 -332 -232 -690q150 63 303 187.5t219 197.5q14 14 45 22q36 8 74 8q55 0 55 -15q0 -3 -2 -7q-126 -159 -334 -322.5
t-403 -232.5q-52 -205 -87 -383q-4 -17 -13 -19zM346 257q67 287 164 595q-96 -92 -173 -211t-96 -223q-4 -20 -4 -38q0 -75 63 -111q21 -11 46 -12z" />
    <glyph glyph-name="sterling" unicode="&#xa3;" horiz-adv-x="1101" 
d="M801 -141q-104 0 -360 97q-304 116 -455 116q-58 0 -110 -13q-11 33 -11 58q0 83 125 83q16 0 35 -2q-5 9 -5 26q0 44 29 144q42 142 147 291h-7q-106 0 -190 -31l-5 -1q-18 0 -18 50q0 130 78 148q41 9 85 9q48 0 118 -9q5 0 10 -1q4 84 15 168l2 27q15 105 67.5 217.5
t93.5 163.5q80 99 182.5 147.5t154 49.5t55.5 1q93 0 160 -41q101 -68 108 -128.5t7 -79.5q0 -80 -43 -147q-54 -82 -153 -90h-4q-37 0 -37 22q0 14 15 37q33 55 33 110q0 21 -5 42q-21 89 -120 89q-148 0 -248 -163q-70 -118 -87.5 -225.5t-17.5 -182.5l1 -35q70 -7 138 -7
q119 0 200 30l5 1q18 0 18 -53q0 -127 -77 -144q-40 -9 -82 -9q-57 0 -122 8l-94 10l-31 2q-108 -113 -191 -337l-10 -31q-21 -70 -27 -100q106 -22 220 -53q251 -69 358 -69q17 0 32 1q76 5 109 53q8 8 17 8q12 0 24 -15q30 -39 30 -99q0 -99 -92 -133q-32 -10 -70 -10z
" />
    <glyph glyph-name="yen" unicode="&#xa5;" horiz-adv-x="1147" 
d="M284 -370q-98 0 -170 47q-100 73 -108.5 135.5t-8.5 82.5q0 79 42 144q53 81 154 90h4q38 0 38 -23q0 -15 -16 -40q-30 -55 -30 -109q0 -27 7 -53q27 -94 125 -94q126 0 222 132q-67 -1 -120 -22h-3q-13 0 -13 38q0 35 14 72q19 34 53.5 35t47.5 1q42 0 80 -6l10 -1
q17 38 33 78l-28 1q-71 0 -130 -21l-4 -1q-12 0 -12 35q0 38 14 75q19 34 51 35t39 1q39 0 112 -8q27 86 50 173l80 89q-89 -73 -202 -140t-202 -88.5t-143 -21.5q-66 0 -130 20q-107 39 -120.5 104.5t-13.5 106.5q0 123 99 400q88 243 88 342q0 55 -21 93q-4 8 -4 14
q0 22 43 30q21 4 37 4q110 0 127 -59q16 -55 16 -97q0 -110 -85 -363q-78 -236 -78 -326q0 -33 8 -59q16 -58 94 -58h10q151 13 250.5 91.5t160.5 196t97 247t59 242.5t46 182q25 66 75.5 103t76 37.5t28.5 0.5q44 0 65 -36q-74 -241 -138 -541q-40 -177 -85 -357t-102 -347
h24q75 0 136 22h3q13 0 13 -38q0 -35 -14 -72q-19 -33 -54 -34.5t-47 -1.5q-43 0 -80 5l-24 3q-16 -40 -34 -78l38 -2q74 0 135 22l3 1q13 0 13 -35q0 -41 -15 -76q-19 -34 -53.5 -34.5t-46.5 -0.5q-43 0 -80 5q-19 2 -51 5q-15 -28 -31 -54q-73 -114 -182 -175.5t-170 -65
t-72 -3.5z" />
    <glyph glyph-name="plusminus" unicode="&#xb1;" horiz-adv-x="1301" 
d="M880 41q-73 0 -152 9q-27 3 -46 4l-72 7q-168 18 -304 18q-131 0 -237 -33l-6 -1q-22 0 -22 57t25 111q33 55 180 55q58 0 145 -9q27 -3 46 -4l72 -7q180 -18 304 -18q131 0 236 33l6 1q23 0 23 -53q0 -63 -26 -115q-31 -55 -172 -55zM577 387q-107 0 -107 92l28 195
q16 110 29 207q-109 8 -215 8q-21 0 -94.5 -0.5t-175.5 -24.5l-6 -1q-28 0 -28 50q0 54 30 103q37 48 193 48q73 0 198 -11q66 -5 118 -10q21 167 35 396q22 74 116 74q54 0 87 -22q6 -5 7 -12l-1 -14q-26 -129 -66 -436q121 -10 239 -10q12 0 82.5 0.5t175.5 25.5l6 1
q28 0 28 -52q0 -54 -31 -102q-35 -47 -193 -47q-84 0 -197 11q-33 3 -56 4l-73 6q-18 -177 -24 -371q-1 -24 -1 -58v-6q0 -12 -13 -22q-35 -22 -91 -22z" />
    <glyph glyph-name="mu" unicode="&#xb5;" horiz-adv-x="1326" 
d="M-22 -382q-2 0 -10.5 2.5t-21.5 16.5t-15 23q-5 17 -5 43q0 147 114 532q75 262 175.5 528.5t198.5 452.5t170 205l7 1q37 0 86 -41q34 -29 34 -57q0 -14 -11 -27q-72 -83 -159.5 -232.5t-152.5 -304t-68 -248.5q3 -107 84 -133q20 -6 43 -6q196 0 500 335
q51 184 133 377.5t165 336.5q21 30 50 30q57 0 99 -65q16 -24 16 -49q0 -21 -12 -42q-68 -106 -139.5 -255t-112.5 -301q-26 -99 -26 -183q0 -45 14.5 -124t131.5 -121q19 -5 19 -9t-8 -10q-29 -25 -99 -56q-46 -21 -94 -21q-23 0 -46 5q-67 22 -98 81t-34 130l27 81
l-35 -53q-287 -246 -506 -246q-127 0 -205 88q-121 -353 -194 -665q-4 -19 -15 -19z" />
    <glyph glyph-name="paragraph" unicode="&#xb6;" horiz-adv-x="1024" 
d="M929 1435v-70h-127v-1365h-82v1365h-166v-1365h-84v738q-174 8 -275.5 102.5t-101.5 245.5q0 157 107.5 253t285.5 96h443z" />
    <glyph glyph-name="Agrave" unicode="&#xc0;" horiz-adv-x="1301" 
d="M1056 -209q-37 0 -75 14q-69 27 -120 135q-53 125 -61 245.5t-8 189.5q0 112 11 230q22 16 65 42q-142 -22 -283 -55q-67 -15 -131 -28q-72 -125 -140 -232q-132 -204 -252 -204q-35 0 -63 18q-22 13 -31 25.5t-9 16.5q108 134 244 347q-72 2 -122 29q-77 48 -78.5 96
t-1.5 52q0 89 74 181q4 6 8 6q7 0 9 -6q50 -117 264 -121q128 202 260 389q299 424 493 458q90 0 123 -46q-64 -129 -119 -326.5t-83 -418.5l27 1q209 0 209 -118q0 -36 -18 -85q-2 -6 -11 -6q-4 0 -10 3q-85 36 -191 36h-21q-3 -54 -3 -106q0 -306 97 -477
q60 -107 169 -149q-1 -25 -46 -64.5t-94.5 -55.5t-81.5 -16zM580 783l248 29q53 332 120 508q-180 -216 -310 -435q-21 -35 -58 -102z" />
    <glyph glyph-name="Aacute" unicode="&#xc1;" horiz-adv-x="1296" 
d="M1056 -209q-37 0 -75 14q-69 27 -120 135q-53 125 -61 245.5t-8 189.5q0 112 11 230q22 16 65 42q-142 -22 -283 -55q-67 -15 -131 -28q-72 -125 -140 -232q-55 -85 -103 -130.5t-85 -59.5t-64 -14q-35 0 -63 18q-22 13 -31 25.5t-9 16.5v1q108 133 244 346
q-72 2 -122 29q-77 48 -78.5 96t-1.5 52q0 89 74 181q4 6 8 6q7 0 9 -6q50 -117 264 -121q128 202 260 389t258 313t235 145h15q14 0 34.5 -4t40.5 -14t33 -28q-64 -129 -119 -326.5t-83 -418.5l27 1q209 0 209 -118q0 -36 -18 -85q-2 -6 -11 -6q-4 0 -10 3q-85 36 -191 36
h-21q-3 -54 -3 -106q0 -306 97 -477q60 -107 169 -149q-1 -25 -46 -64.5t-94.5 -55.5t-81.5 -16zM580 783l248 29q53 332 120 508q-180 -216 -310 -435q-21 -35 -58 -102z" />
    <glyph glyph-name="Acircumflex" unicode="&#xc2;" horiz-adv-x="1306" 
d="M1056 -209q-37 0 -75 14q-69 27 -120 135q-53 125 -61 245.5t-8 189.5q0 112 11 230q22 16 65 42q-142 -22 -283 -55q-67 -15 -131 -28q-72 -125 -140 -232q-132 -204 -252 -204q-35 0 -63 18q-22 13 -31 25.5t-9 16.5q108 134 244 347q-72 2 -122 29q-77 48 -78.5 96
t-1.5 52q0 89 74 181q4 6 8 6q7 0 9 -6q50 -117 264 -121q128 202 260 389q299 424 493 458q90 0 123 -46q-64 -129 -119 -326.5t-83 -418.5l27 1q209 0 209 -118q0 -36 -18 -85q-2 -6 -11 -6q-4 0 -10 3q-85 36 -191 36h-21q-3 -54 -3 -106q0 -306 97 -477
q60 -107 169 -149q-1 -25 -46 -64.5t-94.5 -55.5t-81.5 -16zM580 783l248 29q53 332 120 508q-180 -216 -310 -435q-21 -35 -58 -102z" />
    <glyph glyph-name="Atilde" unicode="&#xc3;" horiz-adv-x="1301" 
d="M1056 -209q-37 0 -75 14q-69 27 -120 135q-53 125 -61 245.5t-8 189.5q0 112 11 230q22 16 65 42q-142 -22 -283 -55q-67 -15 -131 -28q-72 -125 -140 -232q-55 -85 -103 -130.5t-85 -59.5t-64 -14q-35 0 -63 18q-22 13 -31 25.5t-9 16.5v1q108 133 244 346
q-72 2 -122 29q-77 48 -78.5 96t-1.5 52q0 89 74 181q4 6 8 6q7 0 9 -6q50 -117 264 -121q128 202 260 389t258 313t235 145h15q14 0 34.5 -4t40.5 -14t33 -28q-64 -129 -119 -326.5t-83 -418.5l27 1q209 0 209 -118q0 -36 -18 -85q-2 -6 -11 -6q-4 0 -10 3q-85 36 -191 36
h-21q-3 -54 -3 -106q0 -306 97 -477q60 -107 169 -149q-1 -25 -46 -64.5t-94.5 -55.5t-81.5 -16zM580 783l248 29q53 332 120 508q-180 -216 -310 -435q-21 -35 -58 -102z" />
    <glyph glyph-name="Adieresis" unicode="&#xc4;" horiz-adv-x="1306" 
d="M1056 -209q-37 0 -75 14q-69 27 -120 135q-53 125 -61 245.5t-8 189.5q0 112 11 230q22 16 65 42q-142 -22 -283 -55q-67 -15 -131 -28q-72 -125 -140 -232q-132 -204 -252 -204q-35 0 -63 18q-22 13 -31 25.5t-9 16.5q108 134 244 347q-72 2 -122 29q-77 48 -78.5 96
t-1.5 52q0 89 74 181q4 6 8 6q7 0 9 -6q50 -117 264 -121q128 202 260 389q299 424 493 458q90 0 123 -46q-64 -129 -119 -326.5t-83 -418.5l27 1q209 0 209 -118q0 -36 -18 -85q-2 -6 -11 -6q-4 0 -10 3q-85 36 -191 36h-21q-3 -54 -3 -106q0 -306 97 -477
q60 -107 169 -149q-1 -25 -46 -64.5t-94.5 -55.5t-81.5 -16zM580 783l248 29q53 332 120 508q-180 -216 -310 -435q-21 -35 -58 -102zM1025 1696q-23 0 -47 9q-36 19 -36 63v23q0 23 33.5 62t94.5 39q78 -10 78 -75q0 -32 -21 -64q-39 -57 -102 -57zM1325 1696q-23 0 -46 9
q-37 19 -37 63v23q0 23 33.5 62t94.5 39q78 -10 78 -75q0 -32 -21 -64q-39 -57 -102 -57z" />
    <glyph glyph-name="Aring" unicode="&#xc5;" horiz-adv-x="1306" 
d="M1051 -211q-37 0 -75 14q-69 27 -120 135q-53 125 -61 246t-8 189q0 112 11 230q22 16 65 42q-142 -22 -283 -55l-131 -28q-72 -125 -140 -232q-132 -204 -253 -204q-34 0 -63 18q-21 13 -30 25.5t-9 17.5q108 133 244 346q-72 2 -122 29q-77 48 -78.5 96.5t-1.5 51.5
q0 89 74 181q4 6 8 6q7 0 9 -6q50 -116 264 -121q128 202 260 389q256 364 435 441q-6 4 -12 10q-38 40 -38 86q0 67 59 123q48 44 114 50q96 0 124 -66q12 -27 12 -55q0 -40 -24 -83q-26 -46 -82 -68q17 -11 28 -26q-64 -129 -119 -326.5t-83 -418.5l27 1q209 0 209 -118
q0 -36 -18 -85q-2 -5 -11 -5q-4 0 -10 2q-85 37 -191 37l-21 -1q-3 -54 -3 -106q0 -306 96 -477q61 -107 170 -149q-1 -25 -46 -64.5t-94.5 -55.5t-81.5 -16zM575 782l247 28q54 332 121 509q-180 -216 -310 -436q-21 -35 -58 -101zM1140 1665q19 0 38 14q35 29 35 67
q0 16 -10 29t-24 13q-31 0 -63 -39q-20 -26 -20 -50q0 -31 44 -34z" />
    <glyph glyph-name="AE" unicode="&#xc6;" horiz-adv-x="1990" 
d="M1113 793l5 4q-83 78 -94 184q-18 -82 -32 -165q75 -1 121 -23zM558 774q61 7 121.5 15t117.5 15q66 330 139 505q-183 -216 -318 -436q-22 -34 -60 -99zM969 -221q-36 0 -72 15q-66 27 -109 135q-46 124 -47.5 220.5t-1.5 113.5q0 159 24 331q25 18 74 47
q-151 -21 -305 -61l-104 -23q-172 -291 -252 -366t-145 -75q-35 0 -62 19q-20 13 -28 25.5t-8 16.5v1q110 132 251 345q-71 1 -119 30q-67 47 -67 135q0 103 89 208q16 -75 84 -105t170 -31q133 202 268 389q310 426 495 459q22 0 47 -5q48 -10 70 -42q-73 -139 -139 -354
q85 154 231 269t309.5 181.5t238.5 70.5t87 4q121 0 185 -58q43 -40 43 -112q0 -43 -15 -97q-41 -125 -123.5 -225t-161.5 -142.5t-134 -42.5q-26 0 -50 8q-76 23 -102 145l31 13q107 40 202 105q160 117 207 186l1 -65q19 54 19 89q0 30 -14 46q-24 28 -72 28
q-65 0 -161 -38q-193 -79 -356 -213q-114 -94 -166 -177t-52 -141q0 -33 13 -63q35 -85 219 -128q16 -6 16 -28q0 -35 -29 -75q-23 -32 -58 -37q-151 -16 -244 -99l-3 -7l-4 2q-125 -116 -125 -259q0 -41 14 -78q26 -76 83 -91.5t88 -15.5q207 0 555 288l4 2q10 7 19 7
q14 0 14 -23q0 -24 -13 -68q-24 -66 -135.5 -166t-251.5 -172.5t-257 -72.5h-18q32 -26 72 -41q-3 -25 -48 -65t-93 -56t-78 -16z" />
    <glyph glyph-name="Ccedilla" unicode="&#xc7;" horiz-adv-x="1162" 
d="M293 -412q-33 0 -67 17.5t-39 50.5q0 22 15 38q23 24 37 24q16 0 22 -20q6 -26 41 -26q50 0 84 35q30 29 30 59q0 41 -53 41q-37 0 -72 -12q-12 -3 -16 -3q-15 0 -24 11q0 1 -1 1q-15 13 -15 27q0 21 26 73q-80 9 -148 63q-103 90 -105 175.5t-2 94.5q0 155 67 343
q71 197 193.5 392t273.5 349.5t281 219t225 64.5q48 0 93 -13q116 -38 143 -109.5t27 -115.5q0 -205 -256 -346q-63 -30 -91 -31.5t-33 -1.5q-42 0 -64 13q-16 9 -16 19q0 5 3 10q88 50 153 130t94.5 151t29.5 116l-1 17l37 -13q-50 47 -110 47q-41 0 -87 -22
q-113 -56 -234.5 -194t-229 -305.5t-179 -312t-86.5 -212.5q-18 -94 -18 -160q0 -78 24 -119q37 -64 107 -64q97 0 235 93q145 103 266 233.5t176 211.5q20 27 61 27q32 0 32 -20q-32 -97 -113 -216t-193 -232t-237.5 -190.5t-195.5 -85.5l-28 -4l-16 -24q100 -5 133 -76
q10 -24 10 -50q0 -48 -33 -93q-58 -75 -156 -75z" />
    <glyph glyph-name="Egrave" unicode="&#xc8;" horiz-adv-x="1106" 
d="M301 -208q-33 0 -64 6q-197 48 -249 155t-52 189q0 77 31 162q64 176 265 328q-52 44 -81 103.5t-29 115.5q0 39 10 83q53 176 195.5 311.5t320.5 218t275 92.5t127 10q115 0 185 -49q62 -44 62 -133q0 -38 -11 -83q-36 -123 -114.5 -221.5t-160 -144t-143.5 -45.5
q-21 0 -42 5q-79 18 -117 128q-1 4 -1 9q0 14 19 21q109 34 213 109q161 116 207 185l4 -65q15 49 15 82q0 36 -17 54q-25 28 -74 28q-68 0 -167 -39q-192 -74 -360 -213q-115 -94 -163.5 -175t-48.5 -136q0 -36 16 -70q41 -85 234 -128q18 -5 18 -31q0 -34 -26 -72
q-23 -32 -59 -37q-175 -19 -269.5 -117.5t-99.5 -162t-5 -75.5q0 -95 71 -154q47 -38 126 -38q55 0 127 19q173 47 443 268l4 3q3 2 8 4t10 2t9.5 -4t5.5 -11.5t1 -14.5q0 -21 -10 -61q-16 -50 -90 -125t-181 -146.5t-203 -105.5t-165 -34z" />
    <glyph glyph-name="Eacute" unicode="&#xc9;" horiz-adv-x="1101" 
d="M301 -208q-33 0 -64 6q-197 48 -249 155t-52 189q0 77 31 162q64 176 265 328q-52 44 -81 103.5t-29 115.5q0 39 10 83q53 176 195.5 311.5t320.5 218t275 92.5t127 10q115 0 185 -49q62 -44 62 -133q0 -38 -11 -83q-36 -123 -114.5 -221.5t-160 -144t-143.5 -45.5
q-21 0 -42 5q-79 18 -117 128q-1 4 -1 9q0 14 19 21q109 34 213 109q161 116 207 185l4 -65q15 49 15 82q0 36 -17 54q-25 28 -74 28q-68 0 -167 -39q-192 -74 -360 -213q-115 -94 -163.5 -175t-48.5 -136q0 -36 16 -70q41 -85 234 -128q18 -5 18 -31q0 -34 -26 -72
q-23 -32 -59 -37q-175 -19 -269.5 -117.5t-99.5 -162t-5 -75.5q0 -95 71 -154q47 -38 126 -38q55 0 127 19q173 47 443 268l4 3q3 2 8 4t10 2t9.5 -4t5.5 -11.5t1 -14.5q0 -21 -10 -61q-16 -50 -90 -125t-181 -146.5t-203 -105.5t-165 -34z" />
    <glyph glyph-name="Ecircumflex" unicode="&#xca;" horiz-adv-x="1106" 
d="M301 -208q-33 0 -64 6q-197 48 -249 155t-52 189q0 77 31 162q64 176 265 328q-52 44 -81 103.5t-29 115.5q0 39 10 83q53 176 195.5 311.5t320.5 218t275 92.5t127 10q115 0 185 -49q62 -44 62 -133q0 -38 -11 -83q-36 -123 -114.5 -221.5t-160 -144t-143.5 -45.5
q-21 0 -42 5q-79 18 -117 128q-1 4 -1 9q0 14 19 21q109 34 213 109q161 116 207 185l4 -65q15 49 15 82q0 36 -17 54q-25 28 -74 28q-68 0 -167 -39q-192 -74 -360 -213q-115 -94 -163.5 -175t-48.5 -136q0 -36 16 -70q41 -85 234 -128q18 -5 18 -31q0 -34 -26 -72
q-23 -32 -59 -37q-175 -19 -269.5 -117.5t-99.5 -162t-5 -75.5q0 -95 71 -154q47 -38 126 -38q55 0 127 19q173 47 443 268l4 3q3 2 8 4t10 2t9.5 -4t5.5 -11.5t1 -14.5q0 -21 -10 -61q-16 -50 -90 -125t-181 -146.5t-203 -105.5t-165 -34z" />
    <glyph glyph-name="Edieresis" unicode="&#xcb;" horiz-adv-x="1151" 
d="M301 -208q-33 0 -64 6q-197 48 -249 155t-52 189q0 77 31 162q64 176 265 328q-52 44 -81 103.5t-29 115.5q0 39 10 83q53 176 195.5 311.5t320.5 218t275 92.5t127 10q115 0 185 -49q62 -44 62 -133q0 -38 -11 -83q-36 -123 -114.5 -221.5t-160 -144t-143.5 -45.5
q-21 0 -42 5q-79 18 -117 128q-1 4 -1 9q0 14 19 21q109 34 213 109q161 116 207 185l4 -65q15 49 15 82q0 36 -17 54q-25 28 -74 28q-68 0 -167 -39q-192 -74 -360 -213q-115 -94 -163.5 -175t-48.5 -136q0 -36 16 -70q41 -85 234 -128q18 -5 18 -31q0 -34 -26 -72
q-23 -32 -59 -37q-175 -19 -269.5 -117.5t-99.5 -162t-5 -75.5q0 -95 71 -154q47 -38 126 -38q55 0 127 19q173 47 443 268l4 3q3 2 8 4t10 2t9.5 -4t5.5 -11.5t1 -14.5q0 -21 -10 -61q-16 -50 -90 -125t-181 -146.5t-203 -105.5t-165 -34zM856 1696q-23 0 -47 9
q-36 19 -36 63v23q0 23 33.5 62t94.5 39q78 -10 78 -75q0 -32 -21 -64q-39 -57 -102 -57zM1156 1696q-23 0 -46 9q-37 19 -37 63v23q0 23 33.5 62t94.5 39q78 -10 78 -75q0 -32 -21 -64q-39 -57 -102 -57z" />
    <glyph glyph-name="Igrave" unicode="&#xcc;" horiz-adv-x="799" 
d="M-67 -221q-118 0 -118 94q0 28 9 66q50 -23 109 -23q69 0 153 23l2 17q23 62 89 259q178 536 254 888q32 145 32 224q0 31 -5 52q-42 4 -79 4q-53 0 -113 -11t-90 -72q-4 -6 -8 -6q-7 0 -18.5 18.5t-19.5 61.5q-3 17 -3 35q0 26 9.5 62t55.5 65q47 25 115 25
q78 0 227 -31q169 -37 272 -37q87 0 160 29q5 2 9 2l6 -1q9 -5 9 -48q0 -49 -37 -81q-49 -42 -178 -42q-94 0 -221 23h-4l17 -6q17 -6 43 -23q42 -35 42 -97q0 -68 -20 -125q-33 -113 -92 -323q-166 -599 -235 -788q137 51 207 51q42 0 73 -17q61 -39 61 -131
q0 -70 -27 -119q-9 -17 -16 -17q-4 0 -7 7q-26 60 -91 73q-32 7 -69 7q-81 0 -266 -46q-164 -42 -237 -42z" />
    <glyph glyph-name="Iacute" unicode="&#xcd;" horiz-adv-x="799" 
d="M-67 -221q-118 0 -118 94q0 28 9 66q50 -23 109 -23q69 0 153 23l2 17q23 62 89 259q178 536 254 888q32 145 32 224q0 31 -5 52q-42 4 -79 4q-53 0 -113 -11t-90 -72q-4 -6 -8 -6q-7 0 -18.5 18.5t-19.5 61.5q-3 17 -3 35q0 26 9.5 62t55.5 65q47 25 115 25
q78 0 227 -31q169 -37 272 -37q87 0 160 29q5 2 9 2l6 -1q9 -5 9 -48q0 -49 -37 -81q-49 -42 -178 -42q-94 0 -221 23h-4l17 -6q17 -6 43 -23q42 -35 42 -97q0 -68 -20 -125q-33 -113 -92 -323q-166 -599 -235 -788q137 51 207 51q42 0 73 -17q61 -39 61 -131
q0 -70 -27 -119q-9 -17 -16 -17q-4 0 -7 7q-26 60 -91 73q-32 7 -69 7q-81 0 -266 -46q-164 -42 -237 -42z" />
    <glyph glyph-name="Icircumflex" unicode="&#xce;" horiz-adv-x="799" 
d="M-67 -221q-118 0 -118 94q0 28 9 66q50 -23 109 -23q69 0 153 23l2 17q23 62 89 259q178 536 254 888q32 145 32 224q0 31 -5 52q-42 4 -79 4q-53 0 -113 -11t-90 -72q-4 -6 -8 -6q-7 0 -18.5 18.5t-19.5 61.5q-3 17 -3 35q0 26 9.5 62t55.5 65q47 25 115 25
q78 0 227 -31q169 -37 272 -37q87 0 160 29q5 2 9 2l6 -1q9 -5 9 -48q0 -123 -215 -123q-94 0 -221 23h-4q34 -12 60 -29q42 -35 42 -97q0 -68 -20 -125q-33 -113 -92 -323q-166 -599 -235 -788q137 51 207 51q42 0 73 -17q61 -39 61 -131q0 -70 -27 -119q-9 -17 -16 -17
q-4 0 -7 7q-26 60 -91 73q-32 7 -69 7q-81 0 -266 -46q-164 -42 -237 -42z" />
    <glyph glyph-name="Idieresis" unicode="&#xcf;" horiz-adv-x="804" 
d="M-67 -221q-118 0 -118 94q0 28 9 66q50 -23 109 -23q69 0 153 23l2 17q23 62 89 259q178 536 254 888q32 145 32 224q0 31 -5 52q-42 4 -79 4q-53 0 -113 -11t-90 -72q-4 -6 -8 -6q-7 0 -18.5 18.5t-19.5 61.5q-3 17 -3 35q0 26 9.5 62t55.5 65q47 25 115 25
q78 0 227 -31q169 -37 272 -37q87 0 160 29q5 2 9 2l6 -1q9 -5 9 -48q0 -49 -37 -81q-49 -42 -178 -42q-94 0 -221 23h-4l17 -6q17 -6 43 -23q42 -35 42 -97q0 -68 -20 -125q-33 -113 -92 -323q-166 -599 -235 -788q137 51 207 51q42 0 73 -17q61 -39 61 -131
q0 -70 -27 -119q-9 -17 -16 -17q-4 0 -7 7q-26 60 -91 73q-32 7 -69 7q-81 0 -266 -46q-164 -42 -237 -42zM441 1665q-23 0 -47 9q-36 19 -36 63v23q0 23 33.5 62t94.5 39q78 -10 78 -75q0 -32 -21 -64q-39 -57 -102 -57zM741 1665q-23 0 -46 9q-37 19 -37 63v23
q0 23 33.5 62t94.5 39q78 -10 78 -75q0 -32 -21 -64q-39 -57 -102 -57z" />
    <glyph glyph-name="Eth" unicode="&#xd0;" horiz-adv-x="1326" 
d="M338 -203q-102 0 -150 68q-90 0 -102 77q-2 19 -2 39q0 130 130 418q-11 -2 -26 -2q-18 0 -53 3.5t-77 38t-55 119.5q-2 14 -2 30q0 76 39.5 210.5t131 299t228 296t311.5 179.5q98 22 178 22q126 0 237 -71t149 -256q19 -86 19 -181q0 -109 -35 -284t-151 -396.5
t-290 -384t-392 -215.5q-48 -10 -88 -10zM225 424l74 162q-49 32 -49 101v5q-26 -127 -26 -237zM305 -91l1 29q1 28 6 39q183 51 332 194t254 331.5t156 379.5q40 151 40 275q0 32 -8 121t-93 148q-39 26 -93 26q-69 0 -164 -41q-162 -78 -288 -259t-186 -410l4 7
q50 2 109 11q82 187 152 397q22 14 58 14q30 0 51 -15q47 -43 47 -122q0 -11 -4.5 -65t-53.5 -180l35 1q56 0 107 -15.5t72 -67.5q10 -23 10 -55q0 -40 -16 -95q-113 35 -238 35q-27 0 -54 -2q-38 -80 -76 -159q-67 -137 -119 -257.5t-63 -203.5q14 -51 22 -61z" />
    <glyph glyph-name="Ntilde" unicode="&#xd1;" horiz-adv-x="1705" 
d="M20 -174q-16 0 -85.5 5.5t-133.5 87.5q-46 58 -46 145q0 36 8 78q27 77 80 119q75 60 158 60q62 0 62 -31q0 -5 -2 -11q-51 -73 -51 -145q0 -68 51 -99q23 -15 56 -15q43 0 104 25q117 53 237.5 214.5t226.5 369t181 400.5q105 270 105 350q0 12 -1 24v14q0 15 8 20
q26 15 59 15q87 0 106 -107q30 -213 30 -461q1 -153 11 -306t42 -294q19 84 73 235t134.5 329t178.5 343.5t206.5 278.5t218.5 133l28 1q66 0 109.5 -42.5t60.5 -84.5q3 -6 3 -12t-4 -15.5t-34 -17.5q-172 -51 -321 -220.5t-264 -394.5t-182.5 -440t-77.5 -357
q-40 -24 -90 -24l-47 4q-88 34 -139 162q-88 219 -108 632q-9 182 -9 283l-21 -125q-81 -188 -189 -413.5t-222 -392.5q-131 -177 -275 -254q-126 -66 -235 -66zM1688 1594h-33q-45 0 -81 8l-21 3l-47 9q-75 17 -130 17q-47 0 -94 -16l-5 -3q-18 -6 -24 -6q-11 0 -11 13
q0 17 15 59q36 97 83 98h33q56 0 137 -18q88 -17 154 -17q55 0 106 19q5 2 8 2q9 0 9 -13q0 -24 -26 -81q-34 -74 -73 -74z" />
    <glyph glyph-name="Ograve" unicode="&#xd2;" horiz-adv-x="1462" 
d="M379 -177l-36 1q-189 52 -269 210q-74 147 -74 340q0 14 2.5 126.5t70 320.5t172.5 360t224 194q166 217 356 217l18 -1q138 -11 210 -115q105 -155 105 -455q0 -210 -48 -413q94 13 220.5 93t194.5 151q22 23 52 23q2 0 18.5 -0.5t38.5 -16.5q20 -13 20 -28l-1 -6
q-17 -53 -104 -132.5t-220 -156.5t-288 -121q-54 -156 -154.5 -294.5t-238.5 -222.5q-123 -74 -269 -74zM985 585l-86 37q81 291 81 472q0 18 -5 120t-69 170q-43 45 -91 45q-25 0 -77.5 -23.5t-102.5 -149.5q-34 -87 -34 -211q0 -55 7 -118q10 -101 50 -166t94.5 -101.5
t107.5 -52.5t89 -19zM372 8q22 0 83 10.5t168.5 108.5t198.5 284q-150 38 -245.5 137.5t-143 231.5t-54.5 268q-108 -176 -160 -381q-44 -178 -44 -329q0 -24 5 -121t77 -167q48 -42 115 -42z" />
    <glyph glyph-name="Oacute" unicode="&#xd3;" horiz-adv-x="1465" 
d="M379 -177l-36 1q-189 52 -269 210q-74 147 -74 340q0 14 2.5 126.5t70 320.5t172.5 360t224 194q166 217 356 217l18 -1q138 -11 210 -115q105 -155 105 -455q0 -210 -48 -413q94 13 220.5 93t194.5 151q22 23 52 23q2 0 18.5 -0.5t38.5 -16.5q20 -13 20 -28l-1 -6
q-17 -53 -104 -132.5t-220 -156.5t-288 -121q-54 -156 -154.5 -294.5t-238.5 -222.5q-123 -74 -269 -74zM985 585l-86 37q81 291 81 472q0 18 -5 120t-69 170q-43 45 -91 45q-25 0 -77.5 -23.5t-102.5 -149.5q-34 -87 -34 -211q0 -55 7 -118q10 -101 50 -166t94.5 -101.5
t107.5 -52.5t89 -19zM372 8q22 0 83 10.5t168.5 108.5t198.5 284q-150 38 -245.5 137.5t-143 231.5t-54.5 268q-108 -176 -160 -381q-44 -178 -44 -329q0 -24 5 -121t77 -167q48 -42 115 -42z" />
    <glyph glyph-name="Ocircumflex" unicode="&#xd4;" horiz-adv-x="1465" 
d="M379 -177l-36 1q-189 52 -269 210q-74 147 -74 340q0 14 2.5 126.5t70 320.5t172.5 360t224 194q166 217 356 217l18 -1q138 -11 210 -115q105 -155 105 -455q0 -210 -48 -413q94 13 220.5 93t194.5 151q22 23 52 23q2 0 18.5 -0.5t38.5 -16.5q20 -13 20 -28l-1 -6
q-17 -53 -104 -132.5t-220 -156.5t-288 -121q-54 -156 -154.5 -294.5t-238.5 -222.5q-123 -74 -269 -74zM985 585l-86 37q81 291 81 472q0 18 -5 120t-69 170q-43 45 -91 45q-25 0 -77.5 -23.5t-102.5 -149.5q-34 -87 -34 -211q0 -55 7 -118q10 -101 50 -166t94.5 -101.5
t107.5 -52.5t89 -19zM372 8q22 0 83 10.5t168.5 108.5t198.5 284q-150 38 -245.5 137.5t-143 231.5t-54.5 268q-108 -176 -160 -381q-44 -178 -44 -329q0 -24 5 -121t77 -167q48 -42 115 -42z" />
    <glyph glyph-name="Otilde" unicode="&#xd5;" horiz-adv-x="1465" 
d="M379 -177l-36 1q-189 52 -269 210q-74 147 -74 340q0 14 2.5 126.5t70 320.5t172.5 360t224 194q166 217 356 217l18 -1q138 -11 210 -115q105 -155 105 -455q0 -210 -48 -413q94 13 220.5 93t194.5 151q22 23 52 23q2 0 18.5 -0.5t38.5 -16.5q20 -13 20 -28l-1 -6
q-17 -53 -104 -132.5t-220 -156.5t-288 -121q-54 -156 -154.5 -294.5t-238.5 -222.5q-123 -74 -269 -74zM985 585l-86 37q81 291 81 472q0 18 -5 120t-69 170q-43 45 -91 45q-25 0 -77.5 -23.5t-102.5 -149.5q-34 -87 -34 -211q0 -55 7 -118q10 -101 50 -166t94.5 -101.5
t107.5 -52.5t89 -19zM372 8q22 0 83 10.5t168.5 108.5t198.5 284q-150 38 -245.5 137.5t-143 231.5t-54.5 268q-108 -176 -160 -381q-44 -178 -44 -329q0 -24 5 -121t77 -167q48 -42 115 -42z" />
    <glyph glyph-name="Odieresis" unicode="&#xd6;" horiz-adv-x="1465" 
d="M708 1681q-23 0 -47 9q-36 19 -36 63v23q0 23 33.5 62t94.5 39q78 -10 78 -75q0 -32 -21 -64q-39 -57 -102 -57zM1008 1681q-23 0 -46 9q-37 19 -37 63v23q0 23 33.5 62t94.5 39q78 -10 78 -75q0 -32 -21 -64q-39 -57 -102 -57zM379 -177l-36 1q-189 52 -269 210
q-74 147 -74 340q0 14 2.5 126.5t70 320.5t172.5 360t224 194q166 217 356 217l18 -1q138 -11 210 -115q105 -155 105 -455q0 -210 -48 -413q94 13 220.5 93t194.5 151q22 23 52 23q2 0 18.5 -0.5t38.5 -16.5q20 -13 20 -28l-1 -6q-17 -53 -104 -132.5t-220 -156.5
t-288 -121q-54 -156 -154.5 -294.5t-238.5 -222.5q-123 -74 -269 -74zM985 585l-86 37q81 291 81 472q0 18 -5 120t-69 170q-43 45 -91 45q-25 0 -77.5 -23.5t-102.5 -149.5q-34 -87 -34 -211q0 -55 7 -118q10 -101 50 -166t94.5 -101.5t107.5 -52.5t89 -19zM372 8
q22 0 83 10.5t168.5 108.5t198.5 284q-150 38 -245.5 137.5t-143 231.5t-54.5 268q-108 -176 -160 -381q-44 -178 -44 -329q0 -24 5 -121t77 -167q48 -42 115 -42z" />
    <glyph glyph-name="multiply" unicode="&#xd7;" horiz-adv-x="1244" 
d="M991 195q-104 0 -328 287l-41 48l-53 66q-167 -141 -338 -307l-52 -51q-11 -15 -23 -15q-37 0 -88 44q-42 34 -55 82q-3 11 -3 22q0 38 37 77l392 306q-229 277 -401 380q-13 9 -13 22q0 10 11 30t48.5 47t82.5 39l14 1q42 0 99 -43.5t119 -113.5t110 -130l86 -106
q160 131 368 320q32 20 62 20q61 0 110 -68q34 -48 34 -74q0 -6 -5 -12.5t-59 -47.5q-136 -98 -382 -294q238 -286 410 -391q13 -8 13 -22q0 -9 -11 -28.5t-48.5 -47.5t-81.5 -39z" />
    <glyph glyph-name="Oslash" unicode="&#xd8;" horiz-adv-x="1459" 
d="M66 -248q-10 0 -20 17q-15 24 -15 43q4 58 72 202q-98 155 -98 380q0 208 65 422.5t173 374.5t231 204q166 217 356 217l18 -1q142 -11 214 -121q104 107 159 107q15 0 40 -23q21 -21 37 -50q14 -27 15 -53q0 -27 -21 -45q-76 -57 -153 -130q-222 -214 -457 -545
q14 -18 29 -33q58 -55 122 -79t111 -29l46 -5l-86 37q71 254 79 423q83 96 166 177q15 -100 15 -203q0 -211 -50 -411q95 13 221.5 93t194.5 151q22 23 52 23q2 0 18.5 -0.5t38.5 -16.5q20 -13 20 -28l-1 -6q-17 -53 -104 -132.5t-220 -156.5t-288 -121
q-54 -156 -154.5 -294.5t-238.5 -222.5q-123 -74 -269 -74l-36 1q-108 28 -175 90q-47 -86 -89 -166q-9 -16 -18 -16zM619 904q171 260 324 450q-51 96 -122 96q-12 0 -61.5 -10.5t-109.5 -140.5q-43 -93 -43 -236q0 -97 12 -159zM196 200q123 229 290 497q-93 176 -102 371
q-128 -211 -177 -455q-27 -138 -27 -252q0 -87 16 -161zM379 27q32 0 97 17.5t165 114.5t186 272q-138 34 -230 122q-16 15 -31 31q-170 -256 -312 -506q51 -51 125 -51z" />
    <glyph glyph-name="Ugrave" unicode="&#xd9;" horiz-adv-x="1424" 
d="M311 -96q-86 0 -151 47q-114 82 -137 211.5t-23 205.5q0 403 283 899q29 51 62 104q76 115 157 165t116 51t39 1q60 0 90 -26q21 -19 21 -42q0 -14 -8 -30q-193 -186 -311.5 -397t-160 -379.5t-41.5 -280.5q0 -45 5 -85q19 -141 73.5 -172.5t89.5 -31.5q190 0 491 407
q55 242 143 495q166 481 230 481q12 0 25 -6q50 -21 73.5 -66t23.5 -77q0 -27 -12 -54q-140 -268 -230 -571q-69 -237 -69 -403q0 -250 157 -318q21 -5 21 -10q0 -15 -70 -62q-79 -53 -146 -53q-25 0 -50 7q-70 29 -103 106t-38 170l30 107l-38 -69q-224 -237 -351 -280.5
t-191 -43.5z" />
    <glyph glyph-name="Uacute" unicode="&#xda;" horiz-adv-x="1434" 
d="M311 -96q-86 0 -151 47q-114 82 -137 211.5t-23 205.5q0 403 283 899q29 51 62 104q76 115 157 165t116 51t39 1q60 0 90 -26q21 -19 21 -42q0 -14 -8 -30q-193 -186 -311.5 -397t-160 -379.5t-41.5 -280.5q0 -45 5 -85q19 -141 73.5 -172.5t89.5 -31.5q190 0 491 407
q55 242 143 495q166 481 230 481q12 0 25 -6q50 -21 73.5 -66t23.5 -77q0 -27 -12 -54q-140 -268 -230 -571q-69 -237 -69 -403q0 -250 157 -318q21 -5 21 -10q0 -15 -70 -62q-79 -53 -146 -53q-25 0 -50 7q-70 29 -103 106t-38 170l30 107l-38 -69q-224 -237 -351 -280.5
t-191 -43.5z" />
    <glyph glyph-name="Ucircumflex" unicode="&#xdb;" horiz-adv-x="1434" 
d="M311 -96q-86 0 -151 47q-114 82 -137 211.5t-23 205.5q0 403 283 899q29 51 62 104q76 115 157 165t116 51t39 1q60 0 90 -26q21 -19 21 -42q0 -14 -8 -30q-193 -186 -311.5 -397t-160 -379.5t-41.5 -280.5q0 -45 5 -85q19 -141 73.5 -172.5t89.5 -31.5q190 0 491 407
q55 242 143 495q166 481 230 481q12 0 25 -6q50 -21 73.5 -66t23.5 -77q0 -27 -12 -54q-140 -268 -230 -571q-69 -237 -69 -403q0 -250 157 -318q21 -5 21 -10q0 -15 -70 -62q-79 -53 -146 -53q-25 0 -50 7q-70 29 -103 106t-38 170l30 107l-38 -69q-224 -237 -351 -280.5
t-191 -43.5z" />
    <glyph glyph-name="Udieresis" unicode="&#xdc;" horiz-adv-x="1434" 
d="M311 -96q-86 0 -151 47q-114 82 -137 211.5t-23 205.5q0 403 283 899q29 51 62 104q76 115 157 165t116 51t39 1q60 0 90 -26q21 -19 21 -42q0 -14 -8 -30q-193 -186 -311.5 -397t-160 -379.5t-41.5 -280.5q0 -45 5 -85q19 -141 73.5 -172.5t89.5 -31.5q190 0 491 407
q55 242 143 495q166 481 230 481q12 0 25 -6q50 -21 73.5 -66t23.5 -77q0 -27 -12 -54q-140 -268 -230 -571q-69 -237 -69 -403q0 -250 157 -318q21 -5 21 -10q0 -15 -70 -62q-79 -53 -146 -53q-25 0 -50 7q-70 29 -103 106t-38 170l30 107l-38 -69q-224 -237 -351 -280.5
t-191 -43.5zM876 1665q-23 0 -47 9q-36 19 -36 63v23q0 23 33.5 62t94.5 39q78 -10 78 -75q0 -32 -21 -64q-39 -57 -102 -57zM1176 1665q-23 0 -46 9q-37 19 -37 63v23q0 23 33.5 62t94.5 39q78 -10 78 -75q0 -32 -21 -64q-39 -57 -102 -57z" />
    <glyph glyph-name="Yacute" unicode="&#xdd;" horiz-adv-x="1306" 
d="M599 1508q-9 0 -18 7q-14 13 -20 31t-6 27v5q20 52 110 122t176 112.5t126 42.5q12 0 20 -3q18 -10 35 -45t17 -53v-19q0 -33 -30 -43q-116 -29 -204 -71t-189 -108q-9 -5 -17 -5zM312 -390q-105 0 -183 48q-126 86 -126 221q0 80 51.5 155t159.5 84h4q41 0 41 -24
q0 -15 -17 -40q-32 -56 -32 -111q0 -27 16 -80.5t96 -67.5l26 -1q115 0 201 85t147.5 232.5t104.5 309.5l87 90q-248 -189 -472 -240q-60 -14 -119 -14q-70 0 -139 20q-116 40 -137 137q-8 37 -8 78q0 126 107 407q95 247 95 348q0 56 -23 95q-5 8 -5 15q0 22 49 29
q21 4 38 4q119 0 144 -81q10 -34 10 -76q0 -112 -91 -370q-84 -236 -84 -331q0 -34 8 -61q18 -59 101 -59h11q163 13 271 93q186 139 278 451q38 131 62.5 246t49.5 186q28 67 83 105t111 38q49 0 71 -37q-79 -245 -149 -550q-67 -293 -155 -580t-225 -506
q-79 -116 -196 -178q-129 -70 -262 -70z" />
    <glyph glyph-name="Thorn" unicode="&#xde;" horiz-adv-x="1096" 
d="M470 346q47 0 106.5 50t119 141.5t95.5 186.5q33 86 33 149q0 5 -2 41t-61 40q-56 -1 -115.5 -64t-110.5 -153t-83 -173q-39 -99 -39 -148q0 -14 4 -36q4 -34 53 -34zM44 -269q-45 0 -101 17q-30 10 -30 21q0 12 15 29q64 86 141 358q64 226 131 494q55 215 109 411
q121 443 204 505q41 30 89 30q3 0 30.5 -0.5t70.5 -47.5l-4 -12q-44 -109 -69 -178t-49 -148t-62 -219q152 147 340 155q191 -1 191 -231q0 -8 -2 -64t-33 -158t-68 -167q-74 -129 -190 -234q-148 -133 -322 -133q-55 0 -94 17.5t-53 39.5l-11 -53q-36 -194 -61 -294
q-17 -74 -85 -116q-36 -22 -87 -22z" />
    <glyph glyph-name="germandbls" unicode="&#xdf;" horiz-adv-x="1203" 
d="M273 -187q-29 0 -131.5 8t-210.5 96q-63 55 -63 128q0 52 33.5 100.5t104.5 66.5q67 -60 116 -90q58 -36 164 -56q44 -6 86 -6q113 0 229 55.5t190 163.5q63 90 63 178q0 17 -8 78.5t-141 117.5q-32 16 -44 63q-7 24 -7 45q0 38 20 56l19 -1q74 0 155.5 59.5t152 157.5
t106.5 195q25 73 25 122q0 37 -15 61q-28 47 -92 47q-11 0 -57 -5.5t-144 -71.5q-134 -93 -211.5 -220t-137.5 -285q-72 -178 -118 -343.5t-49 -268.5q-46 -18 -84 -18q-26 0 -63 15t-42 83q1 79 50 222q66 192 123 329q53 145 144.5 294t213 260t265.5 140q70 12 129 12
q174 0 242 -95q38 -57 38 -132q0 -50 -29 -151t-142 -245.5t-265 -238.5q102 -68 141 -179q21 -61 21 -127q0 -54 -23.5 -147t-134.5 -211.5t-311 -201.5q-158 -60 -308 -60z" />
    <glyph glyph-name="agrave" unicode="&#xe0;" horiz-adv-x="973" 
d="M160 98h-9q-65 0 -102 51t-37 127q0 36 10.5 118t107.5 246q71 116 171 212q132 127 263 127q38 0 64.5 -14t33.5 -34l14 23q28 34 135 34q56 0 56 -36q0 -22 -22 -55q-18 -25 -61.5 -108t-89.5 -184t-70 -183q-14 -46 -14 -74q0 -45 40 -45q72 0 219 143q81 78 153 168
q20 20 82 20q8 0 23 -0.5t31.5 -5t17.5 -9.5l-1 -1q-32 -53 -114 -143q-210 -230 -385 -324q-71 -40 -120 -40q-24 0 -66 13t-48 147q-162 -168 -282 -173zM236 278q75 3 183 187q47 81 80 157q46 105 46 154q0 37 -29 37q-42 0 -103.5 -71.5t-119 -178t-79.5 -190.5
q-9 -32 -9 -54q0 -41 30 -41h1z" />
    <glyph glyph-name="aacute" unicode="&#xe1;" horiz-adv-x="972" 
d="M160 98h-9q-65 0 -102 51t-37 127q0 36 10.5 118t107.5 246q71 116 171 212q132 127 263 127q38 0 64.5 -14t33.5 -34l14 23q28 34 135 34q56 0 56 -36q0 -22 -22 -55q-18 -25 -61.5 -108t-89.5 -184t-70 -183q-14 -46 -14 -74q0 -45 40 -45q72 0 219 143q81 78 153 168
q20 20 82 20q8 0 23 -0.5t31.5 -5t17.5 -9.5l-1 -1q-32 -53 -114 -143q-210 -230 -385 -324q-71 -40 -120 -40q-24 0 -66 13t-48 147q-162 -168 -282 -173zM236 278q75 3 183 187q47 81 80 157q46 105 46 154q0 37 -29 37q-42 0 -103.5 -71.5t-119 -178t-79.5 -190.5
q-9 -32 -9 -54q0 -41 30 -41h1z" />
    <glyph glyph-name="acircumflex" unicode="&#xe2;" horiz-adv-x="972" 
d="M160 98h-9q-65 0 -102 51t-37 127q0 36 10.5 118t107.5 246q71 116 171 212q132 127 263 127q38 0 64.5 -14t33.5 -34l14 23q28 34 135 34q56 0 56 -36q0 -22 -22 -55q-18 -25 -61.5 -108t-89.5 -184t-70 -183q-14 -46 -14 -74q0 -45 40 -45q72 0 219 143q81 78 153 168
q20 20 82 20q8 0 23 -0.5t31.5 -5t17.5 -9.5l-1 -1q-32 -53 -114 -143q-210 -230 -385 -324q-71 -40 -120 -40q-24 0 -66 13t-48 147q-162 -168 -282 -173zM236 278q75 3 183 187q47 81 80 157q46 105 46 154q0 37 -29 37q-42 0 -103.5 -71.5t-119 -178t-79.5 -190.5
q-9 -32 -9 -54q0 -41 30 -41h1z" />
    <glyph glyph-name="atilde" unicode="&#xe3;" horiz-adv-x="972" 
d="M160 98h-9q-65 0 -102 51t-37 127q0 36 10.5 118t107.5 246q71 116 171 212q132 127 263 127q38 0 64.5 -14t33.5 -34l14 23q28 34 135 34q56 0 56 -36q0 -22 -22 -55q-18 -25 -61.5 -108t-89.5 -184t-70 -183q-14 -46 -14 -74q0 -45 40 -45q72 0 219 143q81 78 153 168
q20 20 82 20q8 0 23 -0.5t31.5 -5t17.5 -9.5l-1 -1q-32 -53 -114 -143q-210 -230 -385 -324q-71 -40 -120 -40q-24 0 -66 13t-48 147q-162 -168 -282 -173zM236 278q75 3 183 187q47 81 80 157q46 105 46 154q0 37 -29 37q-42 0 -103.5 -71.5t-119 -178t-79.5 -190.5
q-9 -32 -9 -54q0 -41 30 -41h1z" />
    <glyph glyph-name="adieresis" unicode="&#xe4;" horiz-adv-x="972" 
d="M510 1148q-22 0 -45 9q-35 18 -35 60v22q0 23 32 60.5t91 37.5q75 -10 75 -73q0 -30 -20 -61q-37 -55 -98 -55zM799 1148q-23 0 -45 9q-35 18 -35 60v22q0 23 32 60.5t91 37.5q75 -10 75 -73q0 -30 -20 -61q-38 -55 -98 -55zM160 98h-9q-65 0 -102 51t-37 127
q0 36 10.5 118t107.5 246q71 116 171 212q132 127 263 127q38 0 64.5 -14t33.5 -34l14 23q28 34 135 34q56 0 56 -36q0 -22 -22 -55q-18 -25 -61.5 -108t-89.5 -184t-70 -183q-14 -46 -14 -74q0 -45 40 -45q72 0 219 143q81 78 153 168q20 20 82 20q8 0 23 -0.5t31.5 -5
t17.5 -9.5l-1 -1q-32 -53 -114 -143q-210 -230 -385 -324q-71 -40 -120 -40q-24 0 -66 13t-48 147q-162 -168 -282 -173zM236 278q75 3 183 187q47 81 80 157q46 105 46 154q0 37 -29 37q-42 0 -103.5 -71.5t-119 -178t-79.5 -190.5q-9 -32 -9 -54q0 -41 30 -41h1z" />
    <glyph glyph-name="aring" unicode="&#xe5;" horiz-adv-x="976" 
d="M556 1054q19 1 38 18.5t27 46.5q3 11 3 20q-1 15 -11 27t-24 12q-32 0 -63 -41q-17 -26 -17 -49q0 -27 38 -34h9zM247 278q38 2 86 56t94 135.5t78 157.5q44 105 44 156q0 36 -28 36q-43 0 -103.5 -72.5t-116.5 -180.5q-85 -161 -85 -246q0 -42 28 -42h3zM174 97h-10
q-64 0 -101 49q-40 53 -40 133q0 37 9 116t104 245q69 116 168 214q90 90 186 119q-21 6 -37 20q-40 37 -43 82q0 11 4 45.5t48 81.5q54 57 130 57q72 0 103 -47q20 -33 20 -70q0 -27 -15 -75t-97 -85q15 -3 26 -9q28 -14 35 -34l14 24q24 30 106 35l28 1q56 0 56 -37
q0 -21 -21 -53q-17 -26 -59.5 -110t-87 -185.5t-67.5 -184.5q-13 -46 -13 -74q0 -44 40 -44q72 0 218 145q80 81 150 172q22 22 81 22q36 0 54 -4.5t18 -9.5q-31 -55 -112 -147q-205 -231 -380 -330q-71 -41 -121 -41q-23 0 -65 12t-50 145q-159 -171 -279 -178z" />
    <glyph glyph-name="ae" unicode="&#xe6;" horiz-adv-x="1300" 
d="M150 97h-5q-66 0 -102 52t-36 130q0 37 12.5 121t114.5 250q73 115 175 211q131 123 263 123q40 0 67 -15t33 -35l15 23q25 30 107 32l28 -1q54 -1 54 -39q0 -11 -5 -23q114 64 211 64q33 0 64 -8q85 -28 85 -120q0 -110 -104 -241t-263 -189q-61 -22 -131 -22
q-24 0 -50 3q-15 -49 -15 -85q0 -18 3 -29q16 -61 87 -61q34 0 78 14q214 68 468 360q27 30 64 31q10 0 24.5 -4t24.5 -12t10 -12q-137 -193 -284 -309q-248 -196 -459 -196q-31 0 -58 5q-45 8 -104 44.5t-86 106.5q-165 -167 -286 -169zM730 551q74 2 144.5 49t125 109.5
t79.5 114.5q16 30 16 47q-1 13 -10 13q-20 0 -78.5 -35.5t-136.5 -112t-140 -185.5zM230 278q40 1 89 52q96 103 183 292q34 77 44 114q6 26 6 50q-1 30 -29 30q-44 0 -106 -70.5t-122 -177t-84 -192.5q-10 -33 -10 -54q0 -44 29 -44z" />
    <glyph glyph-name="ccedilla" unicode="&#xe7;" horiz-adv-x="752" 
d="M135 -166q-25 1 -50.5 14.5t-29.5 40.5q0 18 11 30q17 19 27 19q11 0 18 -15q3 -22 33 -22q16 0 32.5 7.5t28 20t18.5 31.5q4 10 4 19q0 32 -42 32q-17 0 -52 -10q-9 -3 -12 -3q-11 0 -18 9l-1 2q-11 11 -11 20q0 21 27 74q-111 30 -133 96q-25 80 -25 132q0 73 29 159
q51 146 156.5 279t212 191.5t188.5 58.5q45 0 89 -14q58 -21 80 -62t22 -78q0 -34 -12 -74q-34 -87 -96 -135t-90 -50t-32 -2q-42 0 -44 38l62 76q56 73 56 134v11q-6 37 -24 37q-59 0 -144.5 -80t-159.5 -196.5t-87.5 -181t-13.5 -85.5q0 -70 54 -103q23 -12 51 -12
q38 0 86 21q149 65 334 243q73 70 108 111q26 28 101 28q47 0 47 -14q0 -3 -2 -7q-87 -119 -226.5 -247t-277 -206.5t-236.5 -78.5h-9l-12 -22q32 -1 59 -15q48 -25 48 -86q0 -39 -25 -74q-43 -61 -117 -61z" />
    <glyph glyph-name="egrave" unicode="&#xe8;" horiz-adv-x="773" 
d="M208 100q-84 0 -141 38q-77 53 -77 171q0 14 5.5 90.5t147.5 294.5q125 167 270 240q102 52 188 52q36 0 70 -9q83 -31 83 -117q0 -7 -4.5 -59.5t-83.5 -161.5t-203 -179q-97 -55 -205 -55q-31 0 -62 4q-18 -56 -18 -94q0 -87 93 -87q110 0 268 112q138 103 274 277
q21 16 50 16q29 -1 47 -9q34 -14 34 -26l-1 -2q-158 -217 -328 -337q-224 -159 -407 -159zM245 547q74 1 145.5 47t127.5 109t83 113q16 32 16 48q0 15 -12 15q-19 0 -77.5 -35t-138 -111.5t-144.5 -185.5z" />
    <glyph glyph-name="eacute" unicode="&#xe9;" horiz-adv-x="778" 
d="M208 100q-84 0 -141 38q-77 53 -77 171q0 14 5.5 90.5t147.5 294.5q125 167 270 240q102 52 188 52q36 0 70 -9q83 -31 83 -117q0 -7 -4.5 -59.5t-83.5 -161.5t-203 -179q-97 -55 -205 -55q-31 0 -62 4q-18 -56 -18 -94q0 -87 93 -87q110 0 268 112q138 103 274 277
q21 16 50 16q29 -1 47 -9q34 -14 34 -26l-1 -2q-158 -217 -328 -337q-224 -159 -407 -159zM245 547q74 1 145.5 47t127.5 109t83 113q16 32 16 48q0 15 -12 15q-19 0 -77.5 -35t-138 -111.5t-144.5 -185.5z" />
    <glyph glyph-name="ecircumflex" unicode="&#xea;" horiz-adv-x="778" 
d="M208 100q-84 0 -141 38q-77 53 -77 171q0 14 5.5 90.5t147.5 294.5q125 167 270 240q102 52 188 52q36 0 70 -9q83 -31 83 -117q0 -7 -4.5 -59.5t-83.5 -161.5t-203 -179q-97 -55 -205 -55q-31 0 -62 4q-18 -56 -18 -94q0 -87 93 -87q110 0 268 112q138 103 274 277
q21 16 50 16q29 -1 47 -9q34 -14 34 -26l-1 -2q-158 -217 -328 -337q-224 -159 -407 -159zM245 547q74 1 145.5 47t127.5 109t83 113q16 32 16 48q0 15 -12 15q-19 0 -77.5 -35t-138 -111.5t-144.5 -185.5z" />
    <glyph glyph-name="edieresis" unicode="&#xeb;" horiz-adv-x="778" 
d="M504 1148q-22 0 -45 9q-34 18 -34 59v22q0 22 31.5 59t89.5 37q74 -10 74 -71q0 -31 -20 -61q-37 -54 -96 -54zM788 1148q-22 0 -44 9q-35 18 -35 59v22q0 22 32 59t89 37q74 -10 74 -71q0 -31 -20 -61q-37 -54 -96 -54zM208 100q-84 0 -141 38q-77 53 -77 171
q0 14 5.5 90.5t147.5 294.5q125 167 270 240q102 52 188 52q36 0 70 -9q83 -31 83 -117q0 -7 -4.5 -59.5t-83.5 -161.5t-203 -179q-97 -55 -205 -55q-31 0 -62 4q-18 -56 -18 -94q0 -87 93 -87q110 0 268 112q138 103 274 277q21 16 50 16q29 -1 47 -9q34 -14 34 -26l-1 -2
q-158 -217 -328 -337q-224 -159 -407 -159zM245 547q74 1 145.5 47t127.5 109t83 113q16 32 16 48q0 15 -12 15q-19 0 -77.5 -35t-138 -111.5t-144.5 -185.5z" />
    <glyph glyph-name="igrave" unicode="&#xec;" horiz-adv-x="502" 
d="M519 1176q-7 0 -16 4q-90 60 -169 97.5t-183 63.5q-27 9 -27 38v18q0 16 15.5 47t31.5 40q8 3 18 3q36 0 113 -38t157.5 -101t98.5 -109v-5q0 -8 -5.5 -24t-17.5 -28q-8 -6 -16 -6zM103 105q-126 0 -132 112l-1 23q0 149 154 474l14 29q56 127 56 181v20q30 32 89 44
q14 3 27 3q41 0 71 -28q7 -11 7 -31q0 -69 -120 -333q-101 -222 -101 -272q0 -20 13 -23q74 5 272 211q69 75 91 101q19 17 79 18q30 0 51 -13q11 -4 11 -9q0 -10 -105 -146q-190 -242 -362 -330q-59 -31 -114 -31z" />
    <glyph glyph-name="iacute" unicode="&#xed;" horiz-adv-x="502" 
d="M164 1161q-9 0 -16 6q-13 12 -18.5 28t-5.5 24v5q18 46 99 109t157.5 101t112.5 38q11 0 19 -3q16 -9 31 -40t15 -47v-18q0 -29 -26 -38q-105 -26 -183.5 -63.5t-169.5 -97.5q-8 -4 -15 -4zM103 105q-126 0 -132 112l-1 23q0 149 154 474l14 29q56 127 56 181v20
q30 32 89 44q14 3 27 3q41 0 71 -28q7 -11 7 -31q0 -69 -120 -333q-101 -222 -101 -272q0 -20 13 -23q74 5 272 211q69 75 91 101q19 17 79 18q30 0 51 -13q11 -4 11 -9q0 -10 -105 -146q-190 -242 -362 -330q-59 -31 -114 -31z" />
    <glyph glyph-name="icircumflex" unicode="&#xee;" horiz-adv-x="502" 
d="M529 1072q-20 2 -27 18q-25 68 -83 199q-3 6 -11 7q-3 0 -11 -2q-153 -68 -254 -154q-9 -6 -18 -6q-10 1 -25 14t-18 55q2 23 24 45q60 50 153 96q167 81 208 81q3 0 14 -2t20 -27q42 -136 106 -259q6 -6 6 -9q-9 -17 -38 -37q-25 -17 -46 -19zM103 105q-126 0 -132 112
l-1 23q0 149 154 474l14 29q56 127 56 181v20q30 32 89 44q14 3 27 3q41 0 71 -28q7 -11 7 -31q0 -69 -120 -333q-101 -222 -101 -272q0 -20 13 -23q74 5 272 211q69 75 91 101q19 17 79 18q30 0 51 -13q11 -4 11 -9q0 -10 -105 -146q-190 -242 -362 -330q-59 -31 -114 -31z
" />
    <glyph glyph-name="idieresis" unicode="&#xef;" horiz-adv-x="502" 
d="M233 1241q-22 0 -45 9q-34 18 -34 59v22q0 22 31.5 59t89.5 37q74 -10 74 -71q0 -31 -20 -61q-37 -54 -96 -54zM517 1241q-22 0 -44 9q-35 18 -35 59v22q0 22 32 59t89 37q74 -10 74 -71q0 -31 -20 -61q-37 -54 -96 -54zM103 105q-126 0 -132 112l-1 23q0 149 154 474
l14 29q56 127 56 181v20q30 32 89 44q14 3 27 3q41 0 71 -28q7 -11 7 -31q0 -69 -120 -333q-101 -222 -101 -272q0 -20 13 -23q74 5 272 211q69 75 91 101q19 17 79 18q30 0 51 -13q11 -4 11 -9q0 -10 -105 -146q-190 -242 -362 -330q-59 -31 -114 -31z" />
    <glyph glyph-name="eth" unicode="&#xf0;" horiz-adv-x="1050" 
d="M338 -193q-100 0 -148 67q-89 0 -100 76q-2 17 -2 36q0 130 127 413q-10 -2 -25 -2q-18 0 -52.5 3.5t-75.5 37.5t-54 117q-2 14 -2 29q0 75 39 207.5t129.5 294.5t224 291t305.5 176q96 22 176 22q123 0 232 -70t147 -252q18 -85 18 -180q0 -106 -34 -277.5t-148.5 -389
t-285.5 -377.5t-385 -212q-47 -10 -86 -10zM226 424l44 95l29 64q-26 17 -37 46q-10 24 -10 49v9q-26 -119 -26 -234v-29zM305 -83l1 29q2 27 6 38q180 50 326.5 190.5t249.5 326t153 373.5q40 148 40 270q0 32 -7.5 119.5t-92.5 145.5q-38 26 -91 26q-68 0 -161 -41
q-160 -77 -283.5 -255t-182.5 -403l4 7q49 2 107 11q80 184 149 390q22 14 59 14q29 0 48 -15q47 -42 47 -119q0 -12 -4.5 -65.5t-52.5 -176.5l34 1q56 0 105.5 -15t71.5 -66q9 -22 9 -52q0 -41 -16 -96q-111 35 -234 35q-26 0 -53 -2l-74 -157q-66 -134 -117 -252.5
t-63 -200.5q14 -50 22 -60z" />
    <glyph glyph-name="ntilde" unicode="&#xf1;" horiz-adv-x="942" 
d="M802 1160h-33q-45 0 -81 7l-21 3l-47 8q-75 15 -130 15q-47 0 -94 -14l-5 -3q-18 -5 -24 -5q-11 0 -11 11q0 16 15 54q36 88 83 89h33q56 0 137 -16q88 -16 154 -16q55 0 106 17q5 2 8 2q9 0 9 -12q0 -21 -26 -73q-34 -67 -73 -67zM66 81q-78 0 -96 49q-10 25 -10 57
q0 84 84 302q98 255 98 370q0 29 -4 55l8 11q7 11 24 24q33 28 85 28q77 0 86 -62q2 -17 2 -35q0 -73 -38 -173l-7 -24l1 -1l3 5q94 138 194 208q128 91 236 91q115 0 115 -105q0 -11 -4.5 -56.5t-38 -138.5t-66.5 -171l-3 -8q-59 -144 -59 -194q0 -34 26 -34q19 0 68 36
q74 53 272 268q31 35 51.5 56t91.5 21q29 0 45.5 -4.5t16.5 -10.5l-1 -3q-45 -70 -128.5 -178.5t-187.5 -209.5t-213 -148q-53 -23 -102 -23q-53 0 -102 26q-39 31 -39 99l1 47q4 79 93 322q55 154 55 193q0 25 -16 25q-24 0 -102 -70q-103 -100 -190 -261.5t-144 -287.5
l-32 -67q-6 -11 -14.5 -17.5t-15.5 -8t-11 -1.5z" />
    <glyph glyph-name="ograve" unicode="&#xf2;" horiz-adv-x="804" 
d="M225 105q-132 0 -200 139q-25 71 -25 147q0 66 19 135q42 149 121 254t145 106q106 105 205 105q134 0 174 -142q13 -63 13 -126q0 -119 -46 -242h11q49 0 115 32q74 36 141 99q22 20 62 20q53 -5 72 -15q12 -6 12 -11l-1 -4q-134 -145 -247.5 -193.5t-203.5 -48.5l-18 1
q-22 -39 -48 -73q-78 -102 -158.5 -142.5t-142.5 -40.5zM478 519q44 116 46 194q-1 90 -29 107.5t-48 17.5t-41 -11q-55 -31 -55 -107q0 -56 27 -104q35 -61 100 -97zM263 284q83 2 155 115q-137 69 -185 238q-72 -127 -72 -215q0 -20 4 -38q21 -98 98 -100z" />
    <glyph glyph-name="oacute" unicode="&#xf3;" 
d="M225 105q-132 0 -200 139q-25 71 -25 147q0 66 19 135q42 149 121 254t145 106q106 105 205 105q134 0 174 -142q13 -63 13 -126q0 -119 -46 -242h11q49 0 115 32q74 36 141 99q22 20 62 20q53 -5 72 -15q12 -6 12 -11l-1 -4q-134 -145 -247.5 -193.5t-203.5 -48.5l-18 1
q-22 -39 -48 -73q-78 -102 -158.5 -142.5t-142.5 -40.5zM478 519q44 116 46 194q-1 90 -29 107.5t-48 17.5t-41 -11q-55 -31 -55 -107q0 -56 27 -104q35 -61 100 -97zM263 284q83 2 155 115q-137 69 -185 238q-72 -127 -72 -215q0 -20 4 -38q21 -98 98 -100z" />
    <glyph glyph-name="ocircumflex" unicode="&#xf4;" 
d="M225 105q-132 0 -200 139q-25 71 -25 147q0 66 19 135q42 149 121 254t145 106q106 105 205 105q134 0 174 -142q13 -63 13 -126q0 -119 -46 -242h11q49 0 115 32q74 36 141 99q22 20 62 20q53 -5 72 -15q12 -6 12 -11l-1 -4q-134 -145 -247.5 -193.5t-203.5 -48.5l-18 1
q-22 -39 -48 -73q-78 -102 -158.5 -142.5t-142.5 -40.5zM478 519q44 116 46 194q-1 90 -29 107.5t-48 17.5t-41 -11q-55 -31 -55 -107q0 -56 27 -104q35 -61 100 -97zM263 284q83 2 155 115q-137 69 -185 238q-72 -127 -72 -215q0 -20 4 -38q21 -98 98 -100z" />
    <glyph glyph-name="otilde" unicode="&#xf5;" 
d="M225 105q-132 0 -200 139q-25 71 -25 147q0 66 19 135q42 149 121 254t145 106q106 105 205 105q134 0 174 -142q13 -63 13 -126q0 -119 -46 -242h11q49 0 115 32q74 36 141 99q22 20 62 20q53 -5 72 -15q12 -6 12 -11l-1 -4q-134 -145 -247.5 -193.5t-203.5 -48.5l-18 1
q-22 -39 -48 -73q-78 -102 -158.5 -142.5t-142.5 -40.5zM478 519q44 116 46 194q-1 90 -29 107.5t-48 17.5t-41 -11q-55 -31 -55 -107q0 -56 27 -104q35 -61 100 -97zM263 284q83 2 155 115q-137 69 -185 238q-72 -127 -72 -215q0 -20 4 -38q21 -98 98 -100z" />
    <glyph glyph-name="odieresis" unicode="&#xf6;" 
d="M320 1148q-22 0 -45 9q-34 18 -34 59v22q0 22 31.5 59t89.5 37q74 -10 74 -71q0 -31 -20 -61q-37 -54 -96 -54zM604 1148q-22 0 -44 9q-35 18 -35 59v22q0 22 32 59t89 37q74 -10 74 -71q0 -31 -20 -61q-37 -54 -96 -54zM225 105q-132 0 -200 139q-25 71 -25 147
q0 66 19 135q42 149 121 254t145 106q106 105 205 105q134 0 174 -142q13 -63 13 -126q0 -119 -46 -242h11q49 0 115 32q74 36 141 99q22 20 62 20q53 -5 72 -15q12 -6 12 -11l-1 -4q-134 -145 -247.5 -193.5t-203.5 -48.5l-18 1q-22 -39 -48 -73q-78 -102 -158.5 -142.5
t-142.5 -40.5zM478 519q44 116 46 194q-1 90 -29 107.5t-48 17.5t-41 -11q-55 -31 -55 -107q0 -56 27 -104q35 -61 100 -97zM263 284q83 2 155 115q-137 69 -185 238q-72 -127 -72 -215q0 -20 4 -38q21 -98 98 -100z" />
    <glyph glyph-name="divide" unicode="&#xf7;" horiz-adv-x="1101" 
d="M501 171q-33 0 -67 14q-54 28 -54 90q0 1 0.5 33.5t48.5 88t135 56.5q112 -15 112 -109q0 -45 -29 -91q-36 -53 -94 -73q-26 -9 -52 -9zM579 938q-33 0 -67 14q-53 27 -53 90q0 1 0.5 33.5t48.5 88t135 56.5q112 -15 112 -110q0 -44 -30 -90q-36 -53 -94 -73
q-26 -9 -52 -9zM880 567q-69 0 -199 14l-72 6q-168 18 -310 18q-127 0 -230 -33l-5 -1q-24 0 -24 55q0 59 26 113q31 56 172 56q68 0 198 -14l73 -6q168 -18 309 -18q128 0 231 33l5 1q23 0 23 -58t-25 -110q-31 -56 -172 -56z" />
    <glyph glyph-name="oslash" unicode="&#xf8;" 
d="M136 -28q-11 0 -22 25q-3 7 -3 14q0 33 26 111q-65 33 -106 118q-25 71 -25 148q0 66 19 136q42 150 121 255t145 107q106 105 205 105q31 0 58 -7q122 191 175 191q11 -1 27 -15.5t27 -35.5q10 -15 10 -30t-11 -24q-170 -156 -363 -503q31 -32 65 -50q40 106 45 181
q63 100 129 185q25 -59 25 -161q0 -120 -46 -243l11 -1q48 0 115 33q74 35 135 99q22 20 68 20q38 0 66 -10q12 -7 12 -12l-1 -4q-203 -247 -445 -247l-18 1q-22 -39 -48 -74q-78 -102 -159 -143t-142 -41q-23 0 -35 2q-27 -62 -50 -120q-4 -10 -10 -10zM368 650
q49 97 98 186q-7 2 -13 2q-20 0 -41 -12q-55 -31 -55 -107q0 -36 11 -69zM207 305q40 95 90 201q-37 55 -58 130q-72 -128 -72 -218q0 -20 4 -38q11 -50 36 -75zM274 280q80 5 150 116q-39 19 -70 47q-42 -82 -80 -163z" />
    <glyph glyph-name="ugrave" unicode="&#xf9;" horiz-adv-x="881" 
d="M89 100q-29 0 -54 10l-4 1q-78 35 -87 119q-2 21 -2 43q0 108 99 377q75 203 85 293q29 26 60 26q11 0 41 -12t45 -84q1 -12 1 -27q-4 -85 -98 -316l-38 -96q-16 -51 -16 -86q0 -49 42 -49q54 0 141 107q192 254 299 510q4 7 4 10q3 6 3 8h1v3q1 1 1 1.5t2 3t2 4t1 1.5v3
q3 0 3 3t1 3v2l4 6v2h1q0 8 3 11l11 27q19 2 36 2q49 -3 78 -32q25 -28 25 -76q0 -56 -26 -105q-169 -315 -169 -444q0 -58 45 -69h3q43 0 99 53t133 146q47 54 102 115q20 20 58 20q44 0 67 -17q12 -8 12 -15q0 -15 -139 -190q-210 -266 -362 -269q-121 8 -177 104
q-22 37 -38 93v3q-160 -223 -298 -223z" />
    <glyph glyph-name="uacute" unicode="&#xfa;" horiz-adv-x="881" 
d="M89 100q-29 0 -54 10l-4 1q-78 35 -87 119q-2 21 -2 43q0 108 99 377q75 203 85 293q29 26 60 26q11 0 41 -12t45 -84q1 -12 1 -27q-4 -85 -98 -316l-38 -96q-16 -51 -16 -86q0 -49 42 -49q54 0 141 107q192 254 299 510q4 7 4 10q3 6 3 8h1v3q1 1 1 1.5t2 3t2 4t1 1.5v3
q3 0 3 3t1 3v2l4 6v2h1q0 8 3 11l11 27q19 2 36 2q49 -3 78 -32q25 -28 25 -76q0 -56 -26 -105q-169 -315 -169 -444q0 -58 45 -69h3q43 0 99 53t133 146q47 54 102 115q20 20 58 20q44 0 67 -17q12 -8 12 -15q0 -15 -139 -190q-210 -266 -362 -269q-121 8 -177 104
q-22 37 -38 93v3q-160 -223 -298 -223z" />
    <glyph glyph-name="ucircumflex" unicode="&#xfb;" horiz-adv-x="881" 
d="M89 100q-29 0 -54 10l-4 1q-78 35 -87 119q-2 21 -2 43q0 108 99 377q75 203 85 293q29 26 60 26q11 0 41 -12t45 -84q1 -12 1 -27q-4 -85 -98 -316l-38 -96q-16 -51 -16 -86q0 -49 42 -49q54 0 141 107q192 254 299 510q4 7 4 10q3 6 3 8h1v3q1 1 1 1.5t2 3t2 4t1 1.5v3
q3 0 3 3t1 3v2l4 6v2h1q0 8 3 11l11 27q19 2 36 2q49 -3 78 -32q25 -28 25 -76q0 -56 -26 -105q-169 -315 -169 -444q0 -58 45 -69h3q43 0 99 53t133 146q47 54 102 115q20 20 58 20q44 0 67 -17q12 -8 12 -15q0 -15 -139 -190q-210 -266 -362 -269q-121 8 -177 104
q-22 37 -38 93v3q-160 -223 -298 -223z" />
    <glyph glyph-name="udieresis" unicode="&#xfc;" horiz-adv-x="881" 
d="M320 1148q-22 0 -45 9q-34 18 -34 59v22q0 22 31.5 59t89.5 37q74 -10 74 -71q0 -31 -20 -61q-37 -54 -96 -54zM604 1148q-22 0 -44 9q-35 18 -35 59v22q0 22 32 59t89 37q74 -10 74 -71q0 -31 -20 -61q-37 -54 -96 -54zM89 100q-29 0 -54 10l-4 1q-78 35 -87 119
q-2 21 -2 43q0 108 99 377q75 203 85 293q29 26 60 26q11 0 41 -12t45 -84q1 -12 1 -27q-4 -85 -98 -316l-38 -96q-16 -51 -16 -86q0 -49 42 -49q54 0 141 107q192 254 299 510q4 7 4 10q3 6 3 8h1v3q1 1 1 1.5t2 3t2 4t1 1.5v3q3 0 3 3t1 3v2l4 6v2h1q0 8 3 11l11 27
q19 2 36 2q49 -3 78 -32q25 -28 25 -76q0 -56 -26 -105q-169 -315 -169 -444q0 -58 45 -69h3q43 0 99 53t133 146q47 54 102 115q20 20 58 20q44 0 67 -17q12 -8 12 -15q0 -15 -139 -190q-210 -266 -362 -269q-121 8 -177 104q-22 37 -38 93v3q-160 -223 -298 -223z" />
    <glyph glyph-name="yacute" unicode="&#xfd;" horiz-adv-x="794" 
d="M356 1061q-9 0 -16 6q-13 12 -18.5 28t-5.5 24v5q18 46 99 109t157.5 101t112.5 38q11 0 19 -3q16 -9 31 -40t15 -47v-18q0 -29 -26 -38q-105 -26 -183.5 -63.5t-169.5 -97.5q-8 -4 -15 -4zM21 -748q-96 0 -177 61.5t-112 172.5q-12 43 -12 87q0 71 40.5 166.5t193.5 183
t430 105.5l21 90q21 90 51 233q-170 -244 -319 -244q-108 0 -130 113q-3 21 -3 46q0 118 93 408q62 195 62 247q0 17 -5 26q9 11 37 23q35 14 74 14q29 0 56 -13q21 -15 21 -56q0 -71 -71 -274q-69 -204 -69 -271q0 -54 36 -54q15 0 36 8q106 54 238 336q29 65 55.5 143
t57.5 148q47 89 141 89q41 0 66 -12q18 -8 18 -17q0 -3 -2 -6q-57 -80 -106 -257t-99 -403q-33 -148 -70 -299q97 16 189 42q26 7 48 7t51 -10.5t43 -32.5q5 -8 5 -15q0 -11 -15 -18q-166 -65 -354 -98q-49 -177 -111 -320t-150 -234.5t-213 -111.5q-23 -3 -45 -3zM0 -588
q85 0 185 103t169 376q-189 -9 -302 -69t-160 -141q-40 -69 -40 -130q0 -11 4.5 -51t56.5 -68q44 -20 87 -20z" />
    <glyph glyph-name="thorn" unicode="&#xfe;" horiz-adv-x="978" 
d="M410 424q41 0 94.5 44.5t106.5 126.5t85 166q30 77 30 133q0 5 -2 37t-54 35q-50 -1 -103.5 -57t-99 -136t-73.5 -154q-35 -89 -35 -132q0 -14 3 -33q5 -30 48 -30zM30 -125q-40 0 -90 15q-27 10 -27 19q0 11 13 26q57 77 127 319q57 202 116 441q49 192 97 366
q109 396 183 451q36 27 78 27q3 0 28 -0.5t63 -42.5l-4 -10q-39 -98 -61.5 -159.5t-43.5 -132t-56 -194.5q136 131 304 137q170 -1 170 -206q0 -6 -2 -56t-29.5 -141t-60.5 -149q-65 -115 -169 -209q-132 -119 -288 -119q-48 0 -83 15.5t-48 35.5l-9 -47q-33 -173 -54 -262
q-16 -67 -76 -104q-33 -20 -78 -20z" />
    <glyph glyph-name="ydieresis" unicode="&#xff;" horiz-adv-x="800" 
d="M364 1143q-22 0 -45 9q-34 18 -34 59v22q0 22 31.5 59t89.5 37q74 -10 74 -71q0 -31 -20 -61q-37 -54 -96 -54zM648 1143q-22 0 -44 9q-35 18 -35 59v22q0 22 32 59t89 37q74 -10 74 -71q0 -31 -20 -61q-37 -54 -96 -54zM21 -748q-96 0 -177 61.5t-112 172.5
q-12 43 -12 87q0 71 40.5 166.5t193.5 183t430 105.5l21 90q21 90 51 233q-170 -244 -319 -244q-108 0 -130 113q-3 21 -3 46q0 118 93 408q62 195 62 247q0 17 -5 26q9 11 37 23q35 14 74 14q29 0 56 -13q21 -15 21 -56q0 -71 -71 -274q-69 -204 -69 -271q0 -54 36 -54
q15 0 36 8q106 54 238 336q29 65 55.5 143t57.5 148q47 89 141 89q41 0 66 -12q18 -8 18 -17q0 -3 -2 -6q-57 -80 -106 -257t-99 -403q-33 -148 -70 -299q97 16 189 42q26 7 48 7t51 -10.5t43 -32.5q5 -8 5 -15q0 -11 -15 -18q-166 -65 -354 -98q-49 -177 -111 -320
t-150 -234.5t-213 -111.5q-23 -3 -45 -3zM0 -588q85 0 185 103t169 376q-189 -9 -302 -69t-160 -141q-40 -69 -40 -130q0 -11 4.5 -51t56.5 -68q44 -20 87 -20z" />
    <glyph glyph-name="franc" unicode="&#x20a3;" horiz-adv-x="1101" 
d="M148 -151h-6q-64 0 -104 40q-37 35 -37 83l1 15l10 -1q141 0 296 358q-39 -6 -81 -20l-5 -1q-18 0 -18 44q0 33 13 60q22 37 129 37h11l40 110l55 33q-174 -22 -201 -29l-10 -1q-7 0 -7 8l1 10q0 74 55 122q38 26 167 37q58 185 95 317q23 85 52 173q-156 -24 -282 -24
q-112 0 -171 38q-40 26 -40 79q0 27 11 61q0 1 2.5 3.5t7.5 2.5q4 0 9 -2q95 -48 220 -48q3 0 68.5 0.5t207.5 30.5t280 67q287 77 398 77q62 0 105 -17q72 -34 72 -112q0 -62 -40.5 -128t-64.5 -66q-7 0 -10 8q-36 94 -245 94q-8 0 -61.5 -1t-152.5 -14t-175 -27
q-46 -7 -76 -11q13 -7 26 -12q27 -11 44 -27q12 -11 12 -31q0 -7 -2 -16q-14 -50 -28 -107q-36 -137 -82 -302q28 3 128 3q21 0 80 -1t119 -20q25 -11 33.5 -32t10.5 -48l5 -30l-57 1q-180 0 -360 -16q-24 -82 -52 -162q36 -3 70 -3q28 0 69.5 3.5t106.5 24.5l4 1
q19 0 19 -40q0 -35 -13 -64q-21 -33 -91 -36l-45 -1q-36 0 -116 5l-43 2q-109 -285 -224 -425q-66 -72 -133 -73z" />
    <glyph glyph-name="lira" unicode="&#x20a4;" horiz-adv-x="1162" 
d="M851 -167q-94 0 -327 98q-277 118 -416 118q-53 0 -101 -13q-7 29 -7 53q0 89 121 89l30 -1q-19 26 -19 63q0 32 14 73l33 87q53 137 125 335q-22 3 -46 3q-74 0 -156 -27h-3q-20 0 -20 50q0 55 21 104q22 43 115 43q51 0 144 -17q78 223 122 401q27 105 27 165
q0 41 -13 60q43 13 77 13q46 0 74 -25q45 -40 45 -103v-8q-11 -140 -154 -531q46 -7 90 -7q15 0 51.5 2t104.5 24l4 1q19 0 19 -54q0 -53 -21 -100q-22 -43 -114 -43q-55 0 -149 17q-22 4 -38 6q-3 0 -3 1l-28 -75q-116 -304 -166 -480q97 -22 201 -54q231 -71 329 -71
q14 0 55.5 3t74.5 54q8 7 16 7q11 0 25 -21q20 -29 20 -84q0 -110 -92 -146q-29 -10 -65 -10z" />
    <glyph glyph-name="Euro" unicode="&#x20ac;" horiz-adv-x="1312" 
d="M421 -89q-89 0 -164 61q-94 88 -94 258q0 142 56 312l-34 1q-75 0 -161 -25h-3q-21 0 -21 47q0 51 21 97q25 40 100 40h42q40 0 112 -13q29 67 64 134q-23 2 -47 2q-75 0 -160 -24l-4 -1q-20 0 -20 48q0 50 21 96q23 41 118 41q47 0 153 -16l21 -3q108 172 236 306.5
t259 200.5q86 43 166 43q41 0 81 -12q101 -37 135 -132q14 -39 14 -81q0 -61 -39 -150t-186 -175q-58 -31 -111 -31q-36 0 -55 11q-15 9 -15 19q0 4 3 9q118 75 185 197q60 108 60 177l-1 16l32 -13q-44 45 -96 45q-33 0 -99.5 -32t-169.5 -153t-196 -272q23 -2 47 -2
q75 0 160 24l4 1q20 0 20 -48q0 -51 -22 -97q-23 -40 -118 -40q-61 0 -152 16l-23 3q-39 -70 -71 -135q50 -6 99 -6q12 0 48.5 1.5t106.5 22.5h3q21 0 21 -47q0 -51 -22 -97q-23 -40 -122 -40q-60 0 -199 23q-51 -128 -51 -260q0 -72 20 -111q32 -61 94 -61q13 0 61.5 9
t146.5 80q129 98 237.5 227t156.5 207q10 12 34 12q44 0 44 -18v-2q-36 -116 -136.5 -259.5t-235 -261t-272.5 -157.5q-42 -12 -82 -12z" />
    <glyph glyph-name="partialdiff" unicode="&#x2202;" horiz-adv-x="1193" 
d="M702 -120q-155 2 -292.5 86t-238.5 219.5t-145 291.5q-26 92 -26 180q0 63 13 124q33 120 148 161q67 24 144 24q54 0 155 -20.5t215 -111.5q-97 185 -209 328q-94 -47 -170 -116q-72 86 -72 146q0 9 7 46t79 80q-94 74 -205 94l-7 1q-57 4 -57 29q0 6 2 12
q50 133 164 133q133 0 325 -182q171 51 222 70q31 -22 47 -66q8 -22 8 -45q0 -22 -12 -55t-77 -53l-40 -12q124 -152 225.5 -333t159.5 -362q50 -156 50 -290q0 -21 -5 -106.5t-102.5 -177.5t-305.5 -95zM666 -26q17 0 34 3q87 19 126 102q37 76 37 180q0 8 -1.5 68.5
t-41.5 174.5q-84 238 -282 304q-53 17 -101 17q-41 0 -101 -19t-91 -113q-12 -45 -12 -96q0 -58 23 -155.5t92 -216t161 -189.5q76 -60 157 -60z" />
    <glyph glyph-name="lessequal" unicode="&#x2264;" horiz-adv-x="999" 
d="M761 203q-9 9 -13.5 14.5t-7.5 8.5q-296 241 -625 444q-8 7 -8 18q0 9 6 16q84 115 264 274q180 164 315 224q24 9 47 9q55 0 121 -54q17 -13 17 -24q0 -8 -14 -16q-187 -100 -418 -321q-44 -41 -88 -85l30 -20q455 -292 487 -313.5t32 -58.5v-2q-8 -39 -52.5 -72
t-86.5 -41zM788 -52q-63 0 -181 13l-66 6q-154 18 -283 18q-116 0 -210 -32l-5 -1q-21 0 -21 52q0 134 88 152q46 10 93 10q62 0 180 -13l66 -6q154 -18 283 -18q116 0 210 32l5 1q21 0 21 -55q0 -131 -88 -149q-45 -10 -92 -10z" />
    <glyph glyph-name="greaterequal" unicode="&#x2265;" horiz-adv-x="993" 
d="M214 203l-6 1q-42 8 -86.5 41t-52.5 73q0 38 32.5 59.5t486.5 313.5l30 20q-44 44 -88 85q-231 221 -418 321q-14 8 -14 16q0 11 17 24q66 54 122 54q23 0 46 -9q135 -60 315 -224q180 -159 264 -274q6 -7 6 -16q0 -11 -8 -18q-329 -203 -625 -444q-3 -3 -7.5 -8.5
t-13.5 -14.5zM191 -61h-10q-42 0 -83 7q-92 16 -92 155q0 46 19 47l5 -1q83 -25 184 -25q124 0 342 30q166 23 223 23q42 0 83 -7q88 -15 93 -149v-5q0 -47 -20 -48l-5 1q-83 25 -183 25q-124 0 -342 -30q-151 -21 -214 -23z" />
    <glyph glyph-name="uniFB01" unicode="&#xfb01;" horiz-adv-x="993" 
d="M-57 -284q-16 0 -32 4q-59 23 -59 143q0 94 28.5 239t82 328t115.5 370l-45 -9q-11 -2 -17 -3.5t-10 -1.5q-5 0 -5 10v15q3 83 49 133q24 24 89 35q180 523 216 668q7 23 27 23q5 0 22.5 -3.5t44.5 -34.5q31 -35 31 -82q0 -54 -31.5 -155t-84.5 -247l-54 -154h35
q151 0 236 -10q78 -7 94 -33q44 30 98 30q43 0 71 -27q7 -11 7 -31q0 -69 -120 -332q-101 -224 -101 -271q0 -20 13 -23q42 3 123 68q137 112 250 237q17 18 70 18q30 0 50 -7q11 -3 11 -9q0 -11 -105 -145q-189 -241 -361 -330q-60 -30 -115 -30q-126 0 -132 111l-1 23
q0 149 154 473l14 29q36 82 47 127q-184 -7 -365 -32l-13 -1q24 -60 24 -176q0 -53 -10.5 -187.5t-54.5 -339t-92 -285.5q-35 -60 -102 -97q-49 -28 -92 -28zM13 -118q2 0 13 14t42 116.5t63 241t53.5 268t21.5 208.5q-85 -227 -140 -451q-62 -253 -62 -353q0 -44 9 -44z
M882 1271q-49 3 -68 56q-10 27 -10 57q0 28 13.5 74.5t76.5 77.5q25 8 45 8q36 0 57 -26q26 -32 26 -77q0 -66 -49 -123q-38 -44 -91 -47z" />
    <glyph glyph-name="uniFB02" unicode="&#xfb02;" horiz-adv-x="999" 
d="M-52 -284q-17 0 -33 4q-60 21 -60 141q0 88 29 224.5t83.5 311t117.5 352.5l-73 -14q-5 0 -5 10t1 14q0 77 49 127q24 22 91 33q183 498 220 636q7 22 28 22q5 0 22.5 -3.5t45.5 -32.5q32 -34 32 -78q0 -52 -32.5 -148t-86.5 -235l-55 -147l36 1q249 0 311 -24
q23 -9 31 -26q69 186 122 379q40 147 40 228q0 25 -4 43v2q0 8 8.5 16t25.5 8q75 0 112 -44t37 -100q0 -51 -47 -187q-44 -127 -104 -290q-65 -172 -122 -336q-82 -238 -82 -327q0 -51 31 -51q34 1 97.5 63.5t174.5 184.5l87 95q17 19 63 19q38 0 56 -12q8 -5 8 -11
q0 -9 -150 -184q-218 -254 -320 -277l-13 -3q-20 -6 -46 -6q-10 0 -34.5 1.5t-69.5 39.5q-41 41 -41 124q0 12 4 70.5t45 195t95 283.5q-191 -7 -379 -31l-13 -1q25 -57 25 -167q0 -51 -11 -179.5t-55.5 -323t-93.5 -271.5q-36 -57 -104 -93q-50 -26 -94 -26zM19 -126
q3 0 14 13.5t42.5 111t64 229.5t54.5 255.5t22 198.5q-87 -216 -143 -430q-63 -241 -63 -336q0 -42 9 -42z" />
    <glyph glyph-name="Scedilla" unicode="&#x15e;" horiz-adv-x="1306" 
d="M366 -459q-34 1 -69 17.5t-41 47.5q0 19 16 36q21 22 38 22q16 0 22 -19q9 -25 47 -25q47 0 82 33q31 30 31 57q0 10 -5 19q-11 15 -27 17t-25 2q-30 0 -71 -11q-8 -4 -17 -4q-15 0 -25 12q-15 12 -17 25q2 16 14 43q-26 -4 -54 -5q-102 0 -156 46t-54 115q0 5 2 45.5
t78 122.5q111 110 333 217q91 45 217 96q-41 39 -206 106q-108 43 -218 99t-181 135q-83 103 -83 200q0 36 27 119t174 192.5t347 185.5t402 108q113 18 211 18q76 0 184.5 -18t157.5 -112q19 -43 19 -86q0 -51 -39 -122.5t-143 -145.5t-224 -115q-101 -35 -186 -35
q-17 0 -74.5 4.5t-96.5 75.5q-3 6 -3 13q0 1 1 6t15 12.5t46 13.5q79 16 186.5 59.5t200.5 100t130 109.5q14 20 14 37q0 30 -39 52q-24 11 -71 11q-41 0 -133.5 -12t-253.5 -58t-308.5 -114.5t-234.5 -151.5q-69 -67 -69 -138q0 -18 13 -73t192 -148q35 -17 81 -37
q94 -42 190 -95.5t145 -119.5l-16 -28l203 94q212 100 273 139q35 20 62 20q38 0 56 -25q9 -12 9 -21q0 -6 -4 -10q-87 -86 -252 -167.5t-275 -118.5q4 -16 4 -32l-1 -13q0 -119 -108 -254q-97 -122 -240 -207q-70 -42 -142 -65q-9 -11 -14 -20q102 -2 137 -71
q11 -22 11 -46q0 -46 -35 -89q-60 -70 -160 -71zM271 -26q51 0 137 35q67 28 129 63q180 100 211 266q-359 -156 -472 -263q-49 -46 -49 -71q5 -30 44 -30z" />
    <glyph glyph-name="scedilla" unicode="&#x15f;" horiz-adv-x="665" 
d="M187 -201q-31 0 -63 14q-36 17 -36 48q0 14 13 27q20 20 35 20q16 0 20 -16q6 -22 41 -22q44 0 76 29q26 25 26 52q0 8 -3 16q-10 14 -25.5 15.5t-24.5 1.5q-29 0 -62 -11q-9 -2 -15 -2q-13 0 -22 10q-1 0 -1 1q-12 11 -14 22q3 31 37 84q-145 35 -167 128q-2 13 -2 25
q0 34 18 66q24 40 85 40q25 0 28 -11q17 -45 75 -61q19 -5 38 -5q125 0 142 153l1 12q0 110 -86 228q-2 0 -35 -31q-78 -76 -131 -117q-22 -16 -41 -16h-13q-19 1 -49 27q-13 13 -13 19q0 4 8 14q136 143 269 304q39 48 62 73q44 46 87 70t74 24q18 0 36 -6q64 -30 64 -61
q0 -32 -49 -82q-87 -87 -87 -183q0 -37 12 -79q38 -121 38 -235q0 -20 -3 -57q-10 -110 -100 -184q-77 -57 -177 -62q-17 -22 -24 -34q92 -2 123 -63q8 -23 8 -45q0 -40 -29 -77q-54 -63 -144 -63z" />
    </font>
</defs>
</svg>
